<svg width="109" height="115" viewBox="0 0 109 115" fill="none" xmlns="http://www.w3.org/2000/svg">
<path d="M52.4708 50.6959C52.6525 50.505 52.7918 50.2747 52.8792 50.0214C52.9665 49.7681 52.9997 49.4978 52.9763 49.2296C52.953 48.9614 52.8737 48.7018 52.744 48.4691C52.6144 48.2364 52.4375 48.0363 52.2259 47.8829L55.0303 33.3149L51.9334 34.3549L49.6886 48.4457C49.4657 48.8346 49.3869 49.2954 49.4672 49.741C49.5474 50.1866 49.7812 50.5859 50.1241 50.8632C50.4671 51.1406 50.8954 51.2767 51.3279 51.2459C51.7604 51.2151 52.1671 51.0194 52.4708 50.6959Z" fill="#FC9290"/>
<path d="M56.6133 19.8745L54.6918 18.3576C54.6918 18.3576 52.9968 18.2321 52.6966 21.4291C52.3964 24.6261 51.78 30.8565 51.78 30.8565L48.8397 45.0991L52.9098 46.0334L56.059 30.6631L57.9482 26.0987L56.6133 19.8745Z" fill="#A0A0A0"/>
<path d="M53.4449 43.1301L64.2725 42.9413L65.1748 35.2031H53.4449V43.1301Z" fill="#FC9290"/>
<path d="M63.4538 90.472L65.9533 90.4718L67.1426 80.3882L63.4534 80.3884L63.4538 90.472Z" fill="#FC9290"/>
<path d="M47.5293 86.8497L50.0288 86.8314L51.1504 76.7393L47.8994 77.5193L47.5293 86.8497Z" fill="#FC9290"/>
<path d="M55.3498 28.5392L54.7835 30.0793L54.8967 31.6194L65.9814 35.6347L65.4314 28.8946L64.1853 27.3545L55.3498 28.5392Z" fill="#FFB6B6"/>
<path d="M60.1045 14.6806C57.918 14.6806 56.1455 12.8268 56.1455 10.54C56.1455 8.25321 57.918 6.39941 60.1045 6.39941C62.291 6.39941 64.0635 8.25321 64.0635 10.54C64.0635 12.8268 62.291 14.6806 60.1045 14.6806Z" fill="#FC9290"/>
<path d="M62.3371 95.4362H64.1108L64.4274 93.6848L65.2382 95.4362H69.9425C70.168 95.4362 70.3875 95.3608 70.5692 95.2211C70.7508 95.0813 70.885 94.8845 70.9521 94.6593C71.0192 94.4342 71.0157 94.1925 70.9422 93.9696C70.8687 93.7466 70.7289 93.5541 70.5434 93.4201L66.7867 90.7066V88.936L62.8353 89.1827L62.3371 95.4362Z" fill="#2C2B32"/>
<path d="M46.2207 91.8245L47.9943 91.8116L48.2992 90.0579L49.1217 91.8033L53.8259 91.7689C54.0513 91.7672 54.2704 91.6903 54.4511 91.5492C54.6318 91.4081 54.7646 91.2103 54.8302 90.9847C54.8958 90.759 54.8908 90.5174 54.8157 90.295C54.7407 90.0726 54.5997 89.8811 54.4132 89.7484L50.6385 87.0625L50.6267 85.292L46.677 85.5676L46.2207 91.8245Z" fill="#2C2B32"/>
<path d="M46.7536 79.6738L48.5738 68.0439L50.7393 52.0013C49.1534 48.9211 52.7243 39.356 52.7243 39.356L53.2284 39.3812L64.6372 41.6323L64.6347 41.6208C66.9682 48.2772 67.7413 51.5656 67.6134 58.654L67.1537 84.1353H67.2979C67.5372 84.1353 67.7667 84.2347 67.9359 84.4117C68.1051 84.5887 68.2002 84.8287 68.2002 85.079C68.2002 85.3293 68.1051 85.5693 67.9359 85.7463C67.7667 85.9232 67.5372 86.0227 67.2979 86.0227H62.7864C62.5471 86.0227 62.3176 85.9232 62.1484 85.7463C61.9792 85.5693 61.8841 85.3293 61.8841 85.079C61.8841 84.8287 61.9792 84.5887 62.1484 84.4117C62.3176 84.2347 62.5471 84.1353 62.7864 84.1353H62.9027L58.7617 53.7946L55.2508 66.534L51.2807 79.5569C52.7243 79.1794 52.5002 80.054 52.5002 80.5493C52.5002 80.7996 52.4051 81.0396 52.2359 81.2166C52.0667 81.3936 51.8372 81.493 51.5979 81.493H47.0864C46.8766 81.4932 46.6732 81.4169 46.5114 81.2771C46.3497 81.1374 46.2396 80.943 46.2001 80.7274C46.1607 80.5119 46.1944 80.2887 46.2955 80.0963C46.3965 79.904 46.5585 79.7546 46.7536 79.6738Z" fill="#2F2E41"/>
<path d="M51.8362 39.8512L52.1972 36.0764C52.2347 35.9224 52.3178 35.7848 52.4347 35.6833C52.5515 35.5817 52.6961 35.5215 52.8477 35.5112C52.9981 33.7131 53.6308 25.9557 53.6686 25.6174L53.6701 25.6031L53.9578 19.1751C53.9683 18.9417 54.0606 18.7205 54.2171 18.5537C54.3736 18.3869 54.5834 18.2863 54.8064 18.271L56.326 18.1671C56.3469 18.1664 56.3666 18.1572 56.3811 18.1416C56.3956 18.1259 56.4037 18.1049 56.4037 18.0831C56.4037 17.9076 56.4368 17.7338 56.501 17.5716C56.5652 17.4095 56.6594 17.2621 56.778 17.138C56.8967 17.0139 57.0376 16.9155 57.1926 16.8483C57.3477 16.7812 57.5138 16.7466 57.6816 16.7466H62.1807C62.4721 16.7467 62.7535 16.8581 62.972 17.0597C63.1905 17.2614 63.331 17.5396 63.3674 17.842C63.3694 17.8628 63.3788 17.8821 63.3938 17.8959C63.4088 17.9098 63.4282 17.9172 63.4482 17.9167L63.4487 17.9167C63.96 17.9057 64.458 18.0867 64.8525 18.4269C65.2471 18.7671 65.5119 19.244 65.599 19.7709C66.2141 23.5138 67.4468 32.0086 66.8373 36.7312C66.6252 38.3752 67.0825 37.0731 67.1627 38.4487C67.1707 38.5816 67.1535 38.7149 67.1121 38.8409C67.0708 38.9668 67.0061 39.083 66.9217 39.1828C67.2931 39.2957 67.4371 39.7153 67.3418 40.1107L67.4209 40.0902C67.3741 40.2843 67.2555 40.4511 67.0911 40.5538C66.9268 40.6564 66.7302 40.6866 66.5445 40.6377L52.7207 36.993C52.3341 36.8911 51.7388 40.2555 51.8362 39.8512Z" fill="#A0A0A0"/>
<path d="M76.318 48.9975C76.084 48.8763 75.8771 48.7042 75.7119 48.4932C75.5466 48.2823 75.4271 48.0376 75.3616 47.7765C75.2961 47.5154 75.2863 47.2441 75.3329 46.9819C75.3795 46.7196 75.4814 46.4727 75.6313 46.2586L68.2254 33.404L71.4921 33.3761L78.2133 45.9624C78.551 46.2572 78.7759 46.6671 78.8455 47.1145C78.915 47.5618 78.8244 48.0156 78.5908 48.3897C78.3572 48.7638 77.9968 49.0323 77.5779 49.1443C77.159 49.2563 76.7107 49.2041 76.318 48.9975Z" fill="#FC9290"/>
<path d="M62.7019 20.6018L64.1307 18.6139C64.1307 18.6139 65.7254 18.0259 66.8953 21.0163C68.0652 24.0067 70.3753 29.8257 70.3753 29.8257L77.1279 42.7059L73.4731 44.7261L66.2088 30.8195L63.1345 26.9528L62.7019 20.6018Z" fill="#A0A0A0"/>
<path d="M55.8654 6.85752C55.1278 7.08715 54.4398 6.44192 53.9264 5.83062L54.1089 6.05703C52.9013 6.94646 52.1792 8.39541 51.7107 9.86217C51.2422 11.3273 50.9808 12.862 50.452 14.3061C49.9232 15.7486 49.0697 17.1442 47.7631 17.8638C46.0128 18.8276 43.8682 18.3894 42.0065 17.694C41.9818 17.6843 41.9586 17.6762 41.9339 17.6665C42.6879 16.1935 43.1496 14.5763 43.2914 12.9121C42.5256 14.4758 41.4211 15.8309 40.066 16.8693C38.8496 16.2909 37.6799 15.6106 36.5685 14.8349C35.8495 14.332 35.0918 13.6819 35.0083 12.7811C34.9233 11.8868 35.5619 11.0702 36.3149 10.64C37.0679 10.2099 37.9338 10.0643 38.7564 9.80557C39.5774 9.54844 40.4155 9.12637 40.8469 8.35014C41.8411 6.56481 40.1681 4.04692 41.235 2.30687C41.7607 1.45139 42.7812 1.10856 43.7275 0.870843C45.1719 0.509518 46.6379 0.250723 48.1157 0.0962329C49.413 -0.0396102 50.7535 -0.0897436 51.9874 0.346887C53.2213 0.78352 54.3408 1.79747 54.6052 3.13323C55.3257 3.52943 56.088 3.96768 56.4746 4.71965C56.8612 5.47 56.6462 6.61495 55.8654 6.85752Z" fill="#2A292D"/>
<path d="M54.7646 6.55624C54.0583 7.48155 53.6739 8.48221 53.6739 9.08148C52.2067 11.886 54.3048 14.2949 56.9863 15.8293C58.0559 16.4445 59.2909 16.6697 60.4963 16.4693L60.6085 15.9684L60.7605 16.4196C60.7605 16.4196 62.5064 22.4504 63.0823 22.8042C62.8637 21.7309 62.6134 16.7615 62.4918 15.714C62.3234 14.2884 62.9105 12.1659 63.334 10.8752C63.5966 10.0798 63.7313 9.24429 63.7328 8.40274V8.36595L64.1452 9.75127L65.6465 9.08146C65.3672 7.40594 65.6465 5.50384 62.2979 5.66881C60.4869 4.36614 58.892 4.1677 57.582 4.53717C57.4129 4.2638 56.438 4.77582 56.1563 4.63187" fill="#2A292D"/>
<path d="M51.0146 36.0006C51.0783 36.5946 51.3298 37.1494 51.7294 37.5768C52.1289 38.0042 52.6535 38.2798 53.2198 38.3598L61.3712 39.5149C62.0452 39.6097 62.7277 39.4208 63.2687 38.9898C63.8097 38.5588 64.1651 37.9209 64.2568 37.2161L65.4316 28.1303C65.5081 27.5396 65.3937 26.9391 65.1067 26.4241L65.1627 25.9825C65.3942 25.8943 65.5982 25.7416 65.7527 25.541C65.9073 25.3403 66.0065 25.0993 66.0395 24.844C66.0726 24.5886 66.0383 24.3287 65.9404 24.0923C65.8425 23.8558 65.6846 23.6519 65.4839 23.5025L64.4769 18.6236C64.4904 18.5191 64.4829 18.4128 64.4547 18.3116C64.4266 18.2103 64.3786 18.1163 64.3136 18.0356C64.2487 17.9549 64.1684 17.8893 64.0778 17.843C63.9872 17.7967 63.8883 17.7708 63.7876 17.7668C63.6044 17.7647 63.427 17.8335 63.2894 17.96C63.1518 18.0864 63.0638 18.2616 63.0423 18.4519L62.9502 19.1691C62.8273 20.1171 62.3647 20.9809 61.6561 21.5858C60.9476 22.1908 60.0458 22.4918 59.1331 22.4281C58.2204 22.3643 57.3649 21.9405 56.7396 21.2423C56.1142 20.5442 55.7656 19.6237 55.7643 18.6671C55.7644 18.496 55.7753 18.3251 55.7968 18.1556L55.887 17.4497C55.9164 17.2536 55.8735 17.0531 55.767 16.8888C55.6605 16.7244 55.4983 16.6086 55.3132 16.5645C55.2168 16.5454 55.1177 16.547 55.0219 16.5693C54.9261 16.5915 54.8357 16.634 54.7561 16.6941C54.6766 16.7541 54.6096 16.8305 54.5592 16.9186C54.5088 17.0066 54.4762 17.1045 54.4632 17.2062L53.8803 21.6982C53.5597 21.675 53.2418 21.7721 52.9834 21.9719C52.725 22.1718 52.5431 22.4613 52.4704 22.7887C52.3976 23.116 52.4387 23.4598 52.5863 23.7584C52.7339 24.0569 52.9783 24.2907 53.2758 24.4179C52.984 24.6293 52.7375 24.9019 52.5521 25.2184C52.3666 25.5349 52.2461 25.8883 52.1984 26.2562L51.0218 35.3438C50.9933 35.5616 50.9909 35.7822 51.0146 36.0006Z" fill="#47A050"/>
<path d="M65.2798 26.1828C65.2894 26.1084 65.2703 26.0331 65.2268 25.9734C65.1833 25.9137 65.119 25.8745 65.0479 25.8643L53.9376 24.0831C53.9024 24.0781 53.8666 24.0805 53.8322 24.0899C53.7978 24.0994 53.7656 24.1159 53.7373 24.1384C53.709 24.161 53.6853 24.1891 53.6674 24.2212C53.6495 24.2534 53.6378 24.2889 53.6331 24.3257C53.6283 24.3625 53.6305 24.4 53.6396 24.436C53.6487 24.4719 53.6644 24.5056 53.686 24.5352C53.7075 24.5648 53.7344 24.5896 53.7651 24.6083C53.7958 24.627 53.8298 24.6392 53.865 24.6442L64.9753 26.4254C65.0464 26.4354 65.1184 26.4155 65.1755 26.37C65.2326 26.3245 65.2701 26.2572 65.2798 26.1828Z" fill="#3F3D56"/>
<path d="M63.9801 30.9522L64.3473 28.1143C64.3756 27.8954 64.3196 27.6737 64.1917 27.4979C64.0637 27.3222 63.8742 27.2068 63.6649 27.1772L53.0536 25.7575C52.8443 25.7279 52.6323 25.7864 52.4642 25.9203C52.2962 26.0541 52.1859 26.2523 52.1575 26.4712L51.7903 29.3091C51.762 29.5281 51.818 29.7498 51.946 29.9255C52.0739 30.1013 52.2634 30.2167 52.4727 30.2463L56.7112 30.8561C56.7024 30.8864 56.6954 30.9172 56.69 30.9484L56.3149 33.8474L52.7383 33.3411C52.7148 33.3378 52.6909 33.3393 52.668 33.3456C52.645 33.3519 52.6235 33.3629 52.6046 33.3779C52.5857 33.3929 52.5698 33.4117 52.5579 33.4331C52.546 33.4545 52.5382 33.4782 52.535 33.5028C52.5318 33.5274 52.5333 33.5524 52.5394 33.5764C52.5454 33.6004 52.556 33.6229 52.5703 33.6426C52.5847 33.6623 52.6027 33.6789 52.6232 33.6914C52.6437 33.7038 52.6664 33.7119 52.6899 33.7152L56.2665 34.2214L57.876 34.4492L61.2737 34.9302C61.3211 34.9368 61.3691 34.9235 61.4071 34.8932C61.4452 34.8629 61.4701 34.818 61.4766 34.7684C61.483 34.7189 61.4703 34.6687 61.4414 34.6288C61.4124 34.589 61.3695 34.5629 61.3221 34.5561L57.9244 34.0752L58.2995 31.1762C58.3023 31.1447 58.3033 31.113 58.3026 31.0814L63.084 31.6659C63.2933 31.6956 63.5053 31.637 63.6734 31.5032C63.8414 31.3693 63.9517 31.1711 63.9801 30.9522Z" fill="#3F3D56"/>
<path d="M65.255 30.4074C65.2511 30.3529 65.2586 30.2982 65.2767 30.247C65.2948 30.1957 65.3231 30.1492 65.3599 30.1103C65.3967 30.0715 65.4409 30.0414 65.4898 30.022C65.5386 30.0026 65.5908 29.9944 65.6429 29.9978C65.6624 29.9986 65.6817 30.0011 65.7007 30.0054L67.9853 30.5452C68.0364 30.5581 68.0843 30.5821 68.1259 30.6156C68.1676 30.6491 68.202 30.6913 68.2271 30.7396C68.2606 30.7409 68.2939 30.746 68.3264 30.7547C68.47 30.7887 68.5947 30.881 68.6733 31.0113C68.7518 31.1415 68.7776 31.2991 68.7451 31.4492C68.7125 31.5994 68.6243 31.7299 68.4997 31.812C68.3752 31.8941 68.2245 31.9211 68.081 31.8871C67.9992 31.8673 67.9228 31.8286 67.8572 31.7739L67.083 34.0538C67.0443 34.1253 66.9846 34.1817 66.9127 34.2147C66.8408 34.2477 66.7607 34.2555 66.6842 34.2369L65.199 33.8858C65.1231 33.8672 65.0548 33.824 65.0039 33.7623C64.953 33.7005 64.9222 33.6235 64.9157 33.5423L65.255 30.4074ZM68.1152 31.7248C68.1661 31.7369 68.2187 31.7385 68.2701 31.7294C68.3215 31.7202 68.3707 31.7006 68.4149 31.6716C68.459 31.6426 68.4973 31.6048 68.5275 31.5603C68.5576 31.5158 68.5792 31.4656 68.5908 31.4124C68.6024 31.3593 68.6039 31.3042 68.5951 31.2505C68.5864 31.1967 68.5676 31.1453 68.5399 31.0991C68.5122 31.0529 68.476 31.0129 68.4335 30.9813C68.391 30.9498 68.3429 30.9273 68.2921 30.9151C68.2849 30.9132 68.2777 30.9151 68.2704 30.9132C68.271 30.982 68.2542 31.0497 68.2217 31.1095L67.9384 31.6266C67.9877 31.6756 68.0489 31.7095 68.1152 31.7248Z" fill="#CCCCCC"/>
<path d="M65.6463 29.9971C65.6246 30.299 66.1191 30.6463 66.7814 30.7841C67.3895 30.9143 67.9345 30.8237 68.0879 30.5859C68.0571 30.5668 68.0236 30.5528 67.9886 30.5444L65.704 30.0046C65.685 30.0004 65.6657 29.9978 65.6463 29.9971Z" fill="#E6E6E6"/>
<path d="M66.837 36.0273L67.5003 34.5842C67.8888 33.7388 67.1775 32.8393 65.9145 32.5791L64.3582 32.3047L63.7072 37.0612L63.8419 37.0889C65.1049 37.3491 66.4485 36.8728 66.837 36.0273Z" fill="#47A050"/>
<g opacity="0.2">
<path d="M51.0145 36.0017C51.0781 36.5957 51.3297 37.1505 51.7292 37.5779C52.1287 38.0053 52.6533 38.2809 53.2197 38.3609L61.371 39.516C61.8553 39.5845 62.3482 39.5068 62.7916 39.2921C63.235 39.0775 63.6106 38.7347 63.874 38.3043C63.6443 38.0138 63.3596 37.7759 63.0379 37.6058C62.7162 37.4356 62.3644 37.3367 62.0045 37.3153C61.3043 37.2776 60.6257 37.521 59.94 37.6569C58.2819 37.9837 56.5667 37.6862 55.0983 36.8171C54.4612 36.4301 53.8874 35.9357 53.1872 35.6601C52.487 35.3864 51.5829 35.3959 51.0758 35.93C51.0539 35.9525 51.0334 35.9765 51.0145 36.0017Z" fill="black"/>
</g>
<path d="M83.8953 46.6656C84.2168 46.578 84.5153 46.4209 84.7695 46.2055C85.0238 45.99 85.2278 45.7215 85.367 45.4187C85.5063 45.1159 85.5775 44.7863 85.5755 44.453C85.5736 44.1197 85.4986 43.7909 85.3559 43.4898L90.2688 27.4727L86.6552 26.7563L82.1619 42.4565C81.6718 42.7298 81.2991 43.1734 81.1143 43.7032C80.9294 44.233 80.9453 44.8121 81.159 45.331C81.3727 45.8498 81.7692 46.2722 82.2736 46.5182C82.7779 46.7642 83.3549 46.8166 83.8953 46.6656Z" fill="#FFB6B6"/>
<path d="M90.5518 22.7944C90.0303 22.5875 89.4563 22.5527 88.9136 22.6949V22.6982C88.7306 22.7421 88.5536 22.8078 88.3863 22.8939C88.2029 22.984 88.0313 23.0965 87.8756 23.2288C87.5388 23.5084 87.2786 23.869 87.1195 24.2767L84.7252 28.4485C84.6564 28.5668 84.6143 28.6987 84.6017 28.835C84.5891 28.9714 84.6063 29.1088 84.6523 29.2377C84.6972 29.3674 84.7697 29.4858 84.8647 29.5849C84.9597 29.6839 85.0751 29.7612 85.2028 29.8114L85.7201 30.0137L88.1774 30.9787L89.0827 31.3369L89.6929 31.5756C89.8204 31.626 89.9572 31.6482 90.0941 31.6407C90.231 31.6332 90.3646 31.5962 90.4859 31.5323C90.6071 31.4684 90.7131 31.379 90.7966 31.2703C90.8801 31.1615 90.9391 31.0361 90.9696 30.9024L92.0507 26.23C92.3064 25.5755 92.2922 24.8464 92.0112 24.2024C91.7303 23.5584 91.2054 23.0521 90.5518 22.7944Z" fill="#3F3D56"/>
<path d="M97.6748 94.865H100.177L101.367 85.2163H97.6748V94.865Z" fill="#FFB6B6"/>
<path d="M96.3525 99.1996H98.1465L98.4667 97.5059L99.2868 99.1996H104.045C104.273 99.1996 104.495 99.1267 104.679 98.9916C104.862 98.8564 104.998 98.6661 105.066 98.4484C105.134 98.2306 105.13 97.9969 105.056 97.7813C104.982 97.5657 104.84 97.3795 104.652 97.2499L100.853 94.6258V92.9136L96.8565 93.1521L96.3525 99.1996Z" fill="#2C2B32"/>
<path d="M73.3457 89.9031L75.4972 91.1791L81.4431 83.4872L78.2676 81.604L73.3457 89.9031Z" fill="#FFB6B6"/>
<path d="M92.4032 22.7023C92.4583 22.673 92.5059 22.6318 92.5428 22.5818C92.5797 22.5318 92.6049 22.4742 92.6167 22.4129C92.6285 22.3517 92.6265 22.2883 92.611 22.2274C92.5955 22.1664 92.5667 22.1092 92.5268 22.06L94.8692 20.7558L94.5375 18.6003L92.0028 18.9403L91.893 22.0029C91.8154 22.0733 91.7672 22.17 91.7574 22.2747C91.7476 22.3794 91.7769 22.4849 91.8398 22.5711C91.9027 22.6573 91.9948 22.7183 92.0986 22.7425C92.2024 22.7667 92.3108 22.7524 92.4032 22.7023Z" fill="#FFB6B6"/>
<path d="M70 92.9572L71.543 93.8723L72.6823 92.5789L72.5238 94.454L76.6162 96.881C76.8124 96.9973 77.0406 97.0479 77.2675 97.0254C77.4945 97.0028 77.7083 96.9083 77.8777 96.7557C78.0472 96.603 78.1634 96.4002 78.2094 96.1768C78.2554 95.9534 78.2288 95.7212 78.1335 95.514L76.2039 91.3189L77.0773 89.8461L73.5182 88.0127L70 92.9572Z" fill="#2C2B32"/>
<path d="M98.7928 33.1729L100.009 40.9224L88.46 41.0746L89.9798 33.6288L98.7928 33.1729Z" fill="#FFB6B6"/>
<path d="M100.052 40.8257L103.351 48.8252L103.591 70.2178L100.776 90.6433H97.661L96.3848 70.5508L93.2457 56.8027L90.1497 71.1818L80.5233 85.256H75.793L84.4896 69.7467L85.4961 52.8519C85.4961 52.8519 84.8688 45.6847 88.0793 41.4555L88.8608 39.1978L100.052 40.8257Z" fill="#47525E"/>
<path d="M100.211 26.0365C100.205 25.9669 100.195 25.8939 100.181 25.8243C99.9319 24.1522 99.03 22.6471 97.6732 21.6384C96.3165 20.6297 94.6154 20.1996 92.9423 20.4421C91.371 20.6776 89.9395 21.4782 88.9164 22.6938V22.6972C88.8634 22.7602 88.8136 22.8265 88.7639 22.8928C88.6743 23.0056 88.5914 23.1249 88.5119 23.2443C87.793 24.3304 87.4228 25.6099 87.4507 26.912V26.9153C87.4611 27.4171 87.5312 27.9158 87.6596 28.401C87.8805 29.2496 88.0543 30.1098 88.1802 30.9776C88.2665 31.5281 88.3328 32.0687 88.3825 32.5959C88.4124 32.8612 88.4356 33.1232 88.4555 33.3785V33.3819C88.555 34.6453 88.5881 35.7795 88.618 36.6582C88.6312 37.1358 88.6445 37.5337 88.6677 37.8388C88.6683 37.8588 88.6705 37.8788 88.6743 37.8985C88.6998 38.1035 88.7878 38.2957 88.9264 38.449C88.9434 38.4705 88.9623 38.4904 88.9828 38.5087C89.1299 38.641 89.3077 38.7345 89.5001 38.7806C89.5667 38.7939 89.6344 38.8006 89.7024 38.8005H89.7223L91.6556 37.8985L93.181 37.1888L98.3576 34.7747C98.5697 34.7703 98.7755 34.7013 98.9473 34.5769C99.1192 34.4524 99.249 34.2785 99.3193 34.0783V34.075C99.3259 34.0484 99.3358 34.0219 99.3425 33.992C99.621 32.8944 100.115 31.7171 100.291 29.8236C100.314 29.5517 100.334 29.2698 100.344 28.968V28.9647C100.373 27.9867 100.329 27.0079 100.211 26.0365Z" fill="#A0616A"/>
<path d="M93.0215 19.3927C95.7183 19.3927 97.9044 17.2065 97.9044 14.5098C97.9044 11.8131 95.7183 9.62695 93.0215 9.62695C90.3248 9.62695 88.1387 11.8131 88.1387 14.5098C88.1387 17.2065 90.3248 19.3927 93.0215 19.3927Z" fill="#FFB6B6"/>
<path d="M87.8106 22.1016C86.782 22.1029 85.7959 22.5121 85.0685 23.2394C84.3412 23.9668 83.932 24.9529 83.9307 25.9815V34.0232C83.9303 34.9272 84.246 35.8029 84.8231 36.4987C85.4003 37.1945 86.2025 37.6667 87.091 37.8335H87.0943C87.3305 37.8775 87.5703 37.8997 87.8106 37.8998H93.1828V22.1016H87.8106Z" fill="#C7EAC7"/>
<path d="M87.8779 22.894V28.7604C87.8779 28.9398 87.9492 29.1118 88.0761 29.2387C88.2029 29.3656 88.375 29.4368 88.5544 29.4368C88.7339 29.4368 88.9059 29.3656 89.0328 29.2387C89.1597 29.1118 89.2309 28.9398 89.2309 28.7604V22.894H87.8779Z" fill="#3F3D56"/>
<path d="M90.8614 32.5952H86.9284C86.8162 32.5953 86.7052 32.6175 86.6016 32.6605C86.498 32.7036 86.4039 32.7667 86.3247 32.8461C86.2456 32.9256 86.1829 33.0199 86.1402 33.1237C86.0976 33.2274 86.0758 33.3386 86.0762 33.4508V35.8019C86.076 36.0283 86.1656 36.2456 86.3254 36.406C86.4851 36.5664 86.702 36.6568 86.9284 36.6575H90.8614C91.0882 36.657 91.3055 36.5667 91.4658 36.4063C91.6261 36.246 91.7164 36.0287 91.717 35.8019V33.4508C91.717 33.3384 91.6949 33.2272 91.6519 33.1234C91.6089 33.0196 91.5459 32.9252 91.4664 32.8458C91.387 32.7663 91.2926 32.7033 91.1888 32.6603C91.085 32.6173 90.9738 32.5952 90.8614 32.5952Z" fill="#3F3D56"/>
<path d="M98.1261 31.8541C99.1987 30.4928 99.7648 28.801 99.7277 27.0683C99.7277 23.5841 97.6524 20.7495 95.1014 20.7495C93.7319 20.7495 92.4417 21.568 91.5615 22.9951L91.9457 23.232C92.7418 21.9412 93.892 21.2009 95.1014 21.2009C97.4035 21.2009 99.2763 23.833 99.2763 27.0683C99.3139 28.6943 98.7856 30.2828 97.7817 31.5624L98.1261 31.8541Z" fill="#C7EAC7"/>
<path d="M108.764 43.6512C108.912 43.3524 108.992 43.0248 109 42.6916C109.007 42.3585 108.941 42.0277 108.807 41.7227C108.673 41.4177 108.473 41.1458 108.222 40.9263C107.972 40.7067 107.676 40.5448 107.356 40.452L98.6237 26.1538L95.6914 28.3838L104.464 42.1577C104.344 42.7058 104.429 43.2789 104.703 43.7686C104.977 44.2582 105.421 44.6303 105.951 44.8144C106.481 44.9985 107.06 44.9818 107.579 44.7674C108.097 44.553 108.519 44.1558 108.764 43.6512Z" fill="#FFB6B6"/>
<path d="M101.652 27.8974L100.177 25.8248L99.3874 24.7172L98.8734 23.9943C98.712 23.676 98.4875 23.3939 98.2135 23.1653C97.7458 22.7738 97.1575 22.5555 96.5476 22.5471C95.9378 22.5388 95.3437 22.7409 94.8654 23.1194C94.3872 23.498 94.0541 24.0298 93.9221 24.6253C93.7902 25.2207 93.8676 25.8435 94.1412 26.3886L95.6733 30.9483C95.7176 31.0781 95.7892 31.1969 95.8833 31.2965C95.9775 31.3962 96.092 31.4745 96.219 31.5261C96.3461 31.5777 96.4827 31.6013 96.6197 31.5955C96.7567 31.5896 96.8909 31.5544 97.013 31.4922L97.5072 31.2401L98.2865 30.8422L98.9862 30.4874H98.9895L100.286 29.8241L100.727 29.6019L101.311 29.3035C101.433 29.2405 101.54 29.1521 101.624 29.0442C101.709 28.9364 101.77 28.8116 101.802 28.6783C101.834 28.545 101.838 28.4063 101.812 28.2716C101.786 28.1369 101.732 28.0093 101.652 27.8974Z" fill="#A0616A"/>
<path d="M90.0436 10.5263V10.5298C90.0441 10.7422 90.017 10.9538 89.963 11.1593C89.9544 11.1953 89.9441 11.233 89.9321 11.269V11.2708C89.817 11.6377 89.6185 11.9729 89.3522 12.2503C89.0859 12.5276 88.7589 12.7395 88.3969 12.8694C88.3438 12.89 88.2889 12.9071 88.234 12.9226C88.1184 12.9561 88.0002 12.9802 87.8807 12.9946C87.7733 13.0098 87.6649 13.0173 87.5565 13.0169C87.4717 13.0172 87.387 13.0132 87.3026 13.0049C87.1052 12.9849 86.9111 12.9405 86.7246 12.8728C86.6954 12.8643 86.6667 12.854 86.6388 12.8419C86.6248 12.837 86.611 12.8312 86.5976 12.8248C86.2865 12.6945 86.005 12.5024 85.7704 12.26C85.5357 12.0177 85.3528 11.7302 85.2326 11.415C85.1125 11.0998 85.0576 10.7634 85.0714 10.4264C85.0852 10.0893 85.1674 9.75861 85.3129 9.45428L85.3146 9.45257C85.4366 9.19725 85.602 8.96508 85.8035 8.76646C86.2687 8.30227 86.8993 8.0419 87.5565 8.04262C87.5891 8.04205 87.6217 8.04319 87.6542 8.04604C88.0327 8.06169 88.4027 8.16326 88.7361 8.34305C89.0696 8.52284 89.3577 8.77614 89.5788 9.08378C89.7701 9.34916 89.9066 9.65006 89.9801 9.96885C90.0222 10.1517 90.0435 10.3387 90.0436 10.5263Z" fill="#2F2E41"/>
<path d="M87.175 9.01936C86.9563 8.19526 86.4838 7.46089 85.8245 6.92035C85.1651 6.37981 84.3523 6.06054 83.5013 6.00778C82.6503 5.95503 81.8043 6.17146 81.0832 6.62641C80.3621 7.08136 79.8025 7.75175 79.4837 8.54253C78.9495 9.86782 79.1453 11.3716 78.8253 12.7643C78.5026 14.0288 77.7742 15.1526 76.7517 15.9635C75.7291 16.7744 74.4689 17.2276 73.1641 17.2537L78.0048 19.2042C78.5217 19.4685 79.1012 19.5859 79.6802 19.5436C80.5225 19.4008 81.1086 18.5963 81.3459 17.7756C81.5832 16.955 81.5639 16.0834 81.7141 15.2424C81.909 14.2091 82.353 13.239 83.0074 12.4161C83.6619 11.5932 84.5071 10.9422 85.4699 10.5197C86.0149 10.2868 86.6206 10.1112 87.006 9.66095C87.3914 9.21065 87.3699 8.36117 86.8114 8.16282" fill="#2F2E41"/>
<path d="M95.0188 9.03876C94.3621 7.60397 92.6296 7.8959 91.0631 8.08516C90.2808 8.20585 89.5398 8.51545 88.9041 8.98713C88.2685 9.45881 87.7575 10.0783 87.4153 10.7921C86.7457 12.2386 86.6177 13.8773 87.0546 15.4102C87.2889 16.4543 87.8482 17.3971 88.6521 18.1033C89.4794 18.7687 93.3686 20.3422 93.6923 18.9873C93.2876 20.7549 94.1018 20.4782 95.3071 21.8331C95.9314 19.9578 96.224 16.4245 96.8483 14.5492L97.1302 13.7024C97.3283 13.1074 97.5266 12.5113 97.6697 11.9008C97.8495 11.1338 97.9187 10.2543 97.4423 9.62686C96.9659 8.99947 95.7657 8.97507 95.5249 9.72515" fill="#2F2E41"/>
<path d="M94.2312 15.009L94.0225 13.6802C94.1643 12.0277 93.9328 9.39901 95.0173 9.0376L95.6805 9.70083C95.261 9.84073 94.4631 12.312 94.2312 15.009Z" fill="#FF6584"/>
<path d="M76.4893 98.2647C84.9888 98.2648 93.4888 96.2638 105.488 103.264C89.4722 103.264 42.9883 117.906 42.9883 113.763C42.9883 109.621 29.973 103.264 45.9893 103.264C62.0055 103.264 56.9888 98.2642 76.4893 98.2647Z" fill="black" fill-opacity="0.07"/>
<path d="M40.4893 92.2647C48.9888 92.2648 57.4888 90.2638 69.4884 97.2638C53.4722 97.2638 6.98833 111.906 6.98833 107.763C6.98833 103.621 -6.02697 97.2638 9.98929 97.2638C26.0055 97.2638 20.9888 92.2642 40.4893 92.2647Z" fill="black" fill-opacity="0.07"/>
<path d="M8.97949 39.7334L12.1223 40.2623V93.9998L8.97949 92.4131V39.7334Z" fill="#7E572A"/>
<path d="M12.1221 40.1574L15.2649 39.7334V92.728L12.1221 93.9998V40.1574Z" fill="#6B471D"/>
<path d="M0.673469 27L20.4286 29.6181L19.7551 42.2327L0 39.1385L0.673469 27Z" fill="#7E572A"/>
<path d="M20.4284 29.618L21.9998 29.499L21.5508 41.5186L19.7549 42.2326L20.4284 29.618Z" fill="#6B471D"/>
<path d="M3.81669 27.119L22.0004 29.4991L20.6534 29.7371L0.673828 27L3.81669 27.119Z" fill="#7E572A"/>
<path d="M9.87793 31.6411L11.6738 32.1171V39.0194L9.87793 38.4244V31.6411Z" fill="#483B2C"/>
<path d="M11.0002 29.0229L13.694 33.0691L7.63281 32.2361L11.0002 29.0229Z" fill="#483B2C"/>
</svg>
