<svg width="46" height="41" viewBox="0 0 46 41" fill="none" xmlns="http://www.w3.org/2000/svg">
<path fill-rule="evenodd" clip-rule="evenodd" d="M3.6538 3.67083C1.3142 6.01247 0 9.1872 0 12.4973C0 15.8075 1.3142 18.9822 3.6538 21.3238L5.4118 23.0888L22.9998 40.7418L40.5868 23.0888L42.3458 21.3238C44.6854 18.9822 45.9996 15.8075 45.9996 12.4973C45.9996 9.1872 44.6854 6.01247 42.3458 3.67083C41.195 2.50873 39.8254 1.58622 38.3159 0.956654C36.8065 0.327083 35.1873 0.00292969 33.5518 0.00292969C31.9163 0.00292969 30.2971 0.327083 28.7877 0.956654C27.2782 1.58622 25.9086 2.50873 24.7578 3.67083L22.9998 5.43583L21.2408 3.67083C20.0901 2.50888 18.7204 1.5865 17.2111 0.957022C15.7018 0.327541 14.0826 0.00343513 12.4473 0.00343513C10.812 0.00343513 9.19283 0.327541 7.68349 0.957022C6.17416 1.5865 4.80454 2.50888 3.6538 3.67083Z" fill="#FE4664"/>
<path opacity="0.4" d="M5.14424 16.7567C4.39847 15.465 4.00586 13.9998 4.00586 12.5082C4.00586 11.0167 4.39847 9.55145 5.14424 8.25974C5.89006 6.96774 6.9629 5.89486 8.25487 5.14899C9.54685 4.40312 11.0124 4.01055 12.5042 4.01074" stroke="white" stroke-width="1.99933" stroke-linecap="round" stroke-linejoin="round"/>
<path fill-rule="evenodd" clip-rule="evenodd" d="M12.4476 0.00200107C10.8123 0.00153142 9.19305 0.325284 7.6836 0.954538C6.17414 1.58379 4.80442 2.50606 3.65364 3.668C3.16032 4.16956 2.70975 4.71144 2.30664 5.288C2.32664 5.268 2.32664 5.265 2.33864 5.253C3.38904 4.19245 4.6392 3.35058 6.01689 2.77604C7.39457 2.2015 8.87246 1.90569 10.3651 1.90569C11.8578 1.90569 13.3357 2.2015 14.7134 2.77604C16.0911 3.35058 17.3412 4.19245 18.3916 5.253L20.7636 7.645L22.3686 6.032C22.5746 5.825 22.7916 5.638 23.0086 5.451L21.2436 3.667C20.0929 2.50488 18.7233 1.58243 17.2138 0.952999C15.7043 0.323573 14.0851 -0.00033854 12.4496 2.65513e-07L12.4476 0.00200107ZM33.5506 0.00200107C30.9586 0.00200107 28.3746 0.828001 26.1856 2.454C28.1695 1.81644 30.2911 1.74056 32.3155 2.23477C34.3398 2.72899 36.1878 3.77399 37.6546 5.254C39.7899 7.39108 40.9893 10.2885 40.9893 13.3095C40.9893 16.3305 39.7899 19.2279 37.6546 21.365L36.0496 22.978L20.6756 38.41L22.9986 40.742L40.5866 23.087L42.3436 21.321C44.6831 18.9791 45.9971 15.8042 45.9971 12.494C45.9971 9.18378 44.6831 6.00894 42.3436 3.667C41.193 2.50518 39.8234 1.58298 38.3141 0.953731C36.8049 0.324481 35.1858 0.000663199 33.5506 0.00100067V0.00200107Z" fill="#ED195E"/>
</svg>
