<svg width="72" height="81" viewBox="0 0 72 81" fill="none" xmlns="http://www.w3.org/2000/svg">
<path d="M52.3724 61.8408C51.9099 60.9652 50.8121 60.6524 50.0029 61.1526C35.1498 70.4088 16.1349 64.9679 7.58154 49.0825C-0.91447 33.1975 4.22922 12.7466 19.0823 3.49095C19.8915 2.99047 20.1806 1.80229 19.7181 0.926911C19.2558 0.0510711 18.1575 -0.261499 17.3486 0.238751C0.819294 10.5577 -4.90253 33.3224 4.57588 50.9588C10.4709 61.9659 20.8163 68.4075 31.7974 69.2829V74.4112H25.151C24.8091 74.4097 24.4703 74.4814 24.1541 74.6223C23.8379 74.7632 23.5506 74.9704 23.3088 75.232C23.0671 75.4937 22.8755 75.8045 22.7453 76.1467C22.6152 76.4888 22.5489 76.8555 22.5503 77.2255C22.5489 77.5955 22.6152 77.9622 22.7453 78.3043C22.8755 78.6465 23.0671 78.9573 23.3088 79.219C23.5506 79.4806 23.8379 79.6878 24.1541 79.8287C24.4703 79.9696 24.8091 80.0413 25.151 80.0398H41.9116C42.2535 80.0413 42.5924 79.9696 42.9086 79.8287C43.2247 79.6878 43.512 79.4806 43.7538 79.219C43.9956 78.9573 44.1871 78.6465 44.3173 78.3043C44.4475 77.9622 44.5138 77.5955 44.5123 77.2255C44.5138 76.8555 44.4475 76.4888 44.3173 76.1467C44.1871 75.8045 43.9956 75.4937 43.7538 75.232C43.512 74.9704 43.2247 74.7632 42.9086 74.6223C42.5924 74.4814 42.2535 74.4097 41.9116 74.4112H34.8029H35.2652V69.408C40.8712 69.2829 46.5352 67.6568 51.7369 64.4048C52.5458 63.842 52.8349 62.7164 52.3724 61.8408Z" fill="#FFBE55"/>
<path d="M34.6878 2.49023C50.0034 2.49023 62.4294 15.9363 62.4294 32.5096C62.4294 49.0829 50.0034 62.529 34.6878 62.529C19.3721 62.529 6.94629 49.0829 6.94629 32.5096C6.94629 15.9365 19.3721 2.49023 34.6878 2.49023Z" fill="#80CCF8"/>
<path d="M55.3785 52.5224C57.286 44.5172 59.0195 32.9473 53.5292 34.2608C48.2698 35.5116 41.7389 36.8874 38.618 37.3877C35.4971 37.8879 31.7406 34.5108 27.5215 32.0717C26.9435 29.5076 26.8857 28.132 30.18 25.505C33.5321 22.816 35.0927 28.069 36.4219 26.5057C38.618 23.6288 37.1155 20.9397 39.9475 14.6858C42.7795 8.55671 43.0683 9.49488 45.0912 4.67914C41.9123 3.30328 38.387 2.49023 34.6882 2.49023C23.9383 2.49023 14.6333 9.11975 10.0098 18.7508C10.7611 20.4394 11.8013 22.1907 13.2462 24.1291C17.6966 29.9456 22.3778 32.3219 29.7177 37.2002C37.0577 42.0157 35.9597 44.2046 34.1681 46.3938C32.3765 48.5827 29.6023 57.9637 34.8618 60.9029L37.2313 62.4664C44.3974 61.7157 50.8128 58.026 55.3785 52.5224Z" fill="#A0E557"/>
<path d="M63.2702 23.7539L60.2192 24.2031C60.2192 24.2031 58.0416 26.665 59.7235 31.4575C61.4055 36.2501 69.0676 35.1992 69.5429 31.4236C70.0182 27.6481 63.2702 23.7539 63.2702 23.7539Z" fill="#458244"/>
<path d="M68.8559 11.5628C63.7086 10.3763 58.9025 19.2961 58.9025 19.2961L59.975 25.8598C59.975 25.8598 65.744 27.0378 68.3684 25.1522C72.0979 22.4996 74.0033 12.745 68.8559 11.5628ZM54.7302 23.7538L57.7812 24.203C57.7812 24.203 59.9588 26.665 58.2769 31.4575C56.5949 36.25 48.9247 35.1991 48.4372 31.4236C47.9497 27.648 54.7302 23.7538 54.7302 23.7538Z" fill="#458244"/>
<path d="M49.144 11.5628C54.2914 10.3763 59.0974 19.2961 59.0974 19.2961L58.0249 25.8598C58.0249 25.8598 52.256 27.0378 49.6315 25.1522C45.902 22.4996 43.9967 12.745 49.144 11.5628Z" fill="#458244"/>
<path d="M63.2045 25.2839C63.2045 25.2839 66.7186 27.7459 67.1939 29.6654C67.6693 31.585 65.8289 32.0172 65.8289 32.0172C65.8289 32.0172 65.1992 34.1359 62.4691 32.7842C59.739 31.4324 59.3003 26.2246 59.3003 26.2246L63.2045 25.2839ZM55.0183 25.2373C55.0183 25.2373 51.5001 27.695 51.0247 29.6188C50.5494 31.5426 52.3898 31.9748 52.3898 31.9748C52.3898 31.9748 53.0195 34.0511 55.7496 32.7418C58.4796 31.4324 58.9184 26.1822 58.9184 26.1822L55.0183 25.2373Z" fill="#347E3B"/>
<path d="M60.0763 18.8381C60.0763 18.8381 64.407 13.1642 66.8893 13.2871C69.3715 13.41 67.8196 17.5754 67.8196 17.5754C68.2101 17.8592 68.5168 18.2512 68.7049 18.7073C68.893 19.1633 68.955 19.6651 68.884 20.156C68.8386 20.5922 68.6916 21.0102 68.4558 21.3736C68.22 21.737 67.9025 22.0347 67.5312 22.2408C67.5312 22.2408 68.2868 24.4951 66.7552 25.2833C64.6873 26.3469 61.2341 27.1604 59.5522 25.5757C57.8703 23.9909 60.0763 18.8381 60.0763 18.8381Z" fill="#347E3B"/>
<path d="M57.9724 18.8381C57.9724 18.8381 53.6376 13.1642 51.1554 13.2871C48.6731 13.41 50.225 17.5839 50.225 17.5839C49.8647 17.8592 49.5768 18.2249 49.388 18.6472C49.1993 19.0694 49.1159 19.5346 49.1455 19.9994C49.175 20.4643 49.3167 20.9139 49.5572 21.3064C49.7978 21.699 50.1295 22.0218 50.5216 22.245C50.5216 22.245 49.7659 24.4951 51.2813 25.2833C53.3573 26.3469 56.7943 27.1604 58.4803 25.5629C60.1662 23.9654 57.9724 18.8381 57.9724 18.8381Z" fill="#347E3B"/>
<path d="M59.4053 15.4059C59.3676 15.4059 59.3303 15.3981 59.2955 15.3829C59.2607 15.3677 59.2292 15.3455 59.2027 15.3175C59.1763 15.2895 59.1554 15.2563 59.1414 15.2199C59.1273 15.1834 59.1204 15.1443 59.1209 15.105C59.1575 10.1642 63.931 8.59212 63.9798 8.57941C64.0171 8.56258 64.0574 8.55417 64.098 8.55471C64.1386 8.55526 64.1787 8.56475 64.2155 8.58256C64.2524 8.60038 64.2853 8.62612 64.3119 8.6581C64.3386 8.69007 64.3585 8.72756 64.3703 8.76812C64.3821 8.80867 64.3856 8.85136 64.3804 8.89341C64.3753 8.93545 64.3618 8.97589 64.3406 9.01209C64.3195 9.04828 64.2912 9.0794 64.2578 9.10342C64.2243 9.12744 64.1863 9.14381 64.1464 9.15146C63.9635 9.21078 59.7303 10.6134 59.7018 15.1178C59.7008 15.1571 59.6923 15.1958 59.6767 15.2317C59.6612 15.2675 59.639 15.2998 59.6114 15.3266C59.5838 15.3534 59.5514 15.3742 59.516 15.3878C59.4806 15.4015 59.443 15.4076 59.4053 15.4059ZM58.5928 15.4059C58.5551 15.4065 58.5177 15.3992 58.4827 15.3845C58.4477 15.3699 58.4159 15.3481 58.389 15.3205C58.3622 15.2929 58.3409 15.26 58.3263 15.2238C58.3118 15.1875 58.3043 15.1486 58.3043 15.1093C58.2677 10.6049 53.8964 9.16417 53.8517 9.15146C53.7866 9.12212 53.7342 9.06885 53.7045 9.0018C53.6747 8.93475 53.6696 8.85861 53.6902 8.7879C53.7108 8.71718 53.7556 8.65685 53.8161 8.6184C53.8766 8.57995 53.9486 8.56607 54.0182 8.57941C54.067 8.57941 58.8406 10.1642 58.869 15.1135C58.868 15.19 58.8387 15.2631 58.7872 15.3176C58.7357 15.3721 58.6661 15.4037 58.5928 15.4059Z" fill="#5F728E"/>
<path d="M64.1351 8.04579C63.9414 8.08669 63.7711 8.20595 63.6615 8.37748C63.5518 8.549 63.5118 8.75883 63.5501 8.96107C63.6164 9.15519 63.7533 9.31427 63.9312 9.40388C64.1092 9.49349 64.3137 9.50643 64.5007 9.4399C64.6954 9.3999 64.867 9.28122 64.9782 9.10975C65.0893 8.93829 65.1309 8.72795 65.0939 8.52461C65.0615 8.42717 65.011 8.33738 64.9451 8.26046C64.8793 8.18353 64.7995 8.12099 64.7103 8.07646C64.6211 8.03192 64.5244 8.00628 64.4257 8.00102C64.3269 7.99575 64.2282 8.01097 64.1351 8.04579ZM53.8323 8.04579C54.026 8.08669 54.1963 8.20595 54.3059 8.37748C54.4156 8.549 54.4556 8.75883 54.4173 8.96107C54.351 9.15519 54.2141 9.31427 54.0362 9.40388C53.8582 9.49349 53.6537 9.50643 53.4667 9.4399C53.2735 9.39798 53.1038 9.2785 52.9944 9.10725C52.8849 8.93601 52.8444 8.72673 52.8816 8.52461C52.9471 8.32981 53.0839 8.17 53.2621 8.08024C53.4403 7.99048 53.6453 7.97809 53.8323 8.04579Z" fill="#516277"/>
<path d="M59.7679 16.6774C60.0799 16.4995 60.3262 16.2184 60.468 15.8783C60.6097 15.5382 60.6389 15.1585 60.5509 14.7992C60.4629 14.4399 60.2627 14.1214 59.9819 13.8939C59.701 13.6664 59.3556 13.543 59 13.543C58.6445 13.543 58.2991 13.6664 58.0182 13.8939C57.7374 14.1214 57.5372 14.4399 57.4492 14.7992C57.3612 15.1585 57.3904 15.5382 57.5321 15.8783C57.6739 16.2184 57.9202 16.4995 58.2322 16.6774C57.7122 18.1732 57.375 21.0971 57.375 24.4616C57.375 29.3219 58.1063 33.2627 59 33.2627C59.8938 33.2627 60.6251 29.3219 60.6251 24.4616C60.6251 21.0971 60.2879 18.1732 59.7679 16.6774Z" fill="#424C54"/>
<path d="M60.626 24.4659C60.626 29.3262 59.8947 33.2585 59.0009 33.2585C58.9307 33.2525 58.8626 33.2304 58.8015 33.1937C58.7404 33.1571 58.6878 33.1069 58.6475 33.0467C59.3787 32.1738 59.9272 28.6652 59.9272 24.4659C59.9272 21.0759 59.5737 18.1733 59.0578 16.6944C59.3417 16.5318 59.5716 16.2832 59.7171 15.9814C59.8627 15.6796 59.9171 15.3389 59.873 15.0042C59.829 14.6695 59.6887 14.3566 59.4706 14.1069C59.2525 13.8571 58.9669 13.6822 58.6515 13.6054C58.7676 13.5782 58.886 13.564 59.005 13.563C59.354 13.5715 59.6907 13.6987 59.964 13.9254C60.2372 14.152 60.4319 14.4656 60.5184 14.8184C60.6049 15.1711 60.5785 15.5437 60.4431 15.8793C60.3078 16.215 60.071 16.4953 59.7687 16.6775C60.2888 18.1733 60.626 21.0971 60.626 24.4659Z" fill="#303A44"/>
<path d="M67.1887 16.4007C67.5 15.6692 67.315 14.8737 66.7757 14.6241C66.2363 14.3744 65.5467 14.7651 65.2354 15.4967C64.9242 16.2282 65.1091 17.0237 65.6485 17.2733C66.1879 17.523 66.8774 17.1323 67.1887 16.4007Z" fill="#C1CDD3"/>
<path d="M67.7293 20.2486C67.9522 19.7245 67.8188 19.1543 67.4312 18.9748C67.0436 18.7954 66.5486 19.0748 66.3256 19.5989C66.1026 20.123 66.2361 20.6933 66.6237 20.8727C67.0113 21.0521 67.5063 20.7727 67.7293 20.2486Z" fill="#C1CDD3"/>
<path d="M66.5599 23.8446C66.7428 23.4147 66.6351 22.9476 66.3193 22.8014C66.0034 22.6552 65.5991 22.8853 65.4162 23.3152C65.2333 23.7452 65.341 24.2123 65.6568 24.3584C65.9727 24.5046 66.377 24.2746 66.5599 23.8446Z" fill="#C1CDD3"/>
<path d="M52.2932 17.2763C52.8326 17.0267 53.0175 16.2312 52.7063 15.4996C52.395 14.7681 51.7055 14.3774 51.1661 14.6271C50.6267 14.8767 50.4418 15.6722 50.753 16.4037C51.0643 17.1353 51.7539 17.526 52.2932 17.2763Z" fill="#C1CDD3"/>
<path d="M51.3257 20.8748C51.7133 20.6954 51.8468 20.1251 51.6238 19.601C51.4008 19.0769 50.9059 18.7975 50.5182 18.9769C50.1306 19.1563 49.9972 19.7266 50.2201 20.2507C50.4431 20.7748 50.9381 21.0542 51.3257 20.8748Z" fill="#C1CDD3"/>
<path d="M52.2919 24.3587C52.6078 24.2125 52.7155 23.7455 52.5326 23.3155C52.3496 22.8856 51.9453 22.6555 51.6295 22.8017C51.3136 22.9479 51.2059 23.415 51.3888 23.8449C51.5718 24.2749 51.9761 24.5049 52.2919 24.3587Z" fill="#C1CDD3"/>
<path d="M69.9975 16.6856C70.5226 16.6856 70.9482 16.0728 70.9482 15.3169C70.9482 14.561 70.5226 13.9482 69.9975 13.9482C69.4725 13.9482 69.0469 14.561 69.0469 15.3169C69.0469 16.0728 69.4725 16.6856 69.9975 16.6856Z" fill="#F0F5F9"/>
<path d="M70.2655 19.9319C70.5998 19.9319 70.8708 19.541 70.8708 19.0589C70.8708 18.5769 70.5998 18.186 70.2655 18.186C69.9312 18.186 69.6602 18.5769 69.6602 19.0589C69.6602 19.541 69.9312 19.9319 70.2655 19.9319Z" fill="#F0F5F9"/>
<path d="M69.4702 22.3665C69.6086 22.0337 69.5339 21.6794 69.3034 21.5751C69.0728 21.4708 68.7738 21.656 68.6354 21.9888C68.497 22.3215 68.5717 22.6759 68.8022 22.7802C69.0327 22.8845 69.3318 22.6993 69.4702 22.3665Z" fill="#F0F5F9"/>
<path d="M47.9331 16.9356C48.4581 16.9356 48.8837 16.3228 48.8837 15.5669C48.8837 14.811 48.4581 14.1982 47.9331 14.1982C47.408 14.1982 46.9824 14.811 46.9824 15.5669C46.9824 16.3228 47.408 16.9356 47.9331 16.9356Z" fill="#F0F5F9"/>
<path d="M47.6688 20.1775C48.0031 20.1775 48.2741 19.7866 48.2741 19.3046C48.2741 18.8225 48.0031 18.4316 47.6688 18.4316C47.3345 18.4316 47.0635 18.8225 47.0635 19.3046C47.0635 19.7866 47.3345 20.1775 47.6688 20.1775Z" fill="#F0F5F9"/>
<path d="M49.1325 23.026C49.363 22.9217 49.4377 22.5674 49.2993 22.2346C49.1609 21.9018 48.8618 21.7166 48.6313 21.8209C48.4008 21.9252 48.3261 22.2795 48.4645 22.6123C48.6029 22.9451 48.9019 23.1303 49.1325 23.026Z" fill="#F0F5F9"/>
<path d="M65.8863 31.1276C66.3283 31.1276 66.6866 30.7538 66.6866 30.2928C66.6866 29.8317 66.3283 29.458 65.8863 29.458C65.4443 29.458 65.0859 29.8317 65.0859 30.2928C65.0859 30.7538 65.4443 31.1276 65.8863 31.1276Z" fill="#C1CDD3"/>
<path d="M64.001 32.3982C64.3376 32.3982 64.6104 32.1136 64.6104 31.7626C64.6104 31.4115 64.3376 31.127 64.001 31.127C63.6644 31.127 63.3916 31.4115 63.3916 31.7626C63.3916 32.1136 63.6644 32.3982 64.001 32.3982Z" fill="#C1CDD3"/>
<path d="M52.5328 31.1276C52.9748 31.1276 53.3331 30.7538 53.3331 30.2928C53.3331 29.8317 52.9748 29.458 52.5328 29.458C52.0907 29.458 51.7324 29.8317 51.7324 30.2928C51.7324 30.7538 52.0907 31.1276 52.5328 31.1276Z" fill="#C1CDD3"/>
<path d="M54.417 32.3982C54.7536 32.3982 55.0264 32.1136 55.0264 31.7626C55.0264 31.4115 54.7536 31.127 54.417 31.127C54.0805 31.127 53.8076 31.4115 53.8076 31.7626C53.8076 32.1136 54.0805 32.3982 54.417 32.3982Z" fill="#C1CDD3"/>
</svg>
