<svg width="121" height="125" viewBox="0 0 121 125" fill="none" xmlns="http://www.w3.org/2000/svg">
<circle cx="60.8111" cy="60.8083" r="58.5" transform="rotate(-1.59239 60.8111 60.8083)" fill="#80CCF8"/>
<path d="M109.702 93.9477C117.794 81.8738 118.046 58.0914 106.371 60.7602C95.188 63.3034 77.13 64.8307 70.4819 65.9083C63.8338 66.9859 55.6341 61.1867 46.492 57.0876C45.1292 52.5494 44.9374 50.0996 51.8509 45.2188C58.885 40.2242 62.4821 49.4994 65.2468 46.6324C69.7998 41.3715 66.4538 36.6651 72.1991 25.3438C77.9505 14.2452 78.9754 15.0849 83.0618 6.37651C76.1966 4.11182 67.4734 2.15375 59.5648 2.3736C35.6892 2.35479 17.1715 17.1322 8.32295 35.158C10.0132 38.1248 12.3899 40.4007 15.5755 43.7717C25.3794 53.88 35.5064 57.8396 51.4423 66.1031C67.3751 74.2545 65.1358 78.2234 61.4137 82.2339C57.6915 86.244 54.3654 101.008 60.2977 109.829L72.3084 118.416C87.5935 116.651 100.312 104.344 109.702 93.9477Z" fill="#A0E557"/>
<path d="M17.6924 92.7295L15.6846 93.4713C14.4799 93.9165 13.3801 93.4101 12.9349 92.2055L12.1931 90.1977C11.7479 88.993 12.2543 87.8932 13.4589 87.4481L15.4667 86.7062L17.6924 92.7295Z" fill="#607D95"/>
<path d="M14.4603 87.0785L15.5731 90.0902C16.0182 91.2949 15.5119 92.3947 14.3072 92.8398C14.1065 92.914 13.7049 93.0624 13.4299 92.9358C14.1283 93.5906 14.879 93.7695 15.6821 93.4728L17.6898 92.7309L15.4642 86.7076L14.4603 87.0785Z" fill="#4B6C85"/>
<path d="M38.8569 119.137L34.8414 120.621L24.6729 99.2773L30.6961 97.0517L38.8569 119.137Z" fill="#8A6845"/>
<path d="M24.6729 99.2773L25.9865 102.215L27.1911 101.77C28.3958 101.325 29.4956 101.831 29.9408 103.036L36.2468 120.102L38.8569 119.137L30.6961 97.0517L24.6729 99.2773Z" fill="#745539"/>
<path d="M50.8604 71.3447C53.0689 70.5287 55.5436 71.6679 56.3597 73.8765L59.3272 81.9075C60.1433 84.1161 59.004 86.5908 56.7954 87.4068" fill="#607D95"/>
<path d="M55.3139 83.3944L56.7976 87.41C59.0062 86.5939 60.1455 84.1192 59.3294 81.9107L57.8456 77.8951C58.6617 80.1037 57.5224 82.5784 55.3139 83.3944Z" fill="#4B6C85"/>
<path d="M58.4975 98.1879C57.2928 98.633 56.193 98.1267 55.7478 96.922L43.8776 64.7978C43.4325 63.5931 43.9388 62.4933 45.1435 62.0482C46.3482 61.603 47.448 62.1094 47.8932 63.314L59.7633 95.4383C60.2085 96.6429 59.7021 97.7428 58.4975 98.1879Z" fill="#888D88"/>
<path d="M57.0153 94.1726C55.8106 94.6177 54.7108 94.1114 54.2656 92.9067L55.7494 96.9223C56.1945 98.1269 57.2944 98.6333 58.4991 98.1881C59.7037 97.743 60.2101 96.6432 59.7649 95.4385L58.2812 91.423C58.7263 92.6276 58.2199 93.7275 57.0153 94.1726Z" fill="#6D736D"/>
<path d="M32.7919 78.0222L26.7686 80.2479L32.7037 96.31L38.727 94.0844L55.007 94.9144L44.6206 66.8057L32.7919 78.0222Z" fill="#CACACA"/>
<path d="M36.4114 91.517L35.6083 91.8138C35.006 92.0363 34.456 91.7832 34.2335 91.1808L29.7822 79.1342L26.7705 80.2471L32.7056 96.3092L38.7289 94.0835L55.0089 94.9136L53.8961 91.902L38.9691 91.0283C38.0918 91.1243 37.2145 91.2203 36.4114 91.517Z" fill="#888D88"/>
<path d="M32.7034 96.3105L22.6645 100.02C21.4599 100.465 20.36 99.9587 19.9149 98.7541L15.4636 86.7075C15.0184 85.5028 15.5248 84.403 16.7294 83.9578L26.7683 80.2484L32.7034 96.3105Z" fill="#8A6845"/>
<path d="M24.5634 95.8955C23.3587 96.3406 22.2588 95.8342 21.8137 94.6296L17.7333 83.5869L16.7294 83.9578C15.5248 84.403 15.0184 85.5028 15.4636 86.7075L19.9149 98.7541C20.36 99.9587 21.4599 100.465 22.6645 100.02L32.7034 96.3105L31.5905 93.2989L24.5634 95.8955Z" fill="#745539"/>
<path d="M70.2627 74.4453L62.2316 77.4128C61.6293 77.6354 61.0794 77.3822 60.8568 76.7799C60.6342 76.1776 60.8874 75.6276 61.4897 75.4051L69.5208 72.4375C70.1231 72.215 70.673 72.4681 70.8956 73.0705C71.1182 73.6728 70.865 74.2227 70.2627 74.4453ZM61.001 72.8474C60.5995 72.9958 60.1237 72.9434 59.7746 72.616C59.3512 72.0879 59.4036 71.6121 59.8576 70.988L63.9343 67.1997C64.4625 66.7764 64.9382 66.8288 65.5623 67.2827C65.9857 67.8108 65.9333 68.2866 65.4793 68.9107L61.4026 72.699L61.001 72.8474ZM69.8258 81.9088L69.4243 82.0572L63.8638 81.8299C63.1872 81.8517 62.7639 81.3236 62.7421 80.647C62.7203 79.9705 63.2485 79.5472 63.925 79.5254L69.4855 79.7526C70.162 79.7308 70.5854 80.259 70.6072 80.9355C70.5548 81.4112 70.2274 81.7604 69.8258 81.9088Z" fill="#004463"/>
<path d="M20.9651 89.2393L16.9496 90.723L17.6915 92.7308L21.707 91.247C22.3093 91.0245 22.5625 90.4745 22.3399 89.8722C22.1174 89.2699 21.5675 89.0167 20.9651 89.2393ZM22.4489 93.2548L18.4334 94.7386L19.1753 96.7463L23.1908 95.2626C23.7931 95.04 24.0463 94.4901 23.8237 93.8877C23.6012 93.2854 23.0512 93.0322 22.4489 93.2548ZM19.4813 85.2237L15.4658 86.7075L16.2077 88.7153L20.2232 87.2315C20.8256 87.0089 21.0787 86.459 20.8562 85.8567C20.6336 85.2544 20.0837 85.0012 19.4813 85.2237Z" fill="#745539"/>
</svg>
