<svg width="117" height="117" viewBox="0 0 117 117" fill="none" xmlns="http://www.w3.org/2000/svg">
<g clip-path="url(#clip0_446_63)">
<circle cx="58.5" cy="58.5" r="58.5" fill="#80CCF8"/>
<path d="M16.4825 17.5L23.5 11.5L28 8.5L31.5 6.5L39.5 3L47.5 1L47.4825 1.5L47.5 23.0085V26.5968C47.5 29.8577 47.0799 33.105 46.25 36.2585V36.2585L45 41.0085L42.1563 44.1107C40.4386 45.9845 39.4229 48.3955 39.2819 50.9335L38.6272 62.7197C38.5453 64.1936 37.9229 65.5856 36.879 66.6295L35.8787 67.6298C35.3161 68.1924 34.553 68.5085 33.7574 68.5085H28.5V68.5085C23.2388 65.5491 17.3614 63.8541 11.3323 63.5575L0.087324 63.0043C0.0375467 63.0018 -0.00250049 62.9625 -0.00581563 62.9128V62.9128C-0.333833 57.9925 -0.010094 53.0505 0.95699 48.2151L1 48L1.5 45.5L2 43.5L2.5 41.5L3 40L3.5 38.5L4 37L7 30.5L10.5 25L13.5 21L16.4825 17.5Z" fill="#A0E557"/>
<path d="M44.8194 82.9072C46.9141 81.3361 49.3873 80.3474 51.9877 80.0415L53.583 79.8538C55.5295 79.6248 57.4987 79.6721 59.4321 79.9943L62.5288 80.5105C66.2941 81.138 70.1332 79.9368 72.8693 77.2751L76.5693 73.6755C77.527 72.7438 78.644 71.9913 79.8671 71.4537L80.6747 71.0988C81.5603 70.7096 82.517 70.5086 83.4842 70.5086V70.5086C84.8122 70.5086 86.1126 70.8873 87.2329 71.6002L88.7571 72.5702C90.2457 73.5175 91.5071 74.7814 92.4514 76.2719L104 94.5001L96.5 103L86.5 110L76 114L65 116.5L54.5 117L45 115L38.5 112.75L35 112L34 111.5L33 111L32 110.5V110.5C33.3205 108.849 34.3043 106.956 34.8957 104.926L35.0175 104.509L36.752 97.2237C37.2606 95.0874 38.0134 93.0167 38.9955 91.0525L40.4512 88.1412C41.4812 86.0811 42.9768 84.2891 44.8194 82.9072V82.9072Z" fill="#A0E557"/>
<path d="M66.081 63.8278L118.145 48.2699L92.1132 56.0488L66.081 63.8278ZM110.405 16.674C109.175 14.6538 106.507 14.0181 104.495 15.276L91.1074 23.5152L66.8799 11.5619L62.0636 14.5234L79.2793 30.7809L66.7494 38.4951L60.0901 35.8882L56.4361 38.1442L64.0109 45.3131L67.2099 48.3271L71.2504 45.866L84.6301 37.5994L95.6003 30.8588L108.996 22.647C111.019 21.3261 111.636 18.6943 110.405 16.674Z" fill="#353535"/>
<path d="M32 110V110C35.3291 111.665 38.7722 113.091 42.3033 114.268L43 114.5V114.5C46.6304 115.49 50.3843 116.173 54.1315 116.518V116.518" stroke="#A0E557"/>
<path d="M54.0059 117.265L60.9143 117.016L68.6957 115.835V115.835C73.3222 114.92 77.8257 113.467 82.1145 111.506L86.5 109.5" stroke="#A0E557"/>
<path d="M76.7315 113.682L83.011 110.791L84.9069 109.976C87.9582 108.663 90.8427 106.993 93.5 105V105L97.5 101.5L100 98.9999L104 94.4999" stroke="#A0E557"/>
</g>
<defs>
<clipPath id="clip0_446_63">
<rect width="117" height="117" fill="white"/>
</clipPath>
</defs>
</svg>
