<svg width="767" height="501" viewBox="0 0 767 501" fill="none" xmlns="http://www.w3.org/2000/svg">
<g clip-path="url(#clip0_466_63)">
<path d="M314.574 442.1H329.13L336.055 385.955L314.572 385.956L314.574 442.1Z" fill="#FFB7B7"/>
<path d="M310.861 437.347L339.528 437.346H339.529C344.374 437.346 349.02 439.271 352.446 442.697C355.872 446.122 357.797 450.769 357.797 455.614V456.207L310.862 456.209L310.861 437.347Z" fill="#2F2E41"/>
<path d="M273.529 79.4158C274.484 78.4072 275.205 77.2015 275.643 75.8838C276.081 74.5661 276.225 73.1683 276.065 71.789C275.904 70.4097 275.443 69.0823 274.714 67.9005C273.985 66.7186 276.161 65.7624 275 65L274.769 64.2489C273.596 60.4377 273 56.4726 273 52.4851V50.5L259 50V50C259 55.9566 257.982 61.8829 256 67.5V67.5C254.848 69.5346 256.722 72.6141 257.212 74.9C257.703 77.1859 259.015 79.2126 260.899 80.5959C262.784 81.9793 265.111 82.6233 267.438 82.4058C269.766 82.1883 271.933 81.1244 273.529 79.4158Z" fill="#FFB7B7"/>
<path d="M235.763 442.1H250.319L257.243 385.955L235.76 385.956L235.763 442.1Z" fill="#FFB7B7"/>
<path d="M232.05 437.347L260.716 437.346H260.717C265.562 437.346 270.209 439.271 273.634 442.697C277.06 446.122 278.985 450.769 278.985 455.614V456.207L232.051 456.209L232.05 437.347Z" fill="#2F2E41"/>
<path d="M229.832 187.639V335.88L233.585 431.58H264.547L274.867 251.439L295.508 325.56L308.644 429.703L346.173 427.827L320.841 187.639H229.832Z" fill="#2F2E41"/>
<path d="M265.824 54.4083C278.26 54.4083 288.342 44.3268 288.342 31.8907C288.342 19.4545 278.26 9.37305 265.824 9.37305C253.388 9.37305 243.307 19.4545 243.307 31.8907C243.307 44.3268 253.388 54.4083 265.824 54.4083Z" fill="#FFB8B8"/>
<path d="M256.468 60.2754L250.473 66.6064L244.844 193.268L311.458 191.391L295.508 80.6804L281.435 67.1934L274.294 60.2754H256.468Z" fill="#BECEBF"/>
<path d="M245.782 74.1111L250.839 65.9043L252.35 83.4934C252.35 83.4934 264.547 122.899 263.609 157.614C262.671 192.328 268.3 273.955 260.794 274.893C253.288 275.831 221.388 277.708 221.388 271.14C221.388 264.572 219.512 90.061 219.512 90.061L245.782 74.1111Z" fill="#3F3D56"/>
<path d="M279.924 65.9043L292.694 75.9875L320.841 86.3081C320.841 86.3081 320.841 206.402 326.47 234.549C332.099 262.696 342.42 265.511 329.285 266.449C316.149 267.387 317.088 262.696 317.088 262.696C317.088 262.696 326.47 215.784 314.273 206.402C302.076 197.02 278.62 142.602 280.497 112.579C282.373 82.5551 278.047 65.9043 279.924 65.9043Z" fill="#3F3D56"/>
<path d="M244.521 38.9361C244.521 38.9361 246.435 35.5762 245.99 24.3522C245.545 13.1281 262.637 19.4763 276.918 18.4056C291.2 17.3348 288.177 37.1445 288.177 37.1445C288.177 37.1445 289.207 35.9669 291.413 26.4062C293.619 16.8455 288.61 7.31788 288.61 7.31788C287.135 -2.72862 279.185 0.491299 279.185 0.491299C283.014 1.98174 282.279 5.16864 282.279 5.16864C279.038 -0.513364 271.088 2.70657 271.088 2.70657C260.485 -3.94705 249.739 4.81494 249.739 4.81494C236.93 7.72194 244.442 17.9084 244.442 17.9084C231.56 24.4181 244.521 38.9361 244.521 38.9361Z" fill="#2F2E41"/>
<path d="M221.419 257.575C222.373 256.566 223.095 255.36 223.533 254.042C223.971 252.725 224.115 251.327 223.954 249.948C223.794 248.568 223.333 247.241 222.604 246.059C221.875 244.877 220.895 243.87 219.735 243.107L223.791 221.784L211.434 216.158L206.129 246.352C204.977 248.386 204.612 250.773 205.102 253.059C205.592 255.345 206.904 257.371 208.789 258.755C210.674 260.138 213 260.782 215.328 260.564C217.656 260.347 219.823 259.283 221.419 257.575Z" fill="#FFB7B7"/>
<path d="M224.202 90.0623L221.711 88.7266C221.711 88.7266 208.252 93.8152 209.19 97.5682C210.128 101.321 201.684 232.674 204.499 237.365C207.314 242.056 229.831 238.303 229.831 238.303L224.202 90.0623Z" fill="#3F3D56"/>
<path d="M331.31 248.732C330.225 247.865 329.344 246.77 328.727 245.526C328.111 244.282 327.776 242.917 327.744 241.529C327.712 240.141 327.985 238.762 328.543 237.491C329.102 236.22 329.932 235.086 330.976 234.17L324.009 213.613L335.469 206.332L344.901 235.501C346.323 237.357 347.015 239.67 346.845 242.001C346.676 244.333 345.657 246.522 343.982 248.153C342.307 249.784 340.091 250.743 337.756 250.85C335.42 250.957 333.127 250.203 331.31 248.732Z" fill="#FFB7B7"/>
<path d="M320.312 230.808C320.312 230.808 343.132 231.41 345.27 226.374C347.409 221.339 320.872 92.4177 321.282 88.571C321.692 84.7244 307.658 81.5469 307.658 81.5469L305.376 83.2144L320.312 230.808Z" fill="#3F3D56"/>
<path d="M421.171 236.61L407.043 167.381L400.836 116.248L387.087 125.143L388.986 181.491L410.932 239.873C410.227 241.217 409.937 242.739 410.099 244.248C410.262 245.756 410.869 247.183 411.844 248.345C412.819 249.508 414.118 250.354 415.575 250.776C417.032 251.199 418.582 251.178 420.028 250.718C421.473 250.257 422.749 249.377 423.693 248.189C424.638 247.001 425.207 245.559 425.33 244.047C425.452 242.535 425.122 241.02 424.382 239.696C423.641 238.371 422.524 237.297 421.171 236.61Z" fill="#FFB7B7"/>
<path d="M289.031 241.961L292.942 171.413L291.647 119.922L309.824 126.723L312.859 182.748L299.636 243.701C300.529 244.928 301.038 246.392 301.096 247.908C301.155 249.424 300.762 250.924 299.966 252.216C299.17 253.507 298.008 254.534 296.628 255.163C295.248 255.793 293.711 255.998 292.214 255.753C290.717 255.507 289.326 254.822 288.22 253.784C287.113 252.746 286.34 251.403 285.999 249.924C285.657 248.446 285.764 246.899 286.304 245.481C286.844 244.063 287.793 242.838 289.031 241.961Z" fill="#FFB7B7"/>
<path d="M327.101 447.07H336.389L340.808 411.244L327.1 411.245L327.101 447.07Z" fill="#FFB7B7"/>
<path d="M324.731 444.038L343.023 444.037C346.115 444.037 349.08 445.265 351.266 447.451C353.452 449.637 354.68 452.602 354.681 455.694V456.073L324.732 456.074L324.731 444.038Z" fill="#2F2E41"/>
<path d="M362.281 442.961L371.46 444.381L381.305 409.652L367.757 407.557L362.281 442.961Z" fill="#FFB7B7"/>
<path d="M360.403 439.602L378.48 442.398C381.535 442.871 384.278 444.538 386.104 447.032C387.93 449.527 388.69 452.645 388.218 455.7L388.16 456.074L358.563 451.496L360.403 439.602Z" fill="#2F2E41"/>
<path d="M324.373 436.373L324.325 436.113L290.701 254.317C288.031 239.723 290.16 224.656 296.769 211.373L317.121 170.67L377.847 178.897L385.014 230.718L410.554 329.574L410.529 329.655L377.807 433.595L356.361 435.006L375.358 342.224L340.574 263.219L343.027 434.959L324.373 436.373Z" fill="#2F2E41"/>
<path d="M384.146 132.282V106.084L388.288 98.5247L388.457 98.5195C391.718 98.6411 394.799 100.041 397.036 102.417C401.202 106.65 403.089 113.703 402.645 123.379L402.637 123.556L384.146 132.282Z" fill="#81AD86"/>
<path d="M311.953 129.434L290.842 126.9L290.825 126.657C290.105 116.13 291.942 108.315 296.287 103.431C298.467 100.819 301.56 99.1346 304.937 98.7206L305.059 98.7148L310.774 103.91L311.953 129.434Z" fill="#81AD86"/>
<path d="M373.064 79.5087H317.512C316.369 79.5074 315.274 79.0529 314.466 78.2449C313.658 77.4368 313.203 76.3413 313.202 75.1986V55.085C313.195 50.8669 314.02 46.6888 315.629 42.7898C317.238 38.8907 319.601 35.3472 322.581 32.3621C325.561 29.3769 329.101 27.0087 332.997 25.3929C336.893 23.777 341.07 22.9453 345.288 22.9453C349.506 22.9453 353.683 23.777 357.579 25.3929C361.476 27.0087 365.015 29.3769 367.995 32.3621C370.976 35.3472 373.338 38.8907 374.947 42.7898C376.556 46.6888 377.381 50.8669 377.374 55.085V75.1986C377.373 76.3413 376.918 77.4369 376.11 78.2449C375.302 79.0529 374.207 79.5074 373.064 79.5087Z" fill="#2F2E41"/>
<path d="M353.897 101.416C354.852 100.407 355.573 99.2015 356.012 97.8838C356.45 96.5661 356.593 95.1683 356.433 93.789C356.272 92.4097 360.729 95.6819 360 94.5C359.781 94.1446 359.38 93.3938 358.894 92.4968C356.912 88.8339 355.051 84.6283 354.5 80.5V80.5L353.368 72.5L339.368 72V72C339.368 77.9566 338.351 83.8829 336.368 89.5V89.5C335.217 91.5346 337.09 94.6141 337.581 96.9C338.071 99.1859 339.383 101.213 341.267 102.596C343.152 103.979 345.479 104.623 347.807 104.406C350.134 104.188 352.302 103.124 353.897 101.416Z" fill="#FFB7B7"/>
<path d="M379.261 185.53L378.86 184.902C378.788 184.789 371.412 173.676 351.339 181.096C330.847 188.672 314.97 174.039 314.812 173.891L314.733 173.816L310.093 132.454L304.614 98.8766L322.053 95.8172L330.626 90.6734L364.719 90.0664L373.69 97.1226L388.42 98.7278L389.768 129.323L389.762 129.356L379.261 185.53Z" fill="#81AD86"/>
<path d="M346.578 79.3123C359.57 79.3123 370.102 68.7801 370.102 55.788C370.102 42.7959 359.57 32.2637 346.578 32.2637C333.586 32.2637 323.054 42.7959 323.054 55.788C323.054 68.7801 333.586 79.3123 346.578 79.3123Z" fill="#FFB7B7"/>
<path d="M368.938 56.5233H337.88C337.297 56.5226 336.734 56.3091 336.296 55.9229C335.859 55.5367 335.577 55.0042 335.504 54.4253L335.102 51.2087C335.064 50.8994 334.925 50.611 334.709 50.3872C334.492 50.1633 334.208 50.016 333.9 49.9675C333.592 49.919 333.277 49.972 333.002 50.1185C332.727 50.2649 332.507 50.4969 332.375 50.7794L330.339 55.1418C330.145 55.554 329.838 55.9026 329.454 56.1472C329.07 56.3918 328.624 56.5222 328.169 56.5233H323.451C323.118 56.5234 322.788 56.4537 322.482 56.3187C322.177 56.1837 321.903 55.9864 321.679 55.7395C321.455 55.4925 321.284 55.2013 321.179 54.8847C321.074 54.568 321.036 54.2328 321.068 53.9006L322.928 34.4708C322.968 34.0551 323.115 33.6568 323.355 33.315C323.594 32.9732 323.919 32.6994 324.296 32.5206C338.52 25.8806 352.943 25.889 367.167 32.5458C367.528 32.7154 367.84 32.9723 368.077 33.2932C368.314 33.6141 368.466 33.989 368.522 34.3838L371.308 53.7884C371.357 54.1282 371.332 54.4745 371.236 54.8038C371.139 55.1332 370.973 55.4379 370.748 55.6973C370.523 55.9567 370.245 56.1647 369.933 56.3072C369.621 56.4497 369.281 56.5235 368.938 56.5233Z" fill="#2F2E41"/>
<path d="M381.717 238.81C382.901 238.391 383.979 237.717 384.875 236.836C385.77 235.956 386.462 234.889 386.901 233.712C387.34 232.536 387.515 231.277 387.415 230.025C387.315 228.773 386.941 227.558 386.321 226.466L406.456 203.512L390.738 201.344L374.027 223.473C372.261 224.637 370.984 226.409 370.437 228.451C369.891 230.494 370.112 232.667 371.06 234.557C372.008 236.448 373.616 237.925 375.581 238.709C377.545 239.492 379.728 239.528 381.717 238.81Z" fill="#9F616A"/>
<path d="M406 442.233L391.957 442.232L385.276 388.066L406.003 388.067L406 442.233Z" fill="#9F616A"/>
<path d="M409.581 455.847L364.301 455.845V455.273C364.301 450.598 366.158 446.116 369.463 442.811C372.768 439.506 377.251 437.649 381.925 437.648H381.926L409.582 437.65L409.581 455.847Z" fill="#2F2E41"/>
<path d="M479.511 430.482L466.099 434.646L443.656 384.897L463.451 378.752L479.511 430.482Z" fill="#9F616A"/>
<path d="M486.968 442.42L443.723 455.846L443.553 455.299C442.167 450.835 442.612 446.004 444.788 441.867C446.964 437.73 450.695 434.628 455.159 433.241L455.16 433.241L481.572 425.041L486.968 442.42Z" fill="#2F2E41"/>
<path d="M395.246 192.506L374.448 216.325L390.731 217.79L395.246 192.506Z" fill="#E6E6E6"/>
<path d="M387.119 223.209C387.119 223.209 379.895 226.82 378.992 243.075C378.088 259.33 381.701 301.775 381.701 301.775C381.701 301.775 378.089 320.739 381.701 337.896C385.313 355.053 378.089 417.358 382.604 417.358C387.119 417.358 410.597 420.068 411.5 417.358C412.404 414.649 413.307 374.014 413.307 374.014C413.307 374.014 420.531 353.244 413.307 340.605C413.307 340.605 438.53 384.65 454.845 418.264C458.416 425.621 485.548 417.361 481.033 409.233C476.518 401.106 465.682 364.082 465.682 364.082C465.682 364.082 457.555 336.992 443.107 325.253L450.331 267.459C450.331 267.459 465.683 228.629 456.654 223.211C447.625 217.793 387.119 223.209 387.119 223.209Z" fill="#2F2E41"/>
<path d="M414.21 76.0151C427.176 76.0151 437.688 65.5035 437.688 52.5368C437.688 39.5702 427.176 29.0586 414.21 29.0586C401.243 29.0586 390.731 39.5702 390.731 52.5368C390.731 65.5035 401.243 76.0151 414.21 76.0151Z" fill="#A0616A"/>
<path d="M436.471 99.3417C436.745 98.1157 436.746 96.8447 436.475 95.6182C436.204 94.3916 435.668 93.2394 434.903 92.2426C434.139 91.2458 433.166 90.4287 432.051 89.8489C430.937 89.2691 442.124 84.1372 439.3 85.1371L436.261 82.4189C432.011 78.6159 428.697 73.8818 426.579 68.5864L424.8 64.1371L409.51 71.8061L412.593 78.9932C414.041 82.3692 414.621 86.054 414.279 89.7116L413 103.402C413.049 105.516 420.264 101.853 421.704 103.401C423.145 104.949 425.104 105.915 427.209 106.115C429.315 106.315 431.42 105.737 433.127 104.488C434.834 103.24 436.024 101.409 436.471 99.3417Z" fill="#9F616A"/>
<path d="M440.397 77.8223L411.209 94.9794C411.209 94.9794 400.033 101.273 395.858 112.136C391.408 123.714 393.995 140.015 395.858 143.742C399.47 150.966 394.343 169.027 394.343 169.027L389.828 210.565C389.828 210.565 373.574 225.916 386.217 227.722C398.859 229.528 421.434 226.819 434.979 227.722C448.525 228.625 463.876 230.432 459.361 221.399C454.846 212.367 449.428 206.048 454.846 187.991C459.086 173.858 458.902 121.017 458.622 98.7021C458.583 95.6376 457.761 92.634 456.234 89.9768C454.707 87.3197 452.525 85.0974 449.897 83.5213L440.397 77.8223Z" fill="#E5E5E5"/>
<path opacity="0.1" d="M427.307 106.268L430.016 161.351L403.762 214.517L399.31 212.823L426.4 163.157L427.307 106.268Z" fill="black"/>
<path opacity="0.1" d="M457.103 173.09V166.768L426.404 217.338L457.103 173.09Z" fill="black"/>
<path d="M397.547 30.7873L393.668 29.2357C393.668 29.2357 401.786 20.3008 413.075 21.0775L409.899 17.5811C409.899 17.5811 417.662 14.4735 424.719 22.6308C428.429 26.9193 432.721 31.9605 435.4 37.6382H439.557L437.822 41.4584L443.894 45.2786L437.662 44.595C438.252 47.893 440.535 51.2841 439.557 54.4886L437.822 63C437.822 63 430.015 46.3244 430.015 44.7727V48.6579C430.015 48.6579 426.134 45.1615 426.134 42.8306L424.016 45.5503L422.958 41.2781L409.902 45.5503L412.017 42.0522L403.9 43.2177L407.076 38.9455C407.076 38.9455 397.902 43.9952 397.549 48.2691C397.196 52.543 390 58.5 390 58.5L387.5 54.4886C387.5 54.4886 387.317 36.6146 397.547 30.7873Z" fill="#2F2E41"/>
<path d="M412.736 241.365C413.827 240.742 414.768 239.888 415.493 238.862C416.218 237.836 416.709 236.664 416.932 235.428C417.155 234.192 417.105 232.922 416.784 231.708C416.463 230.493 415.88 229.364 415.075 228.399L430.816 202.236L414.963 202.892L402.445 227.637C400.915 229.096 399.972 231.065 399.796 233.173C399.621 235.28 400.224 237.379 401.493 239.071C402.761 240.763 404.606 241.932 406.679 242.354C408.751 242.777 410.906 242.425 412.736 241.365Z" fill="#9F616A"/>
<path d="M448.526 89.5633L455.298 88.209C455.298 88.209 475.616 103.109 469.295 132.908C462.973 162.707 434.98 207.858 434.98 207.858C434.98 207.858 428.657 215.986 426.853 217.791C425.048 219.597 421.435 217.791 423.241 220.501C425.048 223.21 420.532 225.015 420.532 225.015C420.532 225.015 400.665 225.015 402.472 217.791C404.278 210.567 434.98 159.091 434.98 159.091L430.466 111.232C430.466 111.232 426.852 87.757 448.526 89.5633Z" fill="#E5E5E5"/>
<path d="M765.802 458H154.802C154.537 458 154.282 457.895 154.095 457.707C153.907 457.52 153.802 457.265 153.802 457C153.802 456.735 153.907 456.48 154.095 456.293C154.282 456.105 154.537 456 154.802 456H765.802C766.067 456 766.321 456.105 766.509 456.293C766.696 456.48 766.802 456.735 766.802 457C766.802 457.265 766.696 457.52 766.509 457.707C766.321 457.895 766.067 458 765.802 458Z" fill="#CACACA"/>
<path d="M16.1072 41.7695V42.1137H6.67868C5.23139 42.1137 3.84338 42.6887 2.81999 43.712C1.79661 44.7354 1.22168 46.1234 1.22168 47.5707V67.5463C1.22168 68.9936 1.79661 70.3816 2.81999 71.405C3.84338 72.4284 5.23139 73.0033 6.67868 73.0033H58.4043C59.8516 73.0033 61.2396 72.4284 62.263 71.405C63.2863 70.3816 63.8613 68.9936 63.8613 67.5463V47.5707C63.8613 46.1234 63.2863 44.7354 62.263 43.712C61.2396 42.6886 59.8516 42.1137 58.4043 42.1137H22.8186V41.7695L16.1072 41.7695Z" fill="#3F3D56"/>
<path d="M153.208 124.738C153.427 154.218 134.591 149.759 111.625 149.759C88.66 149.759 72.045 154.15 70.0427 124.738C66.8611 78 79.1367 43 111.625 43C145.233 43 152.861 78 153.208 124.738Z" fill="#2F2E41"/>
<path d="M27.4311 62.2081C28.1732 63.7095 28.577 65.3554 28.6142 67.0298C28.6514 68.7042 28.321 70.3663 27.6463 71.8992C26.9716 73.4321 25.9691 74.7984 24.7092 75.9019C23.4493 77.0054 21.9628 77.8193 20.3544 78.2861L18.2589 118.943L1.2207 106.403L5.82278 69.7168C5.21759 66.9628 5.64366 64.0825 7.02025 61.6216C8.39683 59.1607 10.6283 57.2903 13.2918 56.3647C15.9553 55.4392 18.8658 55.5228 21.4718 56.5998C24.0777 57.6767 26.1981 59.6723 27.4311 62.2081Z" fill="#A0616A"/>
<path d="M102.847 157.558C101.85 156.212 101.16 154.664 100.827 153.023C100.493 151.382 100.522 149.687 100.914 148.059C101.306 146.431 102.05 144.908 103.094 143.598C104.138 142.288 105.456 141.224 106.956 140.478L101.797 100.096L120.792 109.411L122.778 146.331C123.863 148.933 123.955 151.844 123.038 154.51C122.12 157.176 120.256 159.413 117.799 160.797C115.343 162.181 112.464 162.616 109.708 162.018C106.952 161.421 104.511 159.834 102.847 157.558Z" fill="#A0616A"/>
<path d="M181.074 291.977C181.999 290.58 182.606 288.998 182.853 287.341C183.1 285.685 182.98 283.994 182.503 282.389C182.026 280.784 181.203 279.302 180.091 278.049C178.98 276.797 177.607 275.803 176.07 275.138L179.091 234.539L160.614 244.843L160.578 281.817C159.633 284.473 159.694 287.384 160.751 289.998C161.808 292.612 163.787 294.748 166.314 296C168.84 297.253 171.738 297.535 174.459 296.793C177.179 296.051 179.533 294.338 181.074 291.977Z" fill="#A0616A"/>
<path d="M95.9854 487.409L109.952 487.408L116.596 433.535L95.9824 433.536L95.9854 487.409Z" fill="#A0616A"/>
<path d="M92.4219 482.849L119.928 482.848H119.929C122.231 482.848 124.51 483.301 126.637 484.182C128.764 485.063 130.696 486.354 132.324 487.982C133.952 489.609 135.243 491.542 136.124 493.668C137.005 495.795 137.458 498.075 137.458 500.376V500.946L92.4227 500.948L92.4219 482.849Z" fill="#2F2E41"/>
<path d="M184.846 487.409L198.813 487.408L205.458 433.535L184.844 433.536L184.846 487.409Z" fill="#A0616A"/>
<path d="M181.283 482.849L208.789 482.848H208.79C211.092 482.848 213.372 483.301 215.498 484.182C217.625 485.063 219.557 486.354 221.185 487.982C222.813 489.609 224.104 491.542 224.985 493.668C225.866 495.795 226.319 498.075 226.319 500.376V500.946L181.284 500.948L181.283 482.849Z" fill="#2F2E41"/>
<path d="M176.874 269.607L176.268 269.497C171.18 268.576 166.031 267.645 161.504 266.671L161.056 266.574L161.054 266.116C160.976 245.466 160.899 224.819 160.784 203.986C149.971 182.19 145.425 157.82 147.654 133.592L147.679 133.336L147.889 133.186C149.86 131.817 152.159 130.999 154.551 130.814C156.943 130.629 159.341 131.084 161.499 132.134C163.61 133.287 165.414 134.929 166.761 136.921C168.109 138.914 168.96 141.2 169.245 143.588C173.362 166.026 177.624 189.262 182.378 212.158L182.395 212.242L182.387 212.327C180.626 231.001 178.805 250.31 176.936 268.993L176.874 269.607Z" fill="#C9DDCB"/>
<path d="M167.77 468.208L167.659 467.683C161.125 436.777 154.817 411.609 148.718 387.269C141.408 358.1 134.481 330.46 127.488 294.692C128.448 339.798 130.679 372.204 133.243 409.453C134.401 426.273 135.598 443.666 136.812 463.97L136.85 464.589L136.229 464.574C114.37 464.014 91.9741 462.663 70.3152 461.358L69.7422 461.324L69.7811 460.751C73.8817 400.309 75.1667 361.034 76.1049 332.356C78.0844 271.852 78.3887 262.552 100.926 211.347C101.78 209.404 106.877 203.665 112.481 204.539L156.823 211.44L156.901 211.831C158.152 218.133 164.361 237.258 172.955 263.728C191.327 320.314 219.09 405.827 227.763 456.799L227.861 457.377L227.282 457.459C214.684 459.249 205.618 461.114 196.85 462.916C188.554 464.623 179.976 466.386 168.3 468.128L167.77 468.208Z" fill="#2F2E41"/>
<path d="M129.231 227.436C117.396 227.437 105.698 223.331 97.3118 215.335C96.0012 214.573 94.8929 213.506 94.0803 212.226C93.2677 210.946 92.7746 209.489 92.6424 207.979C92.4273 206.595 92.5176 205.181 92.907 203.836C93.2965 202.491 93.9756 201.247 94.8967 200.192C86.6749 190.24 78.1862 179.955 70.0604 169.481L69.8359 169.192L70.096 168.696C75.4123 158.538 80.9097 148.036 86.1891 137.658C86.5565 136.753 87.1613 135.965 87.9397 135.375C88.718 134.786 89.6411 134.417 90.6114 134.309C91.4543 134.15 92.3208 134.164 93.158 134.351C93.9952 134.538 94.7854 134.894 95.4803 135.397L95.4908 135.145C95.7114 129.891 95.9322 124.638 96.1589 119.658L96.1831 119.126L96.7155 119.114C106.866 118.89 117.363 118.658 127.673 118.047L128.065 118.023L133.179 129.43C141.485 128.624 149.842 130.32 157.176 134.301L157.513 134.481L157.474 134.862C155.417 154.466 155.865 174.253 158.805 193.744C158.646 202.643 158.474 211.739 156.668 218.99L156.616 219.201L156.435 219.324C148.375 224.672 138.904 227.497 129.231 227.436Z" fill="#C9DDCB"/>
<path d="M85.6672 177.947L84.986 177.634C77.0338 173.644 69.0565 169.219 61.342 164.939L60.2762 164.731C39.9641 160.653 28.7751 158.408 10.45 147.662L10.3093 147.578L10.2336 147.434C1.05786 129.905 -1.50157 114.583 0.790014 90.9016L0.835897 90.4266L1.31096 90.3888C3.29743 90.2274 6.53523 90.1195 9.66623 90.0149C12.7124 89.9137 15.8623 89.808 17.7934 89.6567L18.2415 89.6211L18.38 90.0483C20.7812 97.4635 22.821 104.381 24.9808 111.705C27.2006 119.234 29.495 127.015 32.2897 135.661C42.5221 138.601 69.9529 137.722 78.482 136.561C81.033 136.373 83.5902 136.829 85.9187 137.888C88.2471 138.947 90.2721 140.574 91.8076 142.62L91.9658 142.818L91.925 143.068C90.0473 154.527 87.8911 166.054 85.8062 177.202L85.6672 177.947Z" fill="#C9DDCB"/>
<path d="M135.667 100.242C143.079 86.682 138.096 69.6806 124.536 62.2681C110.976 54.8557 93.9746 59.8391 86.5621 73.3989C79.1496 86.9588 84.133 103.96 97.6929 111.373C111.253 118.785 128.254 113.802 135.667 100.242Z" fill="#A0616A"/>
<path d="M79.1562 85.1518H90.2233L95.1058 71.4808L96.082 85.1518H101.372L104.22 77.177L104.789 85.1518H144.094C144.094 77.2959 140.973 69.7618 135.418 64.2069C129.863 58.652 122.329 55.5312 114.473 55.5312H108.777C100.921 55.5313 93.3868 58.652 87.8319 64.2069C82.277 69.7618 79.1562 77.2959 79.1562 85.1518Z" fill="#2F2E41"/>
</g>
<defs>
<clipPath id="clip0_466_63">
<rect width="766.802" height="500.948" fill="white"/>
</clipPath>
</defs>
</svg>
