<svg width="982" height="470" viewBox="0 0 982 470" fill="none" xmlns="http://www.w3.org/2000/svg">
<g clip-path="url(#clip0_463_63)">
<path d="M980.49 457.89C979.774 461.347 977.894 464.453 975.165 466.692C972.435 468.93 969.02 470.165 965.49 470.19H15.18C12.1039 470.171 9.10505 469.225 6.57527 467.474C4.0455 465.724 2.10245 463.252 1 460.38C44.13 449.45 158.55 440.6 306.86 436.47C315.12 436.23 323.483 436.017 331.95 435.83H333.52C335.52 435.78 337.62 435.75 339.68 435.69C348.673 435.497 357.773 435.313 366.98 435.14L370.16 435.08L381.06 434.89L384.94 434.83C392.6 434.71 400.327 434.603 408.12 434.51C432.81 434.21 458.12 434.03 483.86 434H506.4C513.527 434 520.62 434 527.68 434L548.94 434.14C592.05 434.43 633.58 435.14 672.86 436.14L688.36 436.57C695.78 436.77 703.113 436.99 710.36 437.23C835.58 441.23 933.75 448.7 980.49 457.89Z" fill="#BEBDBD"/>
<path d="M550.68 109.38H515.82V169.53H550.68V109.38Z" fill="#3F3D56"/>
<path opacity="0.1" d="M550.68 109.38H515.82V169.53H550.68V109.38Z" fill="black"/>
<path d="M687.18 158.58C689.26 157.33 691.84 157.41 694.27 157.58C695.726 157.535 697.17 157.843 698.48 158.48C700.98 159.99 701.36 163.4 701.48 166.32C701.6 169.8 701.6 173.66 699.28 176.32C697.44 178.39 694.57 179.15 691.84 179.63C689.918 179.832 688.036 180.311 686.25 181.05C684.481 182.085 682.848 183.338 681.39 184.78C678.14 187.55 673.82 190.27 669.56 190.94C666.7 185.17 665.96 179.64 670.43 174.68C672.9 171.94 676.09 169.83 678.77 167.29C681.45 164.75 683.91 160.55 687.18 158.58Z" fill="#A0616A"/>
<path d="M523 451.16C522.507 452.361 522.269 453.651 522.3 454.95C522.58 457.95 525.55 459.84 528.3 461.09C531.98 462.78 536.62 464.02 539.82 461.53C543.38 458.76 542.82 453.34 544.21 449.04C545.03 446.53 546.57 444.32 547.58 441.88C550.35 435.19 548.89 427.58 547.39 420.5L545.2 410.19C545.108 409.372 544.758 408.605 544.2 408C542.59 406.59 535.04 406.08 533.12 407.42C530.05 409.55 530.79 416.74 530.3 420.12C528.792 430.662 526.349 441.05 523 451.16Z" fill="#575A89"/>
<path d="M511.4 451.16C511.888 452.362 512.126 453.652 512.1 454.95C511.82 457.95 508.85 459.84 506.1 461.09C502.42 462.78 497.77 464.02 494.58 461.53C491.02 458.76 491.58 453.34 490.18 449.04C489.37 446.53 487.83 444.32 486.82 441.88C484.04 435.19 485.51 427.58 487.01 420.5L489.2 410.19C489.292 409.372 489.642 408.605 490.2 408C491.81 406.59 499.36 406.08 501.28 407.42C504.34 409.55 503.6 416.74 504.09 420.12C505.601 430.663 508.047 441.05 511.4 451.16Z" fill="#575A89"/>
<path d="M536.74 141.87C537.302 142.448 537.705 143.161 537.91 143.94C538.27 145.82 536.52 147.48 534.73 148.16C532.94 148.84 530.94 149 529.32 150.03C527.659 151.274 526.456 153.032 525.9 155.03C522.5 164.59 526.29 176.64 535.31 181.29C541.53 184.5 548.93 184 555.91 183.42C556.889 183.399 557.855 183.195 558.76 182.82C559.677 182.297 560.469 181.581 561.08 180.72C564.994 175.761 567.707 169.962 569.004 163.779C570.302 157.595 570.15 151.195 568.56 145.08C568.458 144.57 568.258 144.084 567.97 143.65C566.17 141.18 561.83 144.22 559.28 142.54C558.498 141.92 557.911 141.086 557.59 140.14C555.839 136.032 554.632 131.712 554 127.29C553.92 126.75 542.56 131.1 541.59 131.58C537.72 133.58 537.52 131.74 534.65 135.01C537.73 135.87 534.19 138.93 536.74 141.87Z" fill="#A0616A"/>
<path opacity="0.1" d="M536.74 141.87C537.302 142.448 537.705 143.161 537.91 143.94C538.27 145.82 536.52 147.48 534.73 148.16C532.94 148.84 530.94 149 529.32 150.03C527.659 151.274 526.456 153.032 525.9 155.03C522.5 164.59 526.29 176.64 535.31 181.29C541.53 184.5 548.93 184 555.91 183.42C556.889 183.399 557.855 183.195 558.76 182.82C559.677 182.297 560.469 181.581 561.08 180.72C564.994 175.761 567.707 169.962 569.004 163.779C570.302 157.595 570.15 151.195 568.56 145.08C568.458 144.57 568.258 144.084 567.97 143.65C566.17 141.18 561.83 144.22 559.28 142.54C558.498 141.92 557.911 141.086 557.59 140.14C555.839 136.032 554.632 131.712 554 127.29C553.92 126.75 542.56 131.1 541.59 131.58C537.72 133.58 537.52 131.74 534.65 135.01C537.73 135.87 534.19 138.93 536.74 141.87Z" fill="black"/>
<path d="M496.85 261.1C497.516 267.54 497.986 273.994 498.26 280.46C498.55 286.67 498.67 293.03 496.78 298.95C495.78 302.27 494.07 305.37 493.18 308.73C492.18 312.68 492.18 316.82 492.23 320.91C492.159 323.262 492.38 325.614 492.89 327.91C493.44 330 494.46 331.91 495.21 333.91C497.91 341.08 497.29 349.03 496.36 356.63C494.61 370.93 491.88 385.09 489.15 399.23L484.22 424.87C489.593 427.081 495.184 428.72 500.9 429.76C504.44 430.4 509.06 430.28 510.47 426.96C510.935 425.44 511.008 423.826 510.68 422.27C509.896 415.145 510.723 407.934 513.1 401.17C515.04 395.68 517.97 390.55 519.46 384.92C520.311 381.37 520.827 377.747 521 374.1C521.46 367.7 521.653 361.29 521.58 354.87C521.48 346.21 520.93 337.34 523.52 329.07C526.91 318.25 535.59 308.61 534.58 297.31C534.79 309.76 535.01 322.22 534.17 334.64C533.645 339.783 533.445 344.953 533.57 350.12C533.99 357.69 536.18 365.33 534.57 372.75C533.91 375.75 532.65 378.65 532.32 381.75C531.8 386.57 533.62 391.63 532.01 396.21C530.62 400.21 526.75 403.37 526.87 407.58C526.95 410.73 529.4 413.42 532.26 414.75C535.12 416.08 538.34 416.3 541.48 416.5C544.88 416.72 549 416.58 550.71 413.63C552.8 410.04 549.49 405.8 548.87 401.7C548.25 397.6 550.44 393.6 552.4 389.92C563.456 369.14 569.523 346.071 570.12 322.54C570.29 315.43 569.96 308.31 570 301.2C570.078 284.883 572.092 268.633 576 252.79C549.23 251.77 522.11 252.02 496.85 261.1Z" fill="#3C354C"/>
<path d="M539.75 141.86C550.89 141.86 559.92 132.829 559.92 121.69C559.92 110.55 550.89 101.52 539.75 101.52C528.61 101.52 519.58 110.55 519.58 121.69C519.58 132.829 528.61 141.86 539.75 141.86Z" fill="#A0616A"/>
<path d="M555.15 151.1C552.97 155.04 550.26 158.97 546.23 161C542.2 163.03 536.57 162.51 534.04 158.77C532.13 155.94 532.09 151.69 529.12 150.03C526.74 148.7 523.57 149.94 521.92 152.11C520.27 154.28 519.78 157.11 519.46 159.79C518.791 166.541 518.558 173.328 518.76 180.11C519.18 213.16 521.82 246.18 521.4 279.24C521.418 284.406 521.121 289.569 520.51 294.7C532.68 291.62 544.93 288.54 557.51 287.76C563.58 287.39 569.69 287.56 575.71 286.76C579.845 286.122 583.941 285.254 587.98 284.16C588.521 284.08 589.026 283.84 589.43 283.47C589.747 283.026 589.922 282.495 589.93 281.95C591.17 270.26 587.08 258.75 585.27 247.14C583.57 236.31 583.87 225.25 582.41 214.38C580.41 199.13 574.9 184.28 575.02 168.89C575.02 163.3 575.84 157.62 574.6 152.16C573.6 147.66 570.13 141.66 565.1 140.78C559.53 139.8 557.25 147.31 555.15 151.1Z" fill="#C6CAC6"/>
<path d="M552.91 158.43C546.74 170.72 540.47 183.28 538.46 196.9C536.65 209.18 538.39 221.75 536.9 234.07C534.99 249.89 527.83 265.99 532.69 281.17C533.77 284.56 535.42 287.74 536.57 291.1C541.57 305.86 536.57 322.31 539.8 337.57C539.831 337.959 539.95 338.337 540.15 338.673C540.349 339.009 540.623 339.296 540.95 339.51C541.8 339.88 542.73 339.26 543.62 338.98C547.47 337.75 550.12 342.64 553.17 345.3C554.7 346.595 556.576 347.414 558.566 347.655C560.557 347.897 562.574 347.551 564.37 346.66C570.08 343.72 571.6 336.4 572.37 330.03C576.203 299.563 578.537 268.953 579.37 238.2C579.56 231.2 579.66 224.2 578.51 217.3C577.12 208.93 573.92 200.97 572.2 192.67C569.44 179.31 570.59 165.5 571.34 151.88C571.55 147.88 570.43 136.36 563.64 140.12C558.42 143.01 555.44 153.4 552.91 158.43Z" fill="#575A89"/>
<path opacity="0.1" d="M521.93 192.98C521.87 197.34 521.8 201.77 520.46 205.92C519.12 210.07 516.54 213.75 514.46 217.63C509.46 227.13 507.65 238.01 507.4 248.73C507.15 259.45 508.4 270.15 509.23 280.84C510.488 297.108 510.772 313.438 510.08 329.74C516.767 327.396 524 327.093 530.86 328.87C534.86 329.87 539.63 331.51 542.76 328.79C544.99 326.85 545.26 323.54 545.36 320.59C546.42 290.53 546.753 260.457 546.36 230.37C546.225 226.427 546.335 222.479 546.69 218.55C547.02 215.55 547.69 212.49 547.69 209.43C547.69 205.13 546.54 200.93 545.37 196.79L534.82 159.4C534.13 156.94 533.39 154.4 531.68 152.48C529.97 150.56 524.8 148.02 522.79 150.48C521.05 152.64 522.34 160.04 522.31 162.7L521.93 192.98Z" fill="black"/>
<path d="M520.57 192.29C520.51 196.65 520.43 201.09 519.09 205.24C517.75 209.39 515.18 213.06 513.09 216.95C508.09 226.45 506.28 237.33 506.03 248.05C505.78 258.77 507.03 269.47 507.86 280.16C509.118 296.425 509.402 312.751 508.71 329.05C515.402 326.712 522.636 326.409 529.5 328.18C533.5 329.23 538.26 330.83 541.39 328.11C543.62 326.17 543.89 322.86 544 319.9C545.053 289.84 545.387 259.767 545 229.68C544.861 225.741 544.968 221.796 545.32 217.87C545.812 214.849 546.145 211.805 546.32 208.75C546.32 204.45 545.18 200.24 544.01 196.11L533.46 158.72C532.76 156.25 532.02 153.72 530.31 151.79C528.6 149.86 523.43 147.34 521.42 149.84C519.69 151.99 520.98 159.4 520.94 162.05L520.57 192.29Z" fill="#575A89"/>
<path d="M524.83 146.48C519.38 147.03 515.19 151.73 513.06 156.77C510.93 161.81 510.31 167.35 508.69 172.57C505.86 181.62 499.99 189.78 499.04 199.21C498.16 208.11 501.8 217.14 500.04 225.9C499.492 228.248 498.787 230.557 497.93 232.81C494.53 242.76 492.59 253.14 490.65 263.48L487.77 278.87C485.77 289.72 483.7 300.87 485.56 311.74C487.489 310.354 489.838 309.679 492.208 309.83C494.579 309.982 496.823 310.95 498.56 312.57C499.56 313.5 500.39 314.68 501.7 314.88C503.95 315.2 505.33 312.52 505.92 310.33C508.044 302.509 509.466 294.514 510.17 286.44C510.55 282.06 510.73 277.62 512.02 273.44C512.84 270.81 514.02 268.34 514.92 265.73C516.92 259.56 516.65 252.92 517.48 246.49C518.19 240.92 519.72 235.49 520.59 229.95C521.487 223.202 521.885 216.397 521.78 209.59L522.17 170.42C522.22 165.35 522.56 159.62 526.42 156.34C528.42 154.67 533.61 153.13 533.13 149.99C532.66 147.04 527.07 146.26 524.83 146.48Z" fill="#AE9078"/>
<path d="M557.05 142.87C562.89 138.48 569.34 133.87 576.65 134.05C579.072 134.199 581.469 134.615 583.8 135.29L600.34 139.42C598.693 142.243 596.237 144.507 593.29 145.92C595.972 145.458 598.732 145.923 601.117 147.236C603.501 148.55 605.367 150.635 606.41 153.15C608.72 159.21 605.68 165.85 602.99 171.76C598.39 181.85 594.57 192.59 594.61 203.69C594.61 209.32 590.72 214.89 590.34 220.51C590.063 224.03 590.354 227.572 591.2 231C592.21 234.342 593.466 237.604 594.96 240.76C605.09 264.54 607.39 290.99 606.27 316.82H583.69C582.441 316.745 581.19 316.904 580 317.29C578.58 317.84 577.51 319 576.25 319.86C574.083 321.329 571.423 321.882 568.85 321.4C566.44 310.4 570.25 299.22 572.13 288.16C573.074 282.102 573.678 275.996 573.94 269.87C574.466 260.163 574.733 250.44 574.74 240.7C574.74 233.34 574.56 225.83 572.13 218.89C570.93 215.45 569.19 212.2 568.06 208.73C567.045 205.249 566.342 201.685 565.96 198.08C563.44 179.49 559.57 161.44 557.05 142.87Z" fill="#AE9078"/>
<path d="M508.78 158.43C507.08 159.67 506.58 161.93 505.83 163.9C503.95 168.84 499.96 172.64 497.34 177.22C495.837 180.042 494.591 182.994 493.62 186.04C490.15 195.94 486.62 206.27 487.86 216.68C488.14 219.01 488.73 221.45 490.38 223.12C493.99 226.75 500.66 224.51 503.45 220.21C506.24 215.91 506.4 210.51 506.96 205.43C508.02 195.75 510.83 186.43 512.96 176.93C514.119 172.165 514.961 167.327 515.48 162.45C515.63 160.95 516.48 157.61 515.06 156.66C514.17 156.06 509.61 157.87 508.78 158.43Z" fill="#AE9078"/>
<path d="M619.06 185.1C621.55 188.1 624.58 191.27 628.44 191.17C630.353 190.965 632.199 190.347 633.85 189.36C646.821 182.887 660.312 177.511 674.18 173.29C672.636 176.841 672.229 180.784 673.015 184.576C673.801 188.368 675.742 191.824 678.57 194.47C666.869 197.462 655.607 201.967 645.07 207.87C642.834 209.024 640.76 210.466 638.9 212.16C637.703 213.552 636.413 214.861 635.04 216.08C631.98 218.42 627.83 218.58 623.97 218.64C621.695 218.93 619.385 218.733 617.192 218.062C614.999 217.392 612.973 216.263 611.25 214.75L583.63 195C583.185 194.81 582.793 194.514 582.489 194.137C582.186 193.761 581.979 193.315 581.888 192.84C581.798 192.365 581.825 191.874 581.968 191.412C582.111 190.95 582.366 190.53 582.71 190.19L591.45 174.6C593.45 171.07 595.7 165.23 600.39 164.6C605.08 163.97 606.8 169.01 609.02 172.31C612.127 176.756 615.479 181.026 619.06 185.1Z" fill="#AE9078"/>
<path d="M496.809 151.257L487.267 155.029C485.162 155.861 484.129 158.243 484.962 160.349L496.02 188.322C496.853 190.428 499.235 191.46 501.341 190.628L510.882 186.856C512.988 186.024 514.02 183.642 513.188 181.536L502.129 153.562C501.297 151.457 498.915 150.424 496.809 151.257Z" fill="#3F3D56"/>
<path opacity="0.1" d="M496.809 151.257L487.267 155.029C485.162 155.861 484.129 158.243 484.962 160.349L496.02 188.322C496.853 190.428 499.235 191.46 501.341 190.628L510.882 186.856C512.988 186.024 514.02 183.642 513.188 181.536L502.129 153.562C501.297 151.457 498.915 150.424 496.809 151.257Z" fill="black"/>
<path d="M495.435 151.934L485.893 155.706C483.788 156.538 482.755 158.92 483.588 161.026L494.646 188.999C495.479 191.105 497.861 192.137 499.967 191.305L509.508 187.533C511.614 186.7 512.646 184.318 511.814 182.213L500.755 154.239C499.923 152.133 497.541 151.101 495.435 151.934Z" fill="#3F3D56"/>
<path d="M496.34 167.48C497.66 167.48 498.73 166.41 498.73 165.09C498.73 163.77 497.66 162.7 496.34 162.7C495.02 162.7 493.95 163.77 493.95 165.09C493.95 166.41 495.02 167.48 496.34 167.48Z" fill="#DBE9DB"/>
<path d="M489.56 188.52C488.32 186.98 486.77 185.7 485.68 184.06C484.394 181.863 483.615 179.406 483.4 176.87C483.008 174.103 482.791 171.314 482.75 168.52C482.744 168.149 482.823 167.782 482.981 167.446C483.139 167.111 483.372 166.816 483.661 166.584C483.951 166.353 484.29 166.19 484.652 166.11C485.014 166.029 485.389 166.033 485.75 166.12C489.739 167.065 493.333 169.233 496.03 172.32C499.321 176.202 501.431 180.946 502.11 185.99C502.45 188.58 502.64 191.187 502.68 193.8L503.04 204.51C500.43 204.51 496.63 205.24 494.13 204.51C490.54 203.51 491.99 204.14 492.35 200.61C492.76 196.21 492.46 192.12 489.56 188.52Z" fill="#A0616A"/>
<path d="M496.61 199.97C495.174 200.096 493.729 199.898 492.38 199.39C489.64 198.24 488.07 195.39 486.71 192.76C486.938 198.505 486.644 204.258 485.83 209.95C485.31 212.95 484.5 215.95 484.57 219.02C484.681 222.908 486.21 226.621 488.87 229.46C489.597 230.29 490.499 230.949 491.51 231.39C493.67 232.24 496.13 231.45 498.11 230.25C500.986 228.504 503.268 225.932 504.66 222.87C506.66 218.43 506.56 213.54 506.66 208.78C506.76 204.33 508.19 199.66 508.11 195.39C504.65 194.98 500.82 199.75 496.61 199.97Z" fill="#AE9078"/>
<path d="M516.69 114.61C520.206 116.466 524.081 117.54 528.05 117.761C532.02 117.982 535.99 117.344 539.69 115.89C538.52 121 541.2 126.1 542.59 131.16C546.25 144.49 540.59 158.97 531.59 169.44C535.761 169.857 539.972 169.332 543.913 167.904C547.854 166.476 551.424 164.182 554.36 161.19C551.799 168.072 547.989 174.422 543.12 179.92C560.43 174.53 572.79 158.48 578.34 141.22C582.58 128 583.34 113.16 577.56 100.55C571.78 87.9401 558.5 78.3101 544.67 79.4501C534.58 80.2801 525.35 86.7201 520.22 95.4501C515.09 104.18 513.92 114.87 516 124.87L516.69 114.61Z" fill="#3F3D56"/>
<path opacity="0.1" d="M542.63 131.16C544.458 138.375 544.015 145.978 541.36 152.93C544.93 144.93 546.3 136.11 544 127.74C542.61 122.68 539.92 117.58 541.09 112.47C537.39 113.926 533.42 114.565 529.45 114.344C525.481 114.123 521.606 113.047 518.09 111.19L517.81 115.19C521.231 116.814 524.949 117.717 528.733 117.844C532.518 117.971 536.288 117.32 539.81 115.93C538.56 121 541.24 126.1 542.63 131.16Z" fill="black"/>
<path opacity="0.1" d="M518.61 98.6396C514.983 106.886 514.069 116.071 516 124.87L516.61 116.29C516.02 110.331 516.702 104.315 518.61 98.6396Z" fill="black"/>
<path opacity="0.1" d="M555.77 157.77C552.982 160.602 549.625 162.811 545.921 164.25C542.216 165.689 538.249 166.327 534.28 166.12C533.43 167.27 532.55 168.38 531.63 169.44C535.782 169.853 539.975 169.333 543.901 167.918C547.827 166.503 551.386 164.228 554.32 161.26C554.84 160.11 555.33 158.95 555.77 157.77Z" fill="black"/>
<path opacity="0.1" d="M546.45 175.87C545.45 177.28 544.32 178.64 543.16 179.95C559.45 174.88 571.36 160.36 577.32 144.28C571.27 158.31 560.62 170.68 546.45 175.87Z" fill="black"/>
<path d="M710.5 42.5V0.5H688.5V442.5C688.5 445.417 689.659 448.215 691.722 450.278C693.785 452.341 696.583 453.5 699.5 453.5C702.417 453.5 705.215 452.341 707.278 450.278C709.341 448.215 710.5 445.417 710.5 442.5V64.5H764.5V95.65C745.32 96.85 730.5 104.82 730.5 114.5C730.5 123.4 743.1 130.89 760.09 132.94C763.213 133.313 766.355 133.5 769.5 133.5C791.04 133.5 808.5 124.98 808.5 114.5C808.5 107.3 800.3 101.04 788.2 97.82C783.715 96.6497 779.127 95.9229 774.5 95.65V64.5H884.5V95.65C881.412 95.8421 878.34 96.2262 875.3 96.8C860.78 99.57 850.5 106.45 850.5 114.5C850.507 116.049 850.881 117.573 851.59 118.95C855.7 127.29 871.11 133.5 889.5 133.5C911.04 133.5 928.5 124.98 928.5 114.5C928.5 104.82 913.68 96.85 894.5 95.65V64.5H982V42.5H710.5ZM920.5 114.5C920.5 122.83 906.62 129.59 889.5 129.59C872.38 129.59 858.5 122.83 858.5 114.5C858.499 113.697 858.631 112.9 858.89 112.14C859.95 108.8 863.25 105.84 868 103.63C873.665 101.141 879.747 99.7398 885.93 99.5H893.07C908.51 100.35 920.5 106.75 920.5 114.5ZM785.27 101.5C794.39 104.15 800.5 108.98 800.5 114.5C800.5 122.83 786.62 129.59 769.5 129.59C767.339 129.593 765.179 129.483 763.03 129.26C749.03 127.82 738.5 121.76 738.5 114.5C738.5 106.75 750.5 100.35 765.93 99.5H773.07C777.197 99.7116 781.288 100.376 785.27 101.48V101.5Z" fill="#BEBDBD"/>
<path d="M384.74 232.37H381.22V339.84H384.74V232.37Z" fill="#575A89"/>
<path d="M395.68 232.37H392.15V339.84H395.68V232.37Z" fill="#575A89"/>
<path d="M373.43 450.44C376.755 450.44 379.45 447.745 379.45 444.42C379.45 441.096 376.755 438.4 373.43 438.4C370.105 438.4 367.41 441.096 367.41 444.42C367.41 447.745 370.105 450.44 373.43 450.44Z" fill="#575A89"/>
<path d="M352.11 334.87C352.11 334.87 358.11 329.99 363.38 331.68C368.65 333.37 382.38 335.06 384.78 343.68C387.18 352.3 384.78 447.13 384.78 447.13C384.78 447.13 373.14 450.13 369.95 448.63C366.76 447.13 367.13 432.87 367.13 432.87L366.2 348.76L352.11 334.87Z" fill="#66A865"/>
<path opacity="0.1" d="M352.11 334.87C352.11 334.87 358.11 329.99 363.38 331.68C368.65 333.37 382.38 335.06 384.78 343.68C387.18 352.3 384.78 447.13 384.78 447.13C384.78 447.13 373.14 450.13 369.95 448.63C366.76 447.13 367.13 432.87 367.13 432.87L366.2 348.76L352.11 334.87Z" fill="black"/>
<path d="M406.75 442.27L381.48 447.87L381.22 443.38L381.05 354.91C381.045 350.775 380.088 346.696 378.253 342.991C376.419 339.285 373.756 336.051 370.47 333.54C370.47 333.54 383.56 333.37 393.59 337.89C395.73 338.89 397.88 339.8 400.08 340.61C402.81 341.61 406.51 343.76 406.75 348C407.06 353.52 408.11 408.2 408.49 428.11C408.583 432.882 407.997 437.643 406.75 442.25V442.27Z" fill="#66A865"/>
<path d="M385.44 224.39H379.57V233.59H385.44V224.39Z" fill="#535461"/>
<path opacity="0.1" d="M385.44 224.39H379.57V233.59H385.44V224.39Z" fill="black"/>
<path d="M396.47 225.85H390.6V235.05H396.47V225.85Z" fill="#535461"/>
<path d="M396.47 225.87H390.6C389.504 225.899 388.439 226.236 387.526 226.843C386.614 227.45 385.891 228.301 385.44 229.3C385.36 229.48 385.28 229.66 385.2 229.86L383.91 228.61L381.22 226.01L379.57 224.42C379.57 224.42 390.41 218.87 396.47 225.87Z" fill="#535461"/>
<path d="M399.03 454.68C402.355 454.68 405.05 451.984 405.05 448.66C405.05 445.335 402.355 442.64 399.03 442.64C395.705 442.64 393.01 445.335 393.01 448.66C393.01 451.984 395.705 454.68 399.03 454.68Z" fill="#575A89"/>
<path d="M336.86 446.46C340.185 446.46 342.88 443.765 342.88 440.44C342.88 437.115 340.185 434.42 336.86 434.42C333.535 434.42 330.84 437.115 330.84 440.44C330.84 443.765 333.535 446.46 336.86 446.46Z" fill="#575A89"/>
<path d="M348.17 333.56C348.17 333.56 331.09 338.07 330.17 381.06C329.25 424.05 329.04 428.56 329.04 428.56C329.04 428.56 329.42 440.96 354.57 448.65H370L372.39 349.87C372.39 349.87 369.57 334.87 348.17 333.56Z" fill="#66A865"/>
<path opacity="0.1" d="M346.67 400.21C346.67 400.21 342.29 340.1 365.89 339.83L368.1 341.99C368.1 341.99 347.42 334.5 346.67 400.21Z" fill="black"/>
<path d="M357.28 459.93C360.605 459.93 363.3 457.234 363.3 453.91C363.3 450.585 360.605 447.89 357.28 447.89C353.955 447.89 351.26 450.585 351.26 453.91C351.26 457.234 353.955 459.93 357.28 459.93Z" fill="#575A89"/>
<path opacity="0.1" d="M390.67 225.81H390.61C389.515 225.839 388.449 226.177 387.537 226.783C386.624 227.39 385.901 228.241 385.45 229.24C385.37 229.42 385.29 229.6 385.21 229.8L383.92 228.55C383.91 228.441 383.91 228.33 383.92 228.22C384.042 227.342 384.501 226.546 385.2 226C385.871 225.446 386.673 225.073 387.53 224.919C388.386 224.765 389.268 224.834 390.09 225.12C390.38 225.26 390.73 225.49 390.67 225.81Z" fill="black"/>
</g>
<defs>
<clipPath id="clip0_463_63">
<rect width="982" height="469.75" fill="white"/>
</clipPath>
</defs>
</svg>
