<svg width="902" height="624" viewBox="0 0 902 624" fill="none" xmlns="http://www.w3.org/2000/svg">
<g clip-path="url(#clip0_466_130)">
<path d="M693.817 93.373C693.101 95.0205 692.351 96.6504 691.57 98.262C627.792 100.823 526.938 103.875 458.421 100.866C458.007 100.057 457.601 99.2444 457.203 98.4268C452.899 89.586 459.947 79.4093 469.719 80.4988L469.948 80.5243C469.948 80.5243 482.755 42.1037 516.906 52.7761C516.906 52.7761 593.748 -67.5443 668.454 59.8627C668.454 59.8627 668.878 59.7862 669.666 59.7164C687.759 58.1146 701.057 76.7149 693.817 93.373Z" fill="white"/>
<rect x="549.256" y="197.672" width="176.266" height="208.375" rx="88.1329" fill="#66A865"/>
<path d="M681.455 259.102C681.455 234.764 701.184 215.035 725.522 215.035V215.035V223.063C725.522 247.4 705.792 267.129 681.455 267.129V267.129V259.102Z" fill="#66A865"/>
<path d="M612.312 248.647C589.715 246.128 572.862 225.712 574.67 203.047L575.254 195.717V195.717C597.852 198.236 614.705 218.651 612.897 241.316L612.312 248.647V248.647Z" fill="#66A865"/>
<path d="M577.902 335.572C560.524 352.832 534.934 350.64 520.746 330.675L520 329.626V329.626C537.378 312.366 562.968 314.559 577.157 334.524L577.902 335.572V335.572Z" fill="#66A865"/>
<path d="M741.383 352.166C724.005 369.426 698.415 367.233 684.226 347.269L683.481 346.22V346.22C700.859 328.96 726.449 331.153 740.638 351.117L741.383 352.166V352.166Z" fill="#66A865"/>
<rect width="200.905" height="184.735" rx="92.3675" transform="matrix(-0.436526 0.899692 -0.827669 -0.561216 831.286 333.516)" fill="#66A865"/>
<path d="M714.543 434.518C735.654 448.833 743.741 479.041 732.607 501.989L730.843 505.626V505.626C709.731 491.311 701.644 461.104 712.778 438.155L714.543 434.518V434.518Z" fill="#66A865"/>
<path d="M764.38 369.673C776.436 349.488 801.24 345.671 819.781 361.147V361.147L817.906 364.287C805.85 384.472 781.046 388.289 762.505 372.813V372.813L764.38 369.673Z" fill="#66A865"/>
<path d="M715.739 293.594C711.778 267.564 726.677 242.612 749.015 237.861V237.861L749.12 238.547C753.08 264.576 738.182 289.529 715.843 294.279V294.279L715.739 293.594Z" fill="#66A865"/>
<path d="M622.224 452.979C618.264 426.949 633.162 401.997 655.501 397.246V397.246L655.605 397.932C659.566 423.961 644.668 448.913 622.329 453.664V453.664L622.224 452.979Z" fill="#66A865"/>
<rect width="200.905" height="184.735" rx="92.3675" transform="matrix(-0.436526 0.899692 -0.827669 -0.561216 915.013 259.283)" fill="#66A865"/>
<path d="M798.269 360.286C819.38 374.601 827.468 404.808 816.334 427.756L814.569 431.393V431.393C793.458 417.079 785.37 386.871 796.505 363.923L798.269 360.286V360.286Z" fill="#66A865"/>
<path d="M848.106 295.441C860.162 275.256 884.965 271.439 903.507 286.915V286.915L901.631 290.055C889.576 310.24 864.772 314.057 846.231 298.581V298.581L848.106 295.441Z" fill="#66A865"/>
<path d="M799.466 219.361C795.505 193.332 810.403 168.379 832.742 163.629V163.629L832.846 164.314C836.807 190.344 821.909 215.296 799.57 220.047V220.047L799.466 219.361Z" fill="#66A865"/>
<path d="M705.951 378.746C701.99 352.716 716.888 327.764 739.227 323.014V323.014L739.332 323.699C743.292 349.729 728.394 374.681 706.055 379.431V379.431L705.951 378.746Z" fill="#66A865"/>
<rect width="188.052" height="172.916" rx="86.4582" transform="matrix(-0.436526 0.899692 -0.827669 -0.561216 871.205 164.123)" fill="#66A865"/>
<path d="M761.933 258.669C781.694 272.068 789.264 300.343 778.842 321.823L777.19 325.227V325.227C757.43 311.828 749.86 283.553 760.282 262.073L761.933 258.669V258.669Z" fill="#66A865"/>
<path d="M808.584 197.973C819.868 179.08 843.085 175.507 860.44 189.993V189.993L858.685 192.932C847.4 211.826 824.183 215.399 806.828 200.913V200.913L808.584 197.973Z" fill="#66A865"/>
<path d="M763.055 126.758C759.347 102.394 773.292 79.038 794.202 74.5914V74.5914L794.3 75.2329C798.007 99.5973 784.062 122.953 763.152 127.4V127.4L763.055 126.758Z" fill="#66A865"/>
<path d="M675.52 275.946C671.812 251.581 685.757 228.225 706.667 223.779V223.779L706.765 224.42C710.472 248.785 696.527 272.141 675.617 276.587V276.587L675.52 275.946Z" fill="#66A865"/>
<path fill-rule="evenodd" clip-rule="evenodd" d="M549.884 277.266C549.577 280.256 549.42 283.291 549.42 286.362V318.472L549.421 318.632C539.237 317.914 528.708 321.697 520.164 330.183L520.909 331.232C529.384 343.157 541.927 348.741 554.357 347.627C565.185 378.526 592.74 401.562 626.162 405.875C627.254 409.447 628.521 412.966 629.956 416.412C623.385 426.688 620.322 439.968 622.387 453.542L622.492 454.227C631.006 452.416 638.439 447.671 644.16 441.05C650.634 449.49 658.386 456.95 667.299 462.993C681.086 472.342 695.945 477.145 710.482 477.777C713.996 489.162 721.054 499.441 731.005 506.189L732.77 502.552C737.073 493.683 738.505 483.731 737.424 474.031C756.788 467.586 773.689 453.123 784.069 431.729L791.128 417.181C792.748 413.843 794.164 410.428 795.381 406.954C799.178 416.968 805.786 425.889 814.733 431.956L816.498 428.319C820.801 419.451 822.233 409.499 821.152 399.798C840.516 393.353 857.417 378.89 867.798 357.497L874.856 342.948C880.506 331.305 883.681 318.726 884.584 305.969C891.392 303.092 897.43 297.928 901.796 290.618L903.672 287.478C897.28 282.143 890.144 279.1 883.043 278.231C881.708 270.86 879.648 263.615 876.903 256.646C875.329 262.355 873.246 267.938 870.634 273.321L863.575 287.87C847.845 320.29 817.14 336.793 785.583 333.599L780.893 343.264C758.625 389.16 706.345 403.158 664.123 374.528C650.026 364.969 638.832 351.867 631.004 336.945C593.289 335.967 561.471 311.296 549.884 277.266Z" fill="#458244"/>
<path d="M713.367 381.273H737.787L757.689 605.999H693.15L713.367 381.273Z" fill="#93642D"/>
<path d="M713.193 381.273H737.962L748.449 502.228H702.645L713.193 381.273Z" fill="#714D22"/>
<path fill-rule="evenodd" clip-rule="evenodd" d="M706.509 477.031C668.318 444.524 663.676 395.682 666.348 374.361L683.602 377.383C681.623 393.179 685.12 433.417 716.701 460.297L706.509 477.031Z" fill="#714D22"/>
<path fill-rule="evenodd" clip-rule="evenodd" d="M735.354 444.041C773.545 411.534 778.188 362.692 775.516 341.371L758.261 344.393C760.241 360.189 756.743 400.427 725.162 427.307L735.354 444.041Z" fill="#714D22"/>
<rect width="143.961" height="132.374" rx="66.187" transform="matrix(-0.436526 0.899692 -0.827669 -0.561216 801.596 302.492)" fill="#66A865"/>
<path d="M717.942 374.865C733.069 385.122 738.864 406.768 730.886 423.211L729.621 425.818V425.818C714.494 415.56 708.699 393.915 716.677 377.471L717.942 374.865V374.865Z" fill="#66A865"/>
<path d="M753.654 328.398C762.293 313.934 780.066 311.199 793.353 322.289V322.289L792.009 324.539C783.37 339.002 765.597 341.738 752.311 330.648V330.648L753.654 328.398Z" fill="#66A865"/>
<path d="M718.801 273.882C715.963 255.23 726.638 237.35 742.646 233.946V233.946L742.72 234.437C745.558 253.089 734.883 270.969 718.876 274.373V274.373L718.801 273.882Z" fill="#66A865"/>
<path d="M651.789 388.091C648.951 369.439 659.627 351.559 675.634 348.155V348.155L675.709 348.646C678.547 367.298 667.871 385.178 651.864 388.582V388.582L651.789 388.091Z" fill="#66A865"/>
<rect width="165.698" height="194.442" rx="82.849" transform="matrix(0.984875 0.173265 -0.124898 0.992169 594.741 63.6367)" fill="#83C082"/>
<path d="M709.936 142.35C712.794 119.651 733.376 104.463 755.908 108.427V108.427L755.011 115.557C752.153 138.256 731.571 153.444 709.039 149.48V149.48L709.936 142.35Z" fill="#83C082"/>
<path d="M647.181 121.104C626.554 115.091 613.356 93.3227 617.702 72.4828L619.041 66.0636V66.0636C639.669 72.0762 652.867 93.8444 648.52 114.684L647.181 121.104V121.104Z" fill="#83C082"/>
<path d="M605.192 195.98C587.092 209.129 563.644 202.911 552.821 182.09L552.278 181.044V181.044C570.379 167.895 593.826 174.114 604.649 194.935L605.192 195.98V195.98Z" fill="#83C082"/>
<path d="M754.611 237.966C736.511 251.116 713.063 244.897 702.24 224.076L701.697 223.031V223.031C719.798 209.881 743.245 216.1 754.068 236.921L754.611 237.966V237.966Z" fill="#83C082"/>
<path d="M840.497 610.384C838.136 596.9 835.23 583.363 829.415 570.971C823.599 558.579 814.601 547.294 802.482 540.931C783.475 530.953 757.979 535.469 743.556 551.369C729.133 567.268 727.116 593.082 738.894 611.029" fill="#47A050"/>
<path d="M742.75 612.016C740.784 587.242 727.286 563.225 706.09 550.252C684.893 537.279 656.311 536.487 635.349 549.837C614.388 563.187 602.971 590.696 609.996 614.534" fill="#47A050"/>
<path d="M901.088 611.406C896.773 594.936 882.306 581.589 865.543 578.613C857.327 577.154 847.979 578.397 842.261 584.475C835.25 591.928 836.015 603.552 837.229 613.712" fill="#47A050"/>
<path d="M425 380C496.245 380 554 322.245 554 251C554 179.755 496.245 122 425 122C353.755 122 296 179.755 296 251C296 322.245 353.755 380 425 380Z" fill="#FF6363"/>
<path d="M900.913 611.739C900.913 617.262 508.373 624 327.5 624C146.627 624 0 619.523 0 614C0 608.477 146.627 604 327.5 604C508.373 604 900.913 606.216 900.913 611.739Z" fill="#E6E6E6"/>
<path d="M69.4785 509.483L77.9996 543L161.683 557.5V493.597L69.4785 489.5V509.483Z" fill="#2F2E43"/>
<path d="M582 473H155V573H582V473Z" fill="#2F2E43"/>
<path d="M176 560C176 588.167 165.167 611 128.5 611C96.8333 611 86 588.167 86 560C86 531.833 102.266 509 128.5 509C154.734 509 176 531.833 176 560Z" fill="#2F2E43"/>
<path d="M116 597C127.046 597 136 579.315 136 557.5C136 535.685 127.046 518 116 518C104.954 518 96 535.685 96 557.5C96 579.315 104.954 597 116 597Z" fill="white"/>
<path d="M116 568C123.732 568 130 561.732 130 554C130 546.268 123.732 540 116 540C108.268 540 102 546.268 102 554C102 561.732 108.268 568 116 568Z" fill="#2F2E43"/>
<path d="M576 614C607.48 614 633 585.346 633 550C633 514.654 607.48 486 576 486C544.52 486 519 514.654 519 550C519 585.346 544.52 614 576 614Z" fill="#2F2E43"/>
<path d="M306 604C330.301 604 350 582.51 350 556C350 529.49 330.301 508 306 508C281.699 508 262 529.49 262 556C262 582.51 281.699 604 306 604Z" fill="#2F2E43"/>
<path d="M386 624C417.48 624 443 595.346 443 560C443 524.654 417.48 496 386 496C354.52 496 329 524.654 329 560C329 595.346 354.52 624 386 624Z" fill="#2F2E43"/>
<path d="M375.5 603C395.106 603 411 581.957 411 556C411 530.043 395.106 509 375.5 509C355.894 509 340 530.043 340 556C340 581.957 355.894 603 375.5 603Z" fill="white"/>
<path d="M375 569C385.493 569 394 560.493 394 550C394 539.507 385.493 531 375 531C364.507 531 356 539.507 356 550C356 560.493 364.507 569 375 569Z" fill="#2F2E43"/>
<path d="M48.5 527.828V451.726C48.5 445.044 53.9163 439.628 60.5976 439.628H76.7446C76.7446 439.628 90 360 115 349C140 338 364 288 487 337L528 412C528 412 621 412 631 433C631 433 675 422 679 470L668 526L664 546L447 539L407 534C407 534 401 488 372 488C343 488 331 495 331 495C331 495 309 531 316 567H153.058C153.058 567 146 511 113 510C97.9736 509.544 83 504 78 543L60.0905 540.875C53.4795 540.09 48.5 534.485 48.5 527.828Z" fill="#D5B896"/>
<path d="M520.348 410.501H324.702C318.255 410.501 312.827 405.881 311.797 399.516L304.431 353.982C303.902 350.71 304.729 347.469 306.76 344.853C308.789 342.241 311.72 340.639 315.016 340.341C421.346 330.747 464.738 337.695 478.459 341.126C486.882 343.233 493.966 349.26 497.407 357.248L520.348 410.501Z" fill="white"/>
<path d="M237.804 419.645C236.233 419.645 234.698 419.613 233.203 419.544C230.686 419.429 228.335 418.242 226.755 416.289C225.184 414.347 224.517 411.819 224.925 409.354L232.853 361.497C233.481 357.701 236.587 354.715 240.404 354.235L278.485 349.442C282.986 348.873 287.137 351.788 288.13 356.22L298.374 401.914C298.887 404.202 298.478 406.553 297.221 408.532C295.967 410.507 294.019 411.875 291.735 412.383C279.113 415.192 256.199 419.645 237.804 419.645Z" fill="white"/>
<path d="M128.067 428.779C125.688 428.779 123.43 427.696 121.943 425.815C120.344 423.793 119.847 421.116 120.615 418.653C126.749 398.985 138.048 365.542 144.797 362.542C151.519 359.555 186.17 356.895 206.227 355.575C208.623 355.421 210.921 356.35 212.53 358.133C214.14 359.919 214.832 362.303 214.429 364.675L205.456 417.42C204.85 420.983 201.909 423.647 198.304 423.898L128.613 428.761C128.43 428.773 128.248 428.779 128.067 428.779Z" fill="white"/>
<path d="M197 550V450.84L211.853 429H306.206L293 455L296.045 550H197Z" stroke="#2F2E43" stroke-miterlimit="10" stroke-linecap="round"/>
<path d="M166.741 550H197" stroke="#2F2E43" stroke-miterlimit="10" stroke-linecap="round"/>
<path d="M102.255 509.483C102.255 509.483 108 442.003 118 438.502L202 432" stroke="#2F2E43" stroke-miterlimit="10" stroke-linecap="round"/>
<path d="M123 462H136.371" stroke="#2F2E43" stroke-miterlimit="10" stroke-linecap="round"/>
<path d="M224 450.113H206.772V457.999H224V450.113Z" stroke="#2F2E43" stroke-miterlimit="10" stroke-linecap="round"/>
<path d="M306.206 429L482.5 422.5C482.5 422.5 503.902 433.983 508.701 470.741L627.5 475.5C627.5 475.5 638.5 448.5 631 433" stroke="#2F2E43" stroke-miterlimit="10" stroke-linecap="round"/>
<path d="M474 496C486.703 496 497 485.703 497 473C497 460.297 486.703 450 474 450C461.297 450 451 460.297 451 473C451 485.703 461.297 496 474 496Z" fill="#2F2E43"/>
<path d="M474 490C483.389 490 491 482.389 491 473C491 463.611 483.389 456 474 456C464.611 456 457 463.611 457 473C457 482.389 464.611 490 474 490Z" fill="white"/>
<path d="M663.5 499.5C673.441 499.5 681.5 489.65 681.5 477.5C681.5 465.35 673.441 455.5 663.5 455.5C653.559 455.5 645.5 465.35 645.5 477.5C645.5 489.65 653.559 499.5 663.5 499.5Z" fill="#2F2E43"/>
<path d="M662 496C668.627 496 674 487.941 674 478C674 468.059 668.627 460 662 460C655.373 460 650 468.059 650 478C650 487.941 655.373 496 662 496Z" fill="white"/>
<path d="M470.5 516.5C473.814 516.5 476.5 512.694 476.5 508C476.5 503.306 473.814 499.5 470.5 499.5C467.186 499.5 464.5 503.306 464.5 508C464.5 512.694 467.186 516.5 470.5 516.5Z" fill="white"/>
<path d="M660 524C662.761 524 665 520.418 665 516C665 511.582 662.761 508 660 508C657.239 508 655 511.582 655 516C655 520.418 657.239 524 660 524Z" fill="white"/>
<path d="M642 517H497L500 496.567C500 485.761 508.761 477 519.567 477H621.631C632.881 477 642 486.119 642 497.369V517Z" fill="#2F2E43"/>
<path d="M351.885 97.0178C351.55 97.7896 351.199 98.5532 350.833 99.3082C320.953 100.508 273.703 101.938 241.603 100.528C241.409 100.149 241.219 99.7685 241.032 99.3855C239.016 95.2436 242.318 90.4758 246.896 90.9862L247.003 90.9982C247.003 90.9982 253.003 72.9982 269.003 77.9982C269.003 77.9982 305.003 21.6283 340.003 81.3182C340.003 81.3182 340.201 81.2824 340.571 81.2497C349.047 80.4993 355.277 89.2135 351.885 97.0178Z" fill="white"/>
<path d="M324.817 250.373C324.101 252.021 323.351 253.65 322.57 255.262C258.792 257.823 157.938 260.875 89.4213 257.866C89.0072 257.057 88.601 256.244 88.203 255.427C83.8993 246.586 90.9473 236.409 100.719 237.499L100.948 237.524C100.948 237.524 113.755 199.104 147.906 209.776C147.906 209.776 224.748 89.4557 299.454 216.863C299.454 216.863 299.878 216.786 300.666 216.716C318.759 215.115 332.057 233.715 324.817 250.373Z" fill="white"/>
</g>
<defs>
<clipPath id="clip0_466_130">
<rect width="901.088" height="624" fill="white"/>
</clipPath>
</defs>
</svg>
