<svg width="1200" height="300" viewBox="0 0 1200 300" fill="none" xmlns="http://www.w3.org/2000/svg">
<g clip-path="url(#clip0_463_1350)">
<path d="M325.5 96C344.554 96 360 80.7777 360 62C360 43.2223 344.554 28 325.5 28C306.446 28 291 43.2223 291 62C291 80.7777 306.446 96 325.5 96Z" fill="#FF95AA"/>
<path d="M285.432 46.3442C270.314 44.078 253.054 53.1398 249.135 69.49C248.148 66.5829 246.353 64.0992 244.009 62.3978C241.665 60.6963 238.894 59.8651 236.097 60.0243C233.299 60.1835 230.619 61.3248 228.445 63.2834C226.271 65.242 224.714 67.9164 224 70.9203L225.731 72.295C258.129 80.0644 291.666 79.8963 324 71.8023C313.484 59.5463 300.551 48.6103 285.432 46.3442Z" fill="white"/>
<path d="M803.432 78.3442C788.314 76.078 771.054 85.1398 767.135 101.49C766.148 98.5829 764.353 96.0992 762.009 94.3978C759.665 92.6963 756.894 91.8651 754.097 92.0243C751.299 92.1835 748.619 93.3248 746.445 95.2834C744.271 97.242 742.714 99.9164 742 102.92L743.731 104.295C776.129 112.064 809.666 111.896 842 103.802C831.484 91.5463 818.551 80.6103 803.432 78.3442Z" fill="white"/>
<path d="M94.4323 22.3442C79.314 20.078 62.0538 29.1398 58.1354 45.49C57.1479 42.5829 55.3526 40.0992 53.0088 38.3978C50.6651 36.6963 47.8942 35.8651 45.0966 36.0243C42.299 36.1835 39.6194 37.3248 37.445 39.2834C35.2706 41.242 33.714 43.9164 33 46.9203L34.7308 48.295C67.1291 56.0644 100.666 55.8963 133 47.8023C122.484 35.5463 109.551 24.6103 94.4323 22.3442Z" fill="white"/>
<path d="M517.432 50.3442C502.314 48.078 485.054 57.1398 481.135 73.49C480.148 70.5829 478.353 68.0992 476.009 66.3978C473.665 64.6963 470.894 63.8651 468.097 64.0243C465.299 64.1835 462.619 65.3248 460.445 67.2834C458.271 69.242 456.714 71.9164 456 74.9203L457.731 76.295C490.129 84.0644 523.666 83.8963 556 75.8023C545.484 63.5463 532.551 52.6103 517.432 50.3442Z" fill="white"/>
<path d="M749.432 54.3442C734.314 52.078 717.054 61.1398 713.135 77.49C712.148 74.5829 710.353 72.0992 708.009 70.3978C705.665 68.6963 702.894 67.8651 700.097 68.0243C697.299 68.1835 694.619 69.3248 692.445 71.2834C690.271 73.242 688.714 75.9164 688 78.9203L689.731 80.295C722.129 88.0644 755.666 87.8963 788 79.8023C777.484 67.5463 764.551 56.6103 749.432 54.3442Z" fill="white"/>
<path d="M845.432 22.3442C830.314 20.078 813.054 29.1398 809.135 45.49C808.148 42.5829 806.353 40.0992 804.009 38.3978C801.665 36.6963 798.894 35.8651 796.097 36.0243C793.299 36.1835 790.619 37.3248 788.445 39.2834C786.271 41.242 784.714 43.9164 784 46.9203L785.731 48.295C818.129 56.0644 851.666 55.8963 884 47.8023C873.484 35.5463 860.551 24.6103 845.432 22.3442Z" fill="white"/>
<path d="M981.432 58.3442C966.314 56.078 949.054 65.1398 945.135 81.49C944.148 78.5829 942.353 76.0992 940.009 74.3978C937.665 72.6963 934.894 71.8651 932.097 72.0243C929.299 72.1835 926.619 73.3248 924.445 75.2834C922.271 77.242 920.714 79.9164 920 82.9203L921.731 84.295C954.129 92.0644 987.666 91.8963 1020 83.8023C1009.48 71.5463 996.551 60.6103 981.432 58.3442Z" fill="white"/>
<path d="M1086.43 38.3442C1071.31 36.078 1054.05 45.1398 1050.14 61.49C1049.15 58.5829 1047.35 56.0992 1045.01 54.3978C1042.67 52.6963 1039.89 51.8651 1037.1 52.0243C1034.3 52.1835 1031.62 53.3248 1029.44 55.2834C1027.27 57.242 1025.71 59.9164 1025 62.9203L1026.73 64.295C1059.13 72.0644 1092.67 71.8963 1125 63.8023C1114.48 51.5463 1101.55 40.6103 1086.43 38.3442Z" fill="white"/>
<path d="M541.524 45.491L581.811 34.8371L621.437 26.1736C622.939 25.8452 624.496 25.6406 626.09 25.5625L626.516 25.5415C628.221 25.4579 629.956 25.5054 631.704 25.6835L632.951 25.8106C633.821 25.8992 634.692 26.088 635.544 26.3719L636.423 26.6652C637.083 26.8853 637.697 27.238 638.209 27.6909L638.522 27.9684C638.722 28.1447 638.906 28.3333 639.073 28.5319L639.15 28.6246C639.511 29.0548 639.709 29.556 639.709 30.0426V30.0426C639.709 30.5265 639.531 30.9717 639.202 31.3155L638.383 32.1689C637.751 32.8282 636.982 33.3759 636.105 33.7916L629.447 36.9502L610.444 42.9376L580.925 50.6859L569.776 52.0066L555.967 53.4154L532.022 54.0317L529.742 49.189L541.524 45.491Z" fill="#639B66"/>
<path d="M521 36.334L528.095 34.6611L544.53 40.3723C546.066 40.9061 547.676 41.2957 549.317 41.5304V41.5304C550.537 41.705 551.768 41.793 552.989 41.793L556.347 41.793L533.669 48.1325L521 36.334Z" fill="#416643"/>
<path d="M564.583 33.6046L581.179 35.1894L564.583 39.3277L561.542 38.6233L553.307 36.3715L564.583 33.6046Z" fill="#416643"/>
<path d="M563.441 69L576.744 47.4281L605.249 40.9124L581.938 60.4593L575.223 66.2705L563.441 69Z" fill="#416643"/>
<path d="M536.836 52.799L550.265 49.9815L537.216 56.4971L529.995 58.17L536.836 52.799Z" fill="#416643"/>
<path d="M631.347 27.0889L635.021 26.2084L635.073 26.2216C635.958 26.4452 636.802 26.8003 637.555 27.265V27.265L634.768 28.5857L631.347 29.9065L631.347 27.0889Z" fill="#2B442C"/>
<path d="M899.905 351.209C909.733 372.58 847.327 346.121 862.345 355.131C866.685 357.73 871.197 359.945 875.84 361.756C903.168 372.463 933.754 369.623 957.78 363.969C974.631 360.001 991.737 357.559 1008.93 356.668C1013.84 356.418 1018.75 356.294 1023.66 356.296C1031.24 356.307 1038.81 356.625 1046.39 357.251C1095.62 361.334 1196.78 431.061 1230 355.131L1121.22 96L1090.29 185.667L1080.42 214.289L1053.21 172.135L1039.16 150.371L975.172 233.186L957.087 188.097L866.734 329.017L862.345 347.603L899.905 351.209Z" fill="#939393"/>
<path opacity="0.1" d="M1133.02 154.254L1120.24 122.63L1102.55 168.678L1117.78 135.39L1133.02 154.254Z" fill="black"/>
<path opacity="0.1" d="M966.149 228.477L957.796 195.409L934 238.62L953.624 207.716L966.149 228.477Z" fill="black"/>
<path opacity="0.1" d="M1053.2 172.135L1039.16 159.802L975.27 243.022L1040.14 172.008L1053.2 172.135Z" fill="black"/>
<path d="M368.899 378.209C357.051 399.58 432.276 373.121 414.173 382.131C408.942 384.73 403.504 386.945 397.907 388.756C364.965 399.463 328.096 396.623 299.135 390.969C278.823 387.001 258.204 384.559 237.476 383.668C231.564 383.418 225.646 383.294 219.723 383.296C210.588 383.307 201.456 383.625 192.326 384.251C132.988 388.334 11.044 458.061 -29 382.131L102.12 123L139.41 212.667L151.31 241.289L184.11 199.135L201.045 177.371L278.172 260.186L299.971 215.097L408.883 356.017L414.173 374.603L368.899 378.209Z" fill="#939393"/>
<path opacity="0.1" d="M87.9031 181.254L103.305 149.63L124.63 195.678L106.266 162.39L87.9031 181.254Z" fill="black"/>
<path opacity="0.1" d="M289.101 259.134L299.2 225.44L327.674 267.445L304.181 237.555L289.101 259.134Z" fill="black"/>
<path opacity="0.1" d="M184.11 199.135L201.045 186.802L278.053 270.022L199.861 199.008L184.11 199.135Z" fill="black"/>
</g>
<defs>
<clipPath id="clip0_463_1350">
<rect width="1200" height="300" fill="white"/>
</clipPath>
</defs>
</svg>
