<svg width="1456" height="3157" viewBox="0 0 1456 3157" fill="none" xmlns="http://www.w3.org/2000/svg">
<g clip-path="url(#clip0_481_263)">
<rect width="1456" height="3157" fill="url(#paint0_linear_481_263)"/>
<path d="M1046.46 2827.03C1062.29 2924.73 1083.83 2989.46 1108.03 3030.65C1115.02 3042.53 1122.28 3052.66 1129.76 3060.94C1173.79 3109.89 1223.06 3096.9 1261.77 3071.06C1288.91 3052.91 1316.47 3041.75 1344.17 3037.68C1352.07 3036.54 1359.98 3035.97 1367.9 3035.98C1380.11 3036.03 1392.31 3037.48 1404.51 3040.34C1483.81 3059.01 1605.45 3024.03 1658.97 2676.91L1525.07 1846L1440.51 2206.15L1454 2214.5L1423 2186L1350.5 2049.5L1296.26 2325.53C1295.23 2330.8 1302.33 2333.51 1305.07 2328.9V2328.9C1305.95 2327.42 1305.97 2325.57 1305.12 2324.08L1229.5 2191.5L1209 2349.5L1133 2202L1023 2636.5L1047.7 2823.79L1046.46 2827.03Z" fill="#424141"/>
<path d="M1013.96 2822.03C1029.79 2919.73 1051.33 2984.46 1075.53 3025.65C1082.52 3037.53 1089.78 3047.66 1097.26 3055.94C1141.29 3104.89 1190.56 3091.9 1229.27 3066.06C1256.41 3047.91 1283.97 3036.75 1311.67 3032.68C1319.57 3031.54 1327.48 3030.97 1335.4 3030.98C1347.61 3031.03 1359.81 3032.48 1372.01 3035.34C1451.31 3054.01 1572.95 3019.03 1626.47 2671.91L1492.57 1841L1408.01 2201.15L1388.17 2234.39L1372.01 2189.38L1348.48 2047.74L1262.45 2334.29C1260.41 2341.05 1252.55 2344.09 1246.51 2340.44V2340.44C1243.54 2338.65 1241.61 2335.54 1241.31 2332.09L1229.27 2189.38L1149 2386L1132.5 2201.15L990.5 2631.5L1015.2 2818.79L1013.96 2822.03Z" fill="#464646"/>
<path opacity="0.1" d="M1511.91 2020.2L1491.32 1875.63L1433.66 2146.09L1487.36 1933.97L1511.91 2020.2Z" fill="#B7B3B3"/>
<path opacity="0.1" d="M1311.67 3065.92C1319.57 3064.78 1327.48 3064.21 1335.4 3064.22L1426.83 2415.02L1311.67 3065.92Z" fill="black"/>
<path opacity="0.1" d="M1361.21 2154.4L1347.36 2072.67L1268.17 2346.25L1344.36 2125.66L1361.21 2154.4Z" fill="#B7B3B3"/>
<path opacity="0.1" d="M1233.5 2277.5L1227.88 2208L1156 2389.81L1225 2238L1233.5 2277.5Z" fill="#B7B3B3"/>
<path opacity="0.1" d="M1135.34 2313.73L1130.5 2217.5L1073 2476.49L1125 2266.5L1135.34 2313.73Z" fill="#B7B3B3"/>
<path opacity="0.1" d="M1075.53 3058.9C1082.52 3070.78 1089.79 3080.9 1097.27 3089.18L1257.29 2501.41L1075.53 3058.9Z" fill="black"/>
<path opacity="0.1" d="M955 3009.36C961.991 3021.24 969.26 3031.36 976.74 3039.64L1136.76 2451.87L955 3009.36Z" fill="black"/>
<path d="M0 2431H1456V3215.5H0V2431Z" fill="#7B7B7B"/>
<path d="M258.5 2306L258.5 2437" stroke="#353441" stroke-width="10" stroke-linecap="round"/>
<path d="M1456 2327.77L-0.0020752 2327.77" stroke="#353441" stroke-width="10" stroke-linecap="round"/>
<path d="M1456 2390L-0.00134277 2390" stroke="#353441" stroke-width="10" stroke-linecap="round"/>
<path d="M181.5 2306L181.5 2437" stroke="#353441" stroke-width="10" stroke-linecap="round"/>
<path d="M104.5 2306L104.5 2437" stroke="#353441" stroke-width="10" stroke-linecap="round"/>
<path d="M27.5 2306L27.5 2437" stroke="#353441" stroke-width="10" stroke-linecap="round"/>
<path d="M333.5 2306L333.5 2437" stroke="#353441" stroke-width="10" stroke-linecap="round"/>
<path d="M405.5 2306L405.5 2437" stroke="#353441" stroke-width="10" stroke-linecap="round"/>
<path d="M477.5 2306L477.5 2437" stroke="#353441" stroke-width="10" stroke-linecap="round"/>
<path d="M549.5 2306L549.5 2437" stroke="#353441" stroke-width="10" stroke-linecap="round"/>
<path d="M621.5 2306L621.5 2437" stroke="#353441" stroke-width="10" stroke-linecap="round"/>
<path d="M693.5 2306L693.5 2437" stroke="#353441" stroke-width="10" stroke-linecap="round"/>
<path d="M765.5 2306L765.5 2437" stroke="#353441" stroke-width="10" stroke-linecap="round"/>
<path d="M837.5 2306L837.5 2437" stroke="#353441" stroke-width="10" stroke-linecap="round"/>
<path d="M909.5 2306L909.5 2437" stroke="#353441" stroke-width="10" stroke-linecap="round"/>
<path d="M981.5 2306L981.5 2437" stroke="#353441" stroke-width="10" stroke-linecap="round"/>
<path d="M1053.5 2306L1053.5 2437" stroke="#353441" stroke-width="10" stroke-linecap="round"/>
<path d="M1125.5 2306L1125.5 2437" stroke="#353441" stroke-width="10" stroke-linecap="round"/>
<path d="M1197.5 2306L1197.5 2437" stroke="#353441" stroke-width="10" stroke-linecap="round"/>
<path d="M1269.5 2306L1269.5 2437" stroke="#353441" stroke-width="10" stroke-linecap="round"/>
<path d="M1341.5 2306L1341.5 2437" stroke="#353441" stroke-width="10" stroke-linecap="round"/>
<path d="M1413.5 2306L1413.5 2437" stroke="#353441" stroke-width="10" stroke-linecap="round"/>
<ellipse cx="139.5" cy="2488.5" rx="111.5" ry="14.5" fill="#5A4124"/>
<path d="M247.662 2487.27C248.792 2487.98 248.969 2488.42 248.995 2488.5C248.969 2488.58 248.792 2489.02 247.662 2489.73C246.399 2490.54 244.406 2491.39 241.65 2492.23C236.168 2493.92 228.133 2495.46 218.084 2496.77C198.016 2499.38 170.232 2501 139.5 2501C108.768 2501 80.9837 2499.38 60.9155 2496.77C50.867 2495.46 42.8324 2493.92 37.35 2492.23C34.5943 2491.39 32.6012 2490.54 31.338 2489.73C30.2077 2489.02 30.0314 2488.58 30.0046 2488.5C30.0314 2488.42 30.2077 2487.98 31.338 2487.27C32.6012 2486.46 34.5943 2485.61 37.35 2484.77C42.8324 2483.08 50.867 2481.54 60.9155 2480.23C80.9837 2477.62 108.768 2476 139.5 2476C170.232 2476 198.016 2477.62 218.084 2480.23C228.133 2481.54 236.168 2483.08 241.65 2484.77C244.406 2485.61 246.399 2486.46 247.662 2487.27Z" stroke="#2F2E41" stroke-opacity="0.63" stroke-width="4"/>
<rect x="-287.173" y="1529.58" width="426.725" height="489.298" rx="213.362" fill="#4C894B"/>
<path d="M32.8691 1666.26C32.8691 1613.29 75.8105 1570.35 128.781 1570.35H139.55V1596.76C139.55 1649.73 96.609 1692.67 43.6382 1692.67H32.8691V1666.26Z" fill="#4C894B"/>
<path d="M170.847 1899.2C132.698 1935.95 76.3925 1931.1 45.0848 1888.37L37.7725 1878.39L44.8749 1871.55C83.0235 1834.8 139.329 1839.65 170.637 1882.38L177.949 1892.36L170.847 1899.2Z" fill="#4C894B"/>
<rect width="474.577" height="443.039" rx="221.519" transform="matrix(-0.447378 0.894345 -0.835496 -0.549496 395.6 1848.57)" fill="#4C894B"/>
<path d="M125.38 2093.91C169.637 2123.01 186.304 2185.01 162.606 2232.39L152.436 2252.72L140.031 2244.56C95.7738 2215.45 79.1075 2153.45 102.806 2106.08L112.975 2085.75L125.38 2093.91Z" fill="#4C894B"/>
<path d="M236.705 1928.48C264.193 1883.84 320.241 1874.99 361.892 1908.71L367.751 1913.45L360.136 1925.82C332.649 1970.46 276.601 1979.31 234.949 1945.59L229.09 1940.85L236.705 1928.48Z" fill="#4C894B"/>
<path d="M114.2 1744.17C105.534 1688.93 138.028 1636 186.777 1625.94L196.43 1623.95L198.353 1636.21C207.019 1691.45 174.526 1744.39 125.776 1754.44L116.123 1756.43L114.2 1744.17Z" fill="#4C894B"/>
<rect width="474.577" height="443.039" rx="221.519" transform="matrix(-0.447378 0.894345 -0.835496 -0.549496 598.292 1674.25)" fill="#4C894B"/>
<path d="M328.073 1919.59C372.33 1948.7 388.996 2010.7 365.298 2058.07L355.128 2078.4L342.723 2070.24C298.466 2041.14 281.8 1979.14 305.498 1931.76L315.668 1911.43L328.073 1919.59Z" fill="#4C894B"/>
<path d="M439.398 1754.17C466.885 1709.53 522.933 1700.68 564.585 1734.4L570.444 1739.14L562.829 1751.51C535.341 1796.15 479.293 1805 437.642 1771.28L431.782 1766.53L439.398 1754.17Z" fill="#4C894B"/>
<path d="M316.892 1569.86C308.226 1514.62 340.72 1461.69 389.47 1451.63L399.122 1449.64L401.046 1461.9C409.712 1517.14 377.218 1570.07 328.469 1580.13L318.816 1582.12L316.892 1569.86Z" fill="#4C894B"/>
<path d="M90.4979 1944.12C81.8319 1888.88 114.326 1835.95 163.075 1825.9L172.728 1823.9L174.651 1836.16C183.317 1891.4 150.823 1944.34 102.074 1954.39L92.4212 1956.38L90.4979 1944.12Z" fill="#4C894B"/>
<rect width="444.215" height="414.695" rx="207.348" transform="matrix(-0.447378 0.894345 -0.835496 -0.549496 492.239 1450.81)" fill="#4C894B"/>
<path d="M234.186 1677.08C278.443 1706.19 295.109 1768.19 271.411 1815.56L264.637 1829.1L258.152 1824.84C213.895 1795.73 197.229 1733.73 220.927 1686.36L227.701 1672.81L234.186 1677.08Z" fill="#4C894B"/>
<path d="M340.325 1530.78C367.813 1486.14 424.52 1477.83 466.172 1511.55V1511.55L462.228 1517.95C434.741 1562.59 378.033 1570.91 336.381 1537.19V1537.19L340.325 1530.78Z" fill="#4C894B"/>
<path d="M229.847 1359.49C221.181 1304.25 253.674 1251.32 302.424 1241.27L305.812 1240.57L306.608 1245.65C315.274 1300.88 282.781 1353.82 234.031 1363.87L230.643 1364.57L229.847 1359.49Z" fill="#4C894B"/>
<path d="M17.9394 1709.81C9.27328 1654.57 41.7672 1601.64 90.5165 1591.59L93.9048 1590.89L94.7012 1595.96C103.367 1651.2 70.8734 1704.14 22.124 1714.19L18.7357 1714.89L17.9394 1709.81Z" fill="#4C894B"/>
<path fill-rule="evenodd" clip-rule="evenodd" d="M-284.747 1714.73C-286.083 1724.38 -286.774 1734.24 -286.774 1744.25V1806.83C-286.774 1807.68 -286.769 1808.53 -286.759 1809.38C-308.987 1807.95 -331.901 1815.98 -350.499 1833.9L-357.602 1840.74L-350.289 1850.72C-330.496 1877.74 -300.711 1889.61 -271.84 1885.4C-243.718 1956.36 -178.632 2008.65 -100.337 2018.51C-98.2723 2025.14 -95.9477 2031.68 -93.3685 2038.13C-109.032 2060.29 -116.514 2089.68 -111.796 2119.75L-109.873 2132.01L-100.22 2130.02C-82.5398 2126.37 -66.9978 2117.09 -54.782 2104.1C-39.6855 2122.71 -21.8118 2139.17 -1.39597 2152.59C30.0546 2173.28 63.8736 2184.36 97.2203 2186.61C104.352 2210.43 119.223 2231.93 140.429 2245.87L152.834 2254.03L163.004 2233.7C172.002 2215.71 175.181 2195.62 173.24 2176.01C218.555 2159.7 258.065 2125.62 282.786 2076.2L296.895 2048C300.206 2041.38 303.175 2034.64 305.81 2027.8C313.979 2045.31 326.636 2060.72 343.122 2071.56L355.527 2079.72L365.697 2059.39C374.694 2041.4 377.873 2021.31 375.932 2001.7C421.247 1985.39 460.757 1951.31 485.478 1901.89L499.587 1873.69C513.248 1846.38 521.102 1816.96 523.606 1787.15C539.24 1780.74 553.152 1769.19 563.227 1752.82L570.842 1740.46L564.983 1735.71C550.946 1724.35 535.275 1717.82 519.612 1715.87C516.421 1699.55 511.69 1683.53 505.5 1668.1C501.522 1682.51 496.166 1696.61 489.374 1710.19L475.264 1738.4C436.601 1815.69 361.762 1855.44 285.119 1848.43L275.095 1868.47C220.362 1977.89 93.1299 2012.09 -9.08624 1944.86C-43.0767 1922.51 -70.0207 1891.75 -88.8332 1856.63C-179.365 1854.46 -255.929 1795.9 -284.747 1714.73Z" fill="#386A37"/>
<path d="M110.131 1960.71H169.25L217.432 2488.4H61.1895L110.131 1960.71Z" fill="#67451C"/>
<path d="M109.707 1960.71H169.672L195.061 2244.73H84.1709L109.707 1960.71Z" fill="#513413"/>
<path fill-rule="evenodd" clip-rule="evenodd" d="M93.5256 2185.57C1.06833 2109.24 -10.1703 1994.55 -3.70179 1944.49L38.0701 1951.58C33.2778 1988.67 41.7456 2083.16 118.2 2146.28L93.5256 2185.57Z" fill="#513413"/>
<path fill-rule="evenodd" clip-rule="evenodd" d="M163.356 2108.1C255.814 2031.77 267.052 1917.08 260.584 1867.02L218.812 1874.11C223.604 1911.2 215.136 2005.69 138.682 2068.81L163.356 2108.1Z" fill="#513413"/>
<rect width="340.063" height="317.465" rx="158.732" transform="matrix(-0.447378 0.894345 -0.835496 -0.549496 323.721 1775.71)" fill="#4C894B"/>
<path d="M126.169 1948.93C160.049 1971.21 172.808 2018.67 154.666 2054.94L149.48 2065.31L144.516 2062.04C110.636 2039.76 97.877 1992.3 116.019 1956.03L121.205 1945.66L126.169 1948.93Z" fill="#4C894B"/>
<path d="M207.423 1836.93C228.466 1802.76 271.878 1796.39 303.764 1822.21V1822.21L300.744 1827.11C279.702 1861.28 236.29 1867.65 204.404 1841.83V1841.83L207.423 1836.93Z" fill="#4C894B"/>
<path d="M122.847 1705.8C116.213 1663.51 141.088 1622.99 178.408 1615.3L181.002 1614.76L181.611 1618.65C188.245 1660.93 163.37 1701.46 126.051 1709.15L123.457 1709.69L122.847 1705.8Z" fill="#4C894B"/>
<path d="M-39.3735 1973.99C-46.0077 1931.7 -21.1324 1891.18 16.187 1883.48L18.7809 1882.94L19.3906 1886.83C26.0248 1929.12 1.14948 1969.64 -36.1699 1977.34L-38.7638 1977.87L-39.3735 1973.99Z" fill="#4C894B"/>
<rect width="400.785" height="456.805" rx="200.392" transform="matrix(0.985752 0.168206 -0.128706 0.991683 -177.06 1214.86)" fill="#629B61"/>
<path d="M102.005 1398.28C108.823 1345.75 156.679 1310.39 208.895 1319.3L213.118 1320.02L210.764 1338.16C203.947 1390.69 156.09 1426.05 103.874 1417.14L99.6513 1416.42L102.005 1398.28Z" fill="#629B61"/>
<path d="M207.454 1625.98C165.025 1655.88 109.963 1641.55 84.4684 1593.98L81.8724 1589.14L84.3926 1587.36C126.821 1557.46 181.884 1571.79 207.378 1619.36L209.974 1624.21L207.454 1625.98Z" fill="#629B61"/>
<g clip-path="url(#clip1_481_263)">
<path d="M895.758 2620.15L728.346 2318.31C728.299 2317.57 728.07 2316.86 727.68 2316.23C727.29 2315.6 726.752 2315.08 726.111 2314.7C725.377 2314.28 724.538 2314.08 723.693 2314.12C723.666 2314.12 723.639 2314.12 723.611 2314.12C723.584 2314.12 723.557 2314.12 723.53 2314.12C722.385 2314.07 721.263 2314.46 720.399 2315.21C719.536 2315.97 718.998 2317.03 718.897 2318.17L541.464 2620.15C541.169 2620.66 540.976 2621.23 540.899 2621.81C540.822 2622.4 540.861 2622.99 541.013 2623.56C541.166 2624.14 541.43 2624.67 541.79 2625.14C542.15 2625.61 542.598 2626 543.11 2626.3C543.622 2626.59 544.187 2626.79 544.773 2626.86C545.36 2626.94 545.955 2626.9 546.526 2626.75C547.097 2626.59 547.632 2626.33 548.101 2625.97C548.57 2625.61 548.963 2625.16 549.258 2624.65L723.492 2328.11L887.965 2624.65C888.26 2625.16 888.653 2625.61 889.122 2625.97C889.591 2626.33 890.126 2626.59 890.697 2626.75C891.268 2626.9 891.863 2626.94 892.449 2626.86C893.036 2626.79 893.601 2626.59 894.113 2626.3C894.625 2626 895.073 2625.61 895.433 2625.14C895.793 2624.67 896.057 2624.14 896.21 2623.56C896.362 2622.99 896.401 2622.4 896.324 2621.81C896.246 2621.23 896.054 2620.66 895.758 2620.15Z" fill="#3F3D56"/>
<path d="M695.871 2568.36L714.794 2564.02L707.053 2488.97L679.125 2495.37L695.871 2568.36Z" fill="#FFB6B6"/>
<path d="M710.502 2532.1L683.572 2538.28L674.962 2521.46L674.474 2520.86C670.655 2516.17 668.534 2510.33 668.459 2504.28L646.077 2445.07L644.246 2444.2C642.83 2443.53 641.575 2442.56 640.563 2441.36C639.55 2440.17 638.806 2438.77 638.377 2437.26C637.949 2435.75 637.848 2434.17 638.08 2432.62C638.312 2431.07 638.872 2429.58 639.723 2428.27L637.354 2422L570.492 2422.12L570.425 2422.1L488.319 2399.07L496.94 2347.68L520.037 2362.21C527.647 2361.72 658.017 2353.71 670.061 2382.93C680.786 2408.95 696.241 2453.4 707.317 2486.1C707.869 2487.57 708.556 2488.98 709.368 2490.33C711.091 2492.98 712.103 2496.03 712.305 2499.19C712.436 2500.57 712.698 2501.92 713.088 2503.25C717.691 2517.01 710.678 2531.74 710.606 2531.89L710.502 2532.1Z" fill="#2F2E41"/>
<path d="M689.479 2562.09L695.631 2560.67L717.41 2545.4L732.524 2552.21L732.526 2552.21C739.801 2550.54 747.442 2551.83 753.766 2555.8C760.091 2559.76 764.582 2566.07 766.251 2573.35L766.456 2574.24L695.977 2590.41L689.479 2562.09Z" fill="#2F2E41"/>
<path d="M893.293 2556.41C892.721 2557.42 891.906 2558.28 890.921 2558.9C889.936 2559.53 888.812 2559.89 887.65 2559.97C887.054 2560.01 887.194 2560.93 887.786 2560.89C889.07 2560.8 890.31 2560.39 891.4 2559.7C892.49 2559.02 893.395 2558.08 894.037 2556.96C894.107 2556.86 894.135 2556.74 894.117 2556.62C894.099 2556.5 894.036 2556.39 893.941 2556.31C893.842 2556.24 893.718 2556.21 893.597 2556.23C893.476 2556.25 893.366 2556.31 893.293 2556.41Z" fill="white"/>
<path d="M888.111 2167C890.597 2167 892.611 2164.99 892.611 2162.5C892.611 2160.01 890.597 2158 888.111 2158C885.626 2158 883.611 2160.01 883.611 2162.5C883.611 2164.99 885.626 2167 888.111 2167Z" fill="#7B5943"/>
<path d="M831.763 2197.16L892.43 2159.05C892.979 2158.7 893.592 2158.47 894.232 2158.37C894.872 2158.27 895.526 2158.3 896.155 2158.46C896.783 2158.62 897.373 2158.9 897.889 2159.29C898.404 2159.69 898.835 2160.18 899.154 2160.74C899.474 2161.31 899.676 2161.93 899.748 2162.57C899.82 2163.22 899.761 2163.87 899.574 2164.49C899.387 2165.11 899.077 2165.69 898.661 2166.19C898.245 2166.68 897.733 2167.09 897.155 2167.38L833.286 2199.85C832.932 2200.03 832.521 2200.07 832.14 2199.95C831.759 2199.84 831.437 2199.58 831.241 2199.23C831.045 2198.89 830.99 2198.48 831.087 2198.09C831.184 2197.71 831.426 2197.37 831.763 2197.16Z" fill="#E4E4E4"/>
<path d="M710.052 2279.23C709.574 2278.52 709.325 2277.68 709.337 2276.83C709.35 2275.97 709.623 2275.14 710.122 2274.44C711.148 2273.07 712.515 2271.98 714.088 2271.3C717.334 2269.64 720.83 2268.54 724.436 2268.03C727.177 2267.64 730.168 2267.51 732.293 2265.74C734.405 2263.98 735.582 2260.69 738.318 2260.41C740.963 2260.15 742.997 2263.04 745.649 2263.22C748.919 2263.44 751.059 2259.62 754.241 2258.83C756.37 2258.31 758.56 2259.23 760.557 2260.14L772.544 2265.58L778.688 2268.36C780.835 2269.34 783.255 2270.65 783.66 2272.97C784.217 2276.16 780.669 2278.41 777.636 2279.54C755.975 2287.54 732.173 2287.54 710.511 2279.55" fill="#DFC779"/>
<path d="M728.111 2338C815.096 2338 885.611 2327.93 885.611 2315.5C885.611 2303.07 815.096 2293 728.111 2293C641.126 2293 570.611 2303.07 570.611 2315.5C570.611 2327.93 641.126 2338 728.111 2338Z" fill="#3F3D56"/>
<path d="M1047.61 2455H939.611C934.641 2455 930.611 2459.03 930.611 2464C930.611 2468.97 934.641 2473 939.611 2473H1047.61C1052.58 2473 1056.61 2468.97 1056.61 2464C1056.61 2459.03 1052.58 2455 1047.61 2455Z" fill="#3F3D56"/>
<path d="M1099.95 2294.54L1064.28 2463.99L1073.57 2507.36L1091.11 2589.21V2626C1091.11 2626.05 1091.11 2626.1 1091.1 2626.15C1091.1 2626.96 1090.95 2627.77 1090.66 2628.53H1076.56C1076.28 2627.77 1076.13 2626.96 1076.12 2626.15C1076.11 2626.1 1076.11 2626.05 1076.11 2626V2590.79L1060.19 2516.5L1056.97 2501.5L1050.74 2472.43L1048.94 2464.01V2464L1050.72 2455.56L1052.09 2449.05L1085.27 2291.46C1085.47 2290.5 1085.86 2289.58 1086.42 2288.77C1086.97 2287.95 1087.68 2287.26 1088.51 2286.72C1089.33 2286.18 1090.26 2285.81 1091.22 2285.62C1092.19 2285.44 1093.19 2285.45 1094.15 2285.65C1095.12 2285.86 1096.03 2286.25 1096.85 2286.8C1097.66 2287.36 1098.36 2288.07 1098.89 2288.89C1099.43 2289.72 1099.8 2290.64 1099.98 2291.61C1100.17 2292.58 1100.15 2293.58 1099.95 2294.54Z" fill="#9694AD"/>
<path d="M947.112 2464V2626C947.113 2626.05 947.11 2626.1 947.102 2626.15C947.096 2626.96 946.947 2627.77 946.662 2628.53H932.562C932.277 2627.77 932.128 2626.96 932.121 2626.15C932.113 2626.1 932.11 2626.05 932.112 2626V2464C932.112 2462.01 932.902 2460.1 934.308 2458.7C935.715 2457.29 937.623 2456.5 939.612 2456.5C941.601 2456.5 943.508 2457.29 944.915 2458.7C946.322 2460.1 947.112 2462.01 947.112 2464Z" fill="#9694AD"/>
<path d="M957.611 2437H1029.61C1036.77 2437 1043.64 2439.84 1048.7 2444.91C1053.77 2449.97 1056.61 2456.84 1056.61 2464H930.611C930.611 2456.84 933.456 2449.97 938.519 2444.91C943.583 2439.84 950.45 2437 957.611 2437Z" fill="#3F3D56"/>
<path d="M1065.61 2516.5H939.611C937.622 2516.5 935.715 2515.71 934.308 2514.3C932.901 2512.9 932.111 2510.99 932.111 2509C932.111 2507.01 932.901 2505.1 934.308 2503.7C935.715 2502.29 937.622 2501.5 939.611 2501.5H1065.61C1067.6 2501.5 1069.51 2502.29 1070.91 2503.7C1072.32 2505.1 1073.11 2507.01 1073.11 2509C1073.11 2510.99 1072.32 2512.9 1070.91 2514.3C1069.51 2515.71 1067.6 2516.5 1065.61 2516.5Z" fill="#9694AD"/>
<path d="M479.52 2473.27H606.611C611.582 2473.27 615.611 2469.24 615.611 2464.27V2461.55C615.611 2456.57 611.582 2452.55 606.611 2452.55H479.52C474.55 2452.55 470.52 2456.57 470.52 2461.55V2464.27C470.52 2469.24 474.55 2473.27 479.52 2473.27Z" fill="#9694AD"/>
<path d="M478.212 2463.03L475.912 2472.51L467.472 2507.23L463.832 2522.23L446.932 2591.81V2622C446.936 2623.48 446.497 2624.92 445.672 2626.15C445.023 2627.14 444.14 2627.96 443.102 2628.53H435.762C434.723 2627.96 433.841 2627.14 433.192 2626.15C432.366 2624.92 431.927 2623.48 431.932 2622V2590.01L450.712 2512.71L462.832 2462.79L421.732 2267.54C421.528 2266.58 421.517 2265.58 421.698 2264.61C421.879 2263.65 422.249 2262.72 422.787 2261.9C423.326 2261.07 424.021 2260.36 424.834 2259.81C425.647 2259.25 426.561 2258.86 427.525 2258.66C428.489 2258.45 429.483 2258.44 430.451 2258.63C431.419 2258.81 432.342 2259.18 433.166 2259.72C433.991 2260.26 434.701 2260.95 435.256 2261.77C435.811 2262.58 436.2 2263.5 436.402 2264.46L474.392 2444.89L476.142 2453.21L478.182 2462.91L478.212 2463.03Z" fill="#9694AD"/>
<path d="M612.752 2462.91V2622C612.756 2623.48 612.317 2624.92 611.492 2626.15C610.843 2627.14 609.96 2627.96 608.922 2628.53H601.572C600.538 2627.96 599.66 2627.14 599.012 2626.15C598.186 2624.92 597.748 2623.48 597.752 2622V2462.91C597.752 2460.92 598.542 2459.01 599.949 2457.61C601.355 2456.2 603.263 2455.41 605.252 2455.41C607.241 2455.41 609.149 2456.2 610.555 2457.61C611.962 2459.01 612.752 2460.92 612.752 2462.91Z" fill="#9694AD"/>
<path d="M615.611 2462.91H470.52V2458.82C470.52 2455.27 471.219 2451.76 472.576 2448.49C473.932 2445.21 475.921 2442.23 478.428 2439.73C480.936 2437.22 483.912 2435.23 487.188 2433.87C490.464 2432.52 493.975 2431.82 497.52 2431.82H588.611C595.772 2431.82 602.64 2434.66 607.703 2439.73C612.767 2444.79 615.611 2451.66 615.611 2458.82L615.611 2462.91Z" fill="#3F3D56"/>
<path d="M605.248 2522.23H460.157C458.168 2522.23 456.26 2521.44 454.854 2520.03C453.447 2518.62 452.657 2516.72 452.657 2514.73C452.657 2512.74 453.447 2510.83 454.854 2509.42C456.26 2508.02 458.168 2507.23 460.157 2507.23H605.248C607.237 2507.23 609.145 2508.02 610.552 2509.42C611.958 2510.83 612.748 2512.74 612.748 2514.73C612.748 2516.72 611.958 2518.62 610.552 2520.03C609.145 2521.44 607.237 2522.23 605.248 2522.23Z" fill="#9694AD"/>
<path d="M791.713 2587.65L775.95 2580.11L797.603 2514.22L820.869 2525.35L791.713 2587.65Z" fill="#9E616A"/>
<path d="M898.542 2581.68L881.592 2585.86L857.033 2521.02L882.051 2514.84L898.542 2581.68Z" fill="#9E616A"/>
<path d="M833.575 2301.27C835.824 2304.92 839.41 2307.55 843.57 2308.59C847.729 2309.63 852.131 2309.01 855.837 2306.85C856.582 2306.4 857.289 2305.89 857.949 2305.32L907.786 2333.92L905.621 2304.56L858.628 2281.9C856.071 2279.34 852.733 2277.69 849.139 2277.22C845.545 2276.75 841.898 2277.49 838.768 2279.32C836.966 2280.4 835.399 2281.83 834.159 2283.53C832.918 2285.23 832.03 2287.15 831.546 2289.2C831.062 2291.24 830.993 2293.37 831.341 2295.44C831.69 2297.51 832.449 2299.49 833.575 2301.27Z" fill="#9E616A"/>
<path d="M917.944 2235.02C915.355 2231.6 914.204 2227.3 914.735 2223.04C915.265 2218.79 917.436 2214.9 920.786 2212.22C921.475 2211.69 922.208 2211.21 922.976 2210.8L914.338 2153.99L940.912 2166.54L945.041 2218.57C946.508 2221.88 946.837 2225.59 945.974 2229.12C945.112 2232.64 943.107 2235.78 940.273 2238.04C938.62 2239.34 936.723 2240.29 934.696 2240.84C932.669 2241.39 930.552 2241.53 928.47 2241.25C926.389 2240.96 924.385 2240.27 922.577 2239.2C920.769 2238.13 919.194 2236.71 917.944 2235.02Z" fill="#9E616A"/>
<path d="M886.359 2323.15L895.169 2328.52L934.733 2352.65C937.332 2354.27 940.225 2355.37 943.249 2355.88C946.272 2356.38 949.366 2356.29 952.353 2355.6C955.34 2354.91 958.161 2353.64 960.657 2351.86C963.152 2350.08 965.272 2347.82 966.895 2345.22C969.824 2340.4 970.861 2334.66 969.804 2329.11L952.22 2241.26C951.57 2237.81 950.184 2234.54 948.155 2231.68C946.126 2228.81 943.503 2226.42 940.464 2224.67C937.426 2222.91 934.045 2221.83 930.551 2221.5C927.057 2221.17 923.533 2221.6 920.22 2222.76C914.651 2224.72 910.038 2228.72 907.317 2233.96C904.597 2239.2 903.974 2245.27 905.576 2250.95L923.963 2313.3L895.778 2300.16L886.359 2323.15Z" fill="#E6E6E6"/>
<path d="M865.531 2563.51L838.407 2509.11L838.411 2508.99L841.089 2409.21C841.122 2408.32 841.194 2407.43 841.302 2406.55C841.775 2402.55 843.04 2398.69 845.023 2395.18C847.005 2391.67 849.666 2388.6 852.85 2386.13C855.9 2383.74 859.394 2381.99 863.129 2380.97C866.864 2379.95 870.765 2379.68 874.604 2380.18L952.164 2390.22L954.854 2379.22L955.355 2379.04L1029.67 2351.8L1030.1 2352.5C1039.83 2368.33 1046.63 2399.97 1048.49 2409.29L1048.51 2409.42C1048.55 2409.62 1048.58 2409.73 1048.58 2409.77C1052.41 2425.67 1036.6 2452.01 1020.86 2455.97C987.685 2464.42 958.02 2457.83 923.67 2450.19C911.353 2447.45 898.623 2444.62 884.601 2442.17L885.018 2450.43C885.359 2456.78 886.679 2463.04 888.93 2468.99C891.43 2476.31 893.405 2482.09 889.229 2494.15L887.209 2499.99C888.257 2502.88 888.617 2505.98 888.263 2509.04C887.908 2512.1 886.847 2515.04 885.164 2517.62L884.758 2518.24L902.646 2563.5L865.531 2563.51Z" fill="#2F2E41"/>
<path d="M820.965 2539.45L788.62 2536.45L800.079 2499.8C802.444 2475.87 808.402 2452.44 817.753 2430.28L833.384 2393.24C833.42 2392.42 833.489 2391.59 833.59 2390.77C834.063 2386.77 835.328 2382.91 837.31 2379.4C839.293 2375.89 841.954 2372.82 845.138 2370.35C848.188 2367.96 851.682 2366.21 855.417 2365.19C859.152 2364.17 863.052 2363.9 866.891 2364.4L944.337 2374.42L947.71 2346.11L1022.04 2336.16L1022.38 2336.72C1035.38 2357.86 1043.63 2374.41 1048.34 2388.8C1048.58 2389.54 1048.79 2390.28 1048.97 2391.03C1052.82 2407.04 1043.21 2423.27 1027.54 2427.21C987.602 2437.39 939.58 2437.11 876.441 2426.32L845.884 2499.03C842.963 2505.98 839.347 2512.61 835.091 2518.83L820.965 2539.45Z" fill="#2F2E41"/>
<path d="M933.79 2172.34C954.482 2172.34 971.257 2155.19 971.257 2134.04C971.257 2112.88 954.482 2095.73 933.79 2095.73C913.097 2095.73 896.322 2112.88 896.322 2134.04C896.322 2155.19 913.097 2172.34 933.79 2172.34Z" fill="#9E616A"/>
<path d="M944.608 2375.76L939.232 2356.5L937.911 2347L930.184 2347.26L915.019 2312.25L909.129 2303.02C907.927 2301.76 906.839 2300.54 905.864 2299.38C899.727 2292.44 894.806 2284.51 891.309 2275.94C888.859 2269.78 887.42 2263.26 887.048 2256.64C885.949 2237.08 894.193 2216.39 912.254 2193.38C911.958 2192.57 911.76 2191.72 911.665 2190.86C911.343 2188.07 912.136 2185.26 913.874 2183.04C915.611 2180.83 918.152 2179.4 920.944 2179.05L938.363 2177.09C939.718 2176.94 941.089 2177.05 942.398 2177.44C943.707 2177.82 944.926 2178.46 945.986 2179.31C947.093 2180.2 948.012 2181.3 948.69 2182.54C949.367 2183.79 949.79 2185.16 949.934 2186.57C950.168 2188.75 949.738 2190.95 948.702 2192.89C957.581 2194.02 965.947 2197.68 972.795 2203.44C979.643 2209.21 984.684 2216.82 987.312 2225.38C997.735 2244.83 1006.04 2265.35 1012.09 2286.58C1013.29 2290.74 1012.75 2295.03 1012.24 2299.17C1011.77 2303 1011.28 2306.95 1012.1 2310.9C1012.94 2314.91 1014.96 2318.93 1017.1 2323.19C1019.54 2328.07 1022.07 2333.12 1022.76 2338.26L1022.81 2338.62L944.608 2375.76Z" fill="#E4E4E4"/>
<path opacity="0.2" d="M891.771 2275.75C895.253 2284.28 900.147 2292.15 906.247 2299.05C907.292 2300.3 908.396 2301.53 909.55 2302.76L915.477 2312.06C937.326 2295.68 955.027 2231.2 955.027 2231.2L930.376 2226.4L891.771 2275.75Z" fill="black"/>
<path d="M876.847 2175.92C879.006 2179.63 879.632 2184.03 878.593 2188.19C877.555 2192.35 874.933 2195.95 871.285 2198.21C870.536 2198.65 869.752 2199.04 868.94 2199.36L870.685 2256.79L845.812 2241.14L847.969 2188.99C846.91 2185.52 847.031 2181.8 848.31 2178.41C849.59 2175.01 851.958 2172.14 855.043 2170.23C856.84 2169.14 858.837 2168.43 860.916 2168.13C862.995 2167.82 865.113 2167.94 867.146 2168.47C869.178 2169 871.084 2169.93 872.75 2171.21C874.416 2172.49 875.809 2174.09 876.847 2175.92Z" fill="#9E616A"/>
<path d="M872.871 2235.11L845.519 2239L846.695 2295.64C846.763 2299.68 847.863 2303.64 849.891 2307.14C851.919 2310.63 854.807 2313.55 858.281 2315.62C862.525 2318.11 867.465 2319.16 872.357 2318.61C877.25 2318.05 881.829 2315.92 885.405 2312.54L949.981 2250.42C954.524 2246.11 957.243 2240.23 957.579 2233.97C957.914 2227.72 955.841 2221.57 951.785 2216.8C949.778 2214.43 947.314 2212.48 944.539 2211.07C941.765 2209.67 938.736 2208.83 935.633 2208.62C932.53 2208.41 929.416 2208.82 926.476 2209.84C923.536 2210.85 920.829 2212.45 918.517 2214.53C917.879 2215.1 917.272 2215.7 916.699 2216.34L874.059 2265.39L872.871 2235.11Z" fill="#E6E6E6"/>
<path d="M644.104 2604.57L663.518 2604.57L672.754 2529.68L644.101 2529.68L644.104 2604.57Z" fill="#FFB6B6"/>
<path d="M534.061 2173.45C555.461 2173.45 572.809 2156.1 572.809 2134.7C572.809 2113.3 555.461 2095.95 534.061 2095.95C512.661 2095.95 495.312 2113.3 495.312 2134.7C495.312 2156.1 512.661 2173.45 534.061 2173.45Z" fill="#FFB6B6"/>
<path d="M669.854 2581.5H642.362L635.353 2572.11L633.456 2563.25L631.823 2561.67C629.608 2559.55 628.176 2556.73 627.759 2553.69C627.342 2550.65 627.964 2547.56 629.525 2544.91L609.6 2451.95C604.382 2451.49 545.531 2446.23 504.622 2438.99C494.152 2437.14 485.978 2432.05 480.327 2423.86C466.439 2403.75 472.388 2371.21 472.449 2370.89L472.518 2370.52L472.885 2370.48L568.44 2359.76L568.568 2359.82C571.739 2361.32 646.37 2396.75 658.565 2408.95C664.073 2414.45 676.359 2447.17 679.11 2481.96C679.603 2488.19 677.83 2494.54 676.115 2500.68C674.51 2506.42 672.851 2512.36 673.179 2517.97C673.685 2526.63 674.164 2535.72 674.604 2544.98C674.674 2546.45 675.786 2547.98 676.86 2549.45C677.983 2551 679.044 2552.45 679.111 2553.98C679.764 2568.76 670.102 2581.19 670.004 2581.31L669.854 2581.5Z" fill="#2F2E41"/>
<path d="M542.133 2211.33C543.351 2209.55 544.164 2207.52 544.514 2205.39C544.864 2203.26 544.743 2201.08 544.159 2199.01C543.576 2196.93 542.544 2195 541.136 2193.37C539.728 2191.73 541.968 2192.39 540 2191.5L539.5 2181L541.136 2159.5L521.673 2150.21L515.924 2197.85C514.654 2201.25 514.677 2205 515.988 2208.39C517.299 2211.78 519.808 2214.57 523.039 2216.23C526.269 2217.89 529.998 2218.31 533.517 2217.41C537.036 2216.51 540.102 2214.34 542.133 2211.33Z" fill="#FFB6B6"/>
<path d="M676.114 2237.91C674.032 2237.34 671.851 2237.23 669.724 2237.6C667.598 2237.96 665.577 2238.79 663.804 2240.02C662.031 2241.25 660.55 2242.86 659.464 2244.72C658.379 2246.59 657.715 2248.67 657.521 2250.82L625.325 2260.88L626.668 2281.93L671.935 2267.09C675.567 2267.17 679.105 2265.93 681.879 2263.58C684.652 2261.23 686.469 2257.95 686.984 2254.35C687.499 2250.76 686.677 2247.1 684.674 2244.07C682.67 2241.03 679.625 2238.84 676.114 2237.91Z" fill="#FFB6B6"/>
<path d="M655.108 2272.75L631.046 2281.86L630.431 2283.05C628.956 2285.92 626.404 2288.07 623.337 2289.05C620.271 2290.04 616.94 2289.76 614.078 2288.28L559.994 2308.75C559.994 2308.75 535.841 2284.58 518.645 2263.01L524.505 2226.96C525.863 2218.6 528.748 2210.56 533.016 2203.24C568.282 2210.97 588.526 2260.27 588.526 2260.27L652.085 2248.14L655.108 2272.75Z" fill="#8A3B5A"/>
<path d="M528.555 2171.38C518.854 2174 508.16 2170.52 500.589 2163.91C493.019 2157.3 488.283 2147.94 485.555 2138.27C483.556 2131.19 482.609 2123.32 485.762 2116.68C488.916 2110.03 497.403 2105.54 503.951 2108.9C499.912 2104.19 501.93 2096.41 506.648 2092.38C511.365 2088.36 517.843 2087.2 524.013 2086.57C532.967 2085.66 542.216 2085.55 550.737 2088.45C559.258 2091.36 566.999 2097.7 569.666 2106.29C572.39 2107.56 575.457 2107.89 578.387 2107.23C581.318 2106.57 583.946 2104.95 585.861 2102.64C586.354 2105.3 585.958 2108.04 584.733 2110.46C583.508 2112.87 581.522 2114.81 579.083 2115.98L592.138 2111.74C594.383 2116.5 590.449 2122.38 585.418 2123.9C580.387 2125.42 574.957 2123.76 570.183 2121.56C565.409 2119.36 560.782 2116.58 555.596 2115.72C550.411 2114.87 544.319 2116.53 541.921 2121.21C540.664 2123.66 540.599 2126.53 539.869 2129.18C539.14 2131.84 537.292 2134.59 534.548 2134.81C532.814 2134.94 531.117 2134.02 529.387 2134.21C527.244 2134.44 525.603 2136.38 525.032 2138.46C524.602 2140.58 524.597 2142.77 525.017 2144.89L528.333 2170.23" fill="#3E342D"/>
<path d="M480.549 2428.5C480.542 2428.5 480.534 2428.49 480.527 2428.49L480.221 2428.44L480.132 2428.14C479.018 2424.4 477.6 2420.56 476.229 2416.85C474.21 2411.71 472.506 2406.46 471.124 2401.11C470.037 2396.01 469.284 2390.83 468.868 2385.62C468.486 2381.84 468.09 2377.93 467.418 2374.09C467.119 2372.38 468.251 2370.76 469.345 2369.19C470.36 2367.74 471.318 2366.37 471.117 2365.08C470.911 2363.75 469.441 2362.29 468.02 2360.89C466.461 2359.34 464.849 2357.75 464.621 2356.07C461.515 2333.15 460.069 2310.03 460.295 2286.9C460.616 2254.9 462.063 2233.09 464.594 2222.07C471.399 2192.45 502.842 2187.04 507.764 2186.37C508.288 2184.98 509.094 2183.7 510.132 2182.63C511.169 2181.56 512.416 2180.71 513.795 2180.14C515.174 2179.58 516.655 2179.3 518.146 2179.33C519.637 2179.35 521.106 2179.69 522.462 2180.31L544.803 2190.54C549.335 2192.62 553.39 2195.61 556.717 2199.33C560.044 2203.04 562.571 2207.4 564.141 2212.13L567.46 2222.25L569.122 2290.17L559.91 2338L577.91 2365C481.976 2417.67 480.858 2428.5 480.549 2428.5Z" fill="#8A3B5A"/>
<path d="M633.657 2597.02L639.969 2597.02L664.613 2587L677.822 2597.02H677.823C685.288 2597.02 692.446 2599.99 697.724 2605.26C703.002 2610.54 705.968 2617.7 705.968 2625.17V2626.08L633.659 2626.08L633.657 2597.02Z" fill="#2F2E41"/>
<path d="M684.175 2286.38C682.314 2285.28 680.236 2284.61 678.088 2284.41C675.939 2284.21 673.773 2284.48 671.74 2285.2C669.708 2285.93 667.86 2287.09 666.325 2288.61C664.79 2290.13 663.607 2291.96 662.858 2293.99L629.153 2295.3L624.611 2311L672.529 2313.45C676.012 2314.49 679.753 2314.2 683.043 2312.66C686.333 2311.12 688.943 2308.43 690.378 2305.09C691.814 2301.75 691.975 2298 690.832 2294.55C689.689 2291.1 687.32 2288.2 684.175 2286.38Z" fill="#FFB6B6"/>
<path d="M656.489 2315.15L621.867 2314.71L617.484 2314.65L547.043 2313.77C547.043 2313.77 527.914 2295.52 511.258 2276.73L513.592 2259.84C515.87 2243.27 524.09 2228.09 536.725 2217.13C560.581 2233.07 574.415 2264.62 574.415 2264.62L597.612 2275C613.937 2275.73 629.844 2280.39 643.984 2288.58L651.612 2293L656.489 2315.15Z" fill="#8A3B5A"/>
<path d="M910.91 2613.62L899.39 2616.47L894.65 2606.1L892.068 2618.27L861.514 2625.81C860.049 2626.18 858.508 2626.06 857.114 2625.48C855.72 2624.91 854.547 2623.9 853.766 2622.61C852.985 2621.32 852.637 2619.81 852.773 2618.31C852.909 2616.81 853.521 2615.39 854.521 2614.26L874.762 2591.39L872.048 2580.39L898.09 2575.59L910.91 2613.62Z" fill="#2F2E41"/>
<path d="M788.869 2617.18L777.883 2612.7L780.156 2601.52L770.9 2609.84L741.763 2597.95C740.367 2597.38 739.189 2596.38 738.402 2595.09C737.615 2593.81 737.259 2592.3 737.388 2590.8C737.517 2589.3 738.122 2587.87 739.117 2586.74C740.111 2585.6 741.442 2584.82 742.915 2584.49L772.742 2577.92L777.022 2567.44L800.899 2578.89L788.869 2617.18Z" fill="#2F2E41"/>
<path d="M750.611 2311.5H741.611C731.934 2311.49 722.657 2307.64 715.814 2300.8C708.971 2293.95 705.122 2284.68 705.111 2275V2274.5H787.111V2275C787.1 2284.68 783.251 2293.95 776.409 2300.8C769.566 2307.64 760.288 2311.49 750.611 2311.5Z" fill="#E4E4E4"/>
<path d="M741.611 2261.5C741.611 2263.99 737.111 2266 737.111 2266C737.111 2266 732.611 2263.99 732.611 2261.5C732.611 2259.01 737.111 2257 737.111 2257C737.111 2257 741.611 2259.01 741.611 2261.5Z" fill="#7B5943"/>
<path d="M768.611 2261.5C768.611 2263.99 764.111 2266 764.111 2266C764.111 2266 759.611 2263.99 759.611 2261.5C759.611 2259.01 764.111 2257 764.111 2257C764.111 2257 768.611 2259.01 768.611 2261.5Z" fill="#7B5943"/>
<path d="M750.611 2270.5C750.611 2272.99 746.111 2275 746.111 2275C746.111 2275 741.611 2272.99 741.611 2270.5C741.611 2268.01 746.111 2266 746.111 2266C746.111 2266 750.611 2268.01 750.611 2270.5Z" fill="#7B5943"/>
<path d="M719.111 2252C721.597 2252 723.611 2249.99 723.611 2247.5C723.611 2245.01 721.597 2243 719.111 2243C716.626 2243 714.611 2245.01 714.611 2247.5C714.611 2249.99 716.626 2252 719.111 2252Z" fill="#7B5943"/>
<path d="M653.666 2237.83L724.638 2247.63C725.28 2247.72 725.898 2247.94 726.453 2248.27C727.009 2248.61 727.491 2249.05 727.871 2249.57C728.25 2250.1 728.519 2250.7 728.662 2251.33C728.804 2251.96 728.817 2252.62 728.699 2253.25C728.581 2253.89 728.336 2254.5 727.977 2255.04C727.618 2255.58 727.154 2256.04 726.612 2256.39C726.069 2256.75 725.461 2256.99 724.823 2257.1C724.185 2257.22 723.53 2257.2 722.899 2257.05L653.105 2240.87C652.717 2240.78 652.379 2240.54 652.161 2240.21C651.943 2239.88 651.862 2239.47 651.934 2239.08C652.006 2238.69 652.226 2238.34 652.549 2238.11C652.872 2237.87 653.272 2237.78 653.666 2237.83Z" fill="#E4E4E4"/>
<path d="M1034.05 2117.43C1027.68 2110 1024.65 2100.14 1019.56 2091.71C1014.47 2083.28 1005.61 2075.73 996.25 2077.69C989.798 2079.04 984.811 2084.74 982.287 2091.09C979.763 2097.43 979.29 2104.43 978.847 2111.29C979.004 2097.2 969.719 2083.54 956.929 2079.04C944.14 2074.54 928.834 2079.56 920.797 2090.88C917.29 2087.63 912.712 2085.78 907.931 2085.68C903.15 2085.58 898.499 2087.24 894.859 2090.34C887.67 2096.76 886.079 2108.99 891.366 2117.18C896.653 2125.38 908.102 2128.43 916.503 2123.89L919.473 2126.62C917.801 2132.47 921.044 2139.37 926.494 2141.58C930.913 2143.36 937.153 2143.06 938.806 2147.7C939.962 2150.94 937.802 2154.4 935.504 2156.89C933.207 2159.38 930.479 2161.95 930.203 2165.4C929.786 2170.6 935.159 2174.24 940.043 2175.34C951.82 2177.98 964.888 2172.53 971.676 2162.14C971.807 2161.93 971.95 2161.73 972.103 2161.53C975.912 2156.66 978.687 2151.07 980.26 2145.09C981.833 2139.11 982.17 2132.87 981.251 2126.76C980.869 2124.36 981.254 2122.57 982.91 2122C990.069 2119.54 1010.13 2124.7 1016.2 2129.37C1022.27 2134.03 1027.13 2140.2 1032.97 2145.17C1038.82 2150.13 1046.27 2153.96 1053.7 2152.61C1059.64 2151.53 1064.7 2147.21 1068.1 2142.01C1071.5 2136.8 1073.46 2130.73 1075.22 2124.7C1062.07 2132.29 1044.07 2129.11 1034.05 2117.43Z" fill="#232323"/>
</g>
<ellipse cx="773.5" cy="2623" rx="449.5" ry="33" fill="black" fill-opacity="0.11"/>
<g filter="url(#filter0_f_481_263)">
<circle cx="629" cy="487" r="5" fill="#D9D9D9"/>
</g>
<g filter="url(#filter1_f_481_263)">
<circle cx="420" cy="158" r="5" fill="#D9D9D9"/>
</g>
<g filter="url(#filter2_f_481_263)">
<circle cx="954" cy="877" r="5" fill="#D9D9D9"/>
</g>
<g filter="url(#filter3_f_481_263)">
<circle cx="964" cy="638" r="5" fill="#D9D9D9"/>
</g>
<g filter="url(#filter4_f_481_263)">
<circle cx="913" cy="1328" r="5" fill="#D9D9D9"/>
</g>
<g filter="url(#filter5_f_481_263)">
<circle cx="559" cy="983" r="5" fill="#D9D9D9"/>
</g>
<g filter="url(#filter6_f_481_263)">
<circle cx="164" cy="1089" r="5" fill="#D9D9D9"/>
</g>
<g filter="url(#filter7_f_481_263)">
<circle cx="240" cy="726" r="5" fill="#D9D9D9"/>
</g>
<g filter="url(#filter8_f_481_263)">
<circle cx="127" cy="250" r="5" fill="#D9D9D9"/>
</g>
<g filter="url(#filter9_f_481_263)">
<circle cx="681" cy="199" r="5" fill="#D9D9D9"/>
</g>
<g filter="url(#filter10_f_481_263)">
<circle cx="1235" cy="148" r="5" fill="#D9D9D9"/>
</g>
<g filter="url(#filter11_f_481_263)">
<circle cx="1309" cy="470" r="5" fill="#D9D9D9"/>
</g>
<g filter="url(#filter12_f_481_263)">
<circle cx="1383" cy="792" r="5" fill="#D9D9D9"/>
</g>
<g filter="url(#filter13_f_481_263)">
<circle cx="1279" cy="1267" r="5" fill="#D9D9D9"/>
</g>
<path d="M177.5 877C252.887 877 314 815.887 314 740.5C314 665.113 252.887 604 177.5 604C102.113 604 41 665.113 41 740.5C41 815.887 102.113 877 177.5 877Z" fill="#EDECEC"/>
<path d="M164.083 662.178C172.734 662.178 179.747 655.165 179.747 646.515C179.747 637.864 172.734 630.851 164.083 630.851C155.432 630.851 148.419 637.864 148.419 646.515C148.419 655.165 155.432 662.178 164.083 662.178Z" fill="#CBCBCB"/>
<path d="M190.926 818.823C199.577 818.823 206.59 811.81 206.59 803.159C206.59 794.508 199.577 787.495 190.926 787.495C182.275 787.495 175.262 794.508 175.262 803.159C175.262 811.81 182.275 818.823 190.926 818.823Z" fill="#CBCBCB"/>
<path d="M251.342 727.073C257.521 727.073 262.53 722.064 262.53 715.884C262.53 709.705 257.521 704.696 251.342 704.696C245.163 704.696 240.153 709.705 240.153 715.884C240.153 722.064 245.163 727.073 251.342 727.073Z" fill="#CBCBCB"/>
<path d="M123.799 787.492C143.573 787.492 159.603 771.462 159.603 751.689C159.603 731.915 143.573 715.885 123.799 715.885C104.026 715.885 87.9961 731.915 87.9961 751.689C87.9961 771.462 104.026 787.492 123.799 787.492Z" fill="#CBCBCB"/>
<path opacity="0.8" d="M1149.92 1079.26L1182.89 1040.66L1215.86 1002.06L1234.48 980.269C1235.51 979.063 1233.92 977.182 1232.89 978.388L1199.92 1016.99L1166.95 1055.58L1148.33 1077.37C1147.3 1078.58 1148.89 1080.46 1149.92 1079.26Z" fill="url(#paint1_linear_481_263)"/>
<path opacity="0.8" d="M941.923 1181.26L974.893 1142.66L1007.86 1104.06L1026.48 1082.27C1027.51 1081.06 1025.92 1079.18 1024.89 1080.39L991.917 1118.99L958.946 1157.58L940.334 1179.37C939.304 1180.58 940.893 1182.46 941.923 1181.26Z" fill="url(#paint2_linear_481_263)"/>
<path opacity="0.8" d="M1040.92 1373.26L1073.89 1334.66L1106.86 1296.06L1125.48 1274.27C1126.51 1273.06 1124.92 1271.18 1123.89 1272.39L1090.92 1310.99L1057.95 1349.58L1039.33 1371.37C1038.3 1372.58 1039.89 1374.46 1040.92 1373.26Z" fill="url(#paint3_linear_481_263)"/>
<path opacity="0.8" d="M1256.92 1181.26L1289.89 1142.66L1322.86 1104.06L1341.48 1082.27C1342.51 1081.06 1340.92 1079.18 1339.89 1080.39L1306.92 1118.99L1273.95 1157.58L1255.33 1179.37C1254.3 1180.58 1255.89 1182.46 1256.92 1181.26Z" fill="url(#paint4_linear_481_263)"/>
<path opacity="0.8" d="M743.923 1449.26L776.893 1410.66L809.864 1372.06L828.476 1350.27C829.506 1349.06 827.917 1347.18 826.887 1348.39L793.917 1386.99L760.946 1425.58L742.334 1447.37C741.304 1448.58 742.893 1450.46 743.923 1449.26Z" fill="url(#paint5_linear_481_263)"/>
<path opacity="0.8" d="M1050.92 1651.26L1083.89 1612.66L1116.86 1574.06L1135.48 1552.27C1136.51 1551.06 1134.92 1549.18 1133.89 1550.39L1100.92 1588.99L1067.95 1627.58L1049.33 1649.37C1048.3 1650.58 1049.89 1652.46 1050.92 1651.26Z" fill="url(#paint6_linear_481_263)"/>
</g>
<defs>
<filter id="filter0_f_481_263" x="614" y="472" width="30" height="30" filterUnits="userSpaceOnUse" color-interpolation-filters="sRGB">
<feFlood flood-opacity="0" result="BackgroundImageFix"/>
<feBlend mode="normal" in="SourceGraphic" in2="BackgroundImageFix" result="shape"/>
<feGaussianBlur stdDeviation="5" result="effect1_foregroundBlur_481_263"/>
</filter>
<filter id="filter1_f_481_263" x="405" y="143" width="30" height="30" filterUnits="userSpaceOnUse" color-interpolation-filters="sRGB">
<feFlood flood-opacity="0" result="BackgroundImageFix"/>
<feBlend mode="normal" in="SourceGraphic" in2="BackgroundImageFix" result="shape"/>
<feGaussianBlur stdDeviation="5" result="effect1_foregroundBlur_481_263"/>
</filter>
<filter id="filter2_f_481_263" x="939" y="862" width="30" height="30" filterUnits="userSpaceOnUse" color-interpolation-filters="sRGB">
<feFlood flood-opacity="0" result="BackgroundImageFix"/>
<feBlend mode="normal" in="SourceGraphic" in2="BackgroundImageFix" result="shape"/>
<feGaussianBlur stdDeviation="5" result="effect1_foregroundBlur_481_263"/>
</filter>
<filter id="filter3_f_481_263" x="949" y="623" width="30" height="30" filterUnits="userSpaceOnUse" color-interpolation-filters="sRGB">
<feFlood flood-opacity="0" result="BackgroundImageFix"/>
<feBlend mode="normal" in="SourceGraphic" in2="BackgroundImageFix" result="shape"/>
<feGaussianBlur stdDeviation="5" result="effect1_foregroundBlur_481_263"/>
</filter>
<filter id="filter4_f_481_263" x="898" y="1313" width="30" height="30" filterUnits="userSpaceOnUse" color-interpolation-filters="sRGB">
<feFlood flood-opacity="0" result="BackgroundImageFix"/>
<feBlend mode="normal" in="SourceGraphic" in2="BackgroundImageFix" result="shape"/>
<feGaussianBlur stdDeviation="5" result="effect1_foregroundBlur_481_263"/>
</filter>
<filter id="filter5_f_481_263" x="544" y="968" width="30" height="30" filterUnits="userSpaceOnUse" color-interpolation-filters="sRGB">
<feFlood flood-opacity="0" result="BackgroundImageFix"/>
<feBlend mode="normal" in="SourceGraphic" in2="BackgroundImageFix" result="shape"/>
<feGaussianBlur stdDeviation="5" result="effect1_foregroundBlur_481_263"/>
</filter>
<filter id="filter6_f_481_263" x="149" y="1074" width="30" height="30" filterUnits="userSpaceOnUse" color-interpolation-filters="sRGB">
<feFlood flood-opacity="0" result="BackgroundImageFix"/>
<feBlend mode="normal" in="SourceGraphic" in2="BackgroundImageFix" result="shape"/>
<feGaussianBlur stdDeviation="5" result="effect1_foregroundBlur_481_263"/>
</filter>
<filter id="filter7_f_481_263" x="225" y="711" width="30" height="30" filterUnits="userSpaceOnUse" color-interpolation-filters="sRGB">
<feFlood flood-opacity="0" result="BackgroundImageFix"/>
<feBlend mode="normal" in="SourceGraphic" in2="BackgroundImageFix" result="shape"/>
<feGaussianBlur stdDeviation="5" result="effect1_foregroundBlur_481_263"/>
</filter>
<filter id="filter8_f_481_263" x="112" y="235" width="30" height="30" filterUnits="userSpaceOnUse" color-interpolation-filters="sRGB">
<feFlood flood-opacity="0" result="BackgroundImageFix"/>
<feBlend mode="normal" in="SourceGraphic" in2="BackgroundImageFix" result="shape"/>
<feGaussianBlur stdDeviation="5" result="effect1_foregroundBlur_481_263"/>
</filter>
<filter id="filter9_f_481_263" x="666" y="184" width="30" height="30" filterUnits="userSpaceOnUse" color-interpolation-filters="sRGB">
<feFlood flood-opacity="0" result="BackgroundImageFix"/>
<feBlend mode="normal" in="SourceGraphic" in2="BackgroundImageFix" result="shape"/>
<feGaussianBlur stdDeviation="5" result="effect1_foregroundBlur_481_263"/>
</filter>
<filter id="filter10_f_481_263" x="1220" y="133" width="30" height="30" filterUnits="userSpaceOnUse" color-interpolation-filters="sRGB">
<feFlood flood-opacity="0" result="BackgroundImageFix"/>
<feBlend mode="normal" in="SourceGraphic" in2="BackgroundImageFix" result="shape"/>
<feGaussianBlur stdDeviation="5" result="effect1_foregroundBlur_481_263"/>
</filter>
<filter id="filter11_f_481_263" x="1294" y="455" width="30" height="30" filterUnits="userSpaceOnUse" color-interpolation-filters="sRGB">
<feFlood flood-opacity="0" result="BackgroundImageFix"/>
<feBlend mode="normal" in="SourceGraphic" in2="BackgroundImageFix" result="shape"/>
<feGaussianBlur stdDeviation="5" result="effect1_foregroundBlur_481_263"/>
</filter>
<filter id="filter12_f_481_263" x="1368" y="777" width="30" height="30" filterUnits="userSpaceOnUse" color-interpolation-filters="sRGB">
<feFlood flood-opacity="0" result="BackgroundImageFix"/>
<feBlend mode="normal" in="SourceGraphic" in2="BackgroundImageFix" result="shape"/>
<feGaussianBlur stdDeviation="5" result="effect1_foregroundBlur_481_263"/>
</filter>
<filter id="filter13_f_481_263" x="1264" y="1252" width="30" height="30" filterUnits="userSpaceOnUse" color-interpolation-filters="sRGB">
<feFlood flood-opacity="0" result="BackgroundImageFix"/>
<feBlend mode="normal" in="SourceGraphic" in2="BackgroundImageFix" result="shape"/>
<feGaussianBlur stdDeviation="5" result="effect1_foregroundBlur_481_263"/>
</filter>
<linearGradient id="paint0_linear_481_263" x1="728" y1="3157" x2="728" y2="5.55471e-06" gradientUnits="userSpaceOnUse">
<stop offset="0.25" stop-color="#2F5E76"/>
<stop offset="1" stop-color="#0F2542"/>
</linearGradient>
<linearGradient id="paint1_linear_481_263" x1="1148" y1="1028.82" x2="1234.81" y2="1028.82" gradientUnits="userSpaceOnUse">
<stop stop-color="white"/>
<stop offset="1" stop-color="white" stop-opacity="0"/>
</linearGradient>
<linearGradient id="paint2_linear_481_263" x1="940" y1="1130.82" x2="1026.81" y2="1130.82" gradientUnits="userSpaceOnUse">
<stop stop-color="white"/>
<stop offset="1" stop-color="white" stop-opacity="0"/>
</linearGradient>
<linearGradient id="paint3_linear_481_263" x1="1039" y1="1322.82" x2="1125.81" y2="1322.82" gradientUnits="userSpaceOnUse">
<stop stop-color="white"/>
<stop offset="1" stop-color="white" stop-opacity="0"/>
</linearGradient>
<linearGradient id="paint4_linear_481_263" x1="1255" y1="1130.82" x2="1341.81" y2="1130.82" gradientUnits="userSpaceOnUse">
<stop stop-color="white"/>
<stop offset="1" stop-color="white" stop-opacity="0"/>
</linearGradient>
<linearGradient id="paint5_linear_481_263" x1="742" y1="1398.82" x2="828.81" y2="1398.82" gradientUnits="userSpaceOnUse">
<stop stop-color="white"/>
<stop offset="1" stop-color="white" stop-opacity="0"/>
</linearGradient>
<linearGradient id="paint6_linear_481_263" x1="1049" y1="1600.82" x2="1135.81" y2="1600.82" gradientUnits="userSpaceOnUse">
<stop stop-color="white"/>
<stop offset="1" stop-color="white" stop-opacity="0"/>
</linearGradient>
<clipPath id="clip0_481_263">
<rect width="1456" height="3157" fill="white"/>
</clipPath>
<clipPath id="clip1_481_263">
<rect width="893.68" height="749.53" fill="white" transform="translate(314 1879)"/>
</clipPath>
</defs>
</svg>
