<svg width="64" height="48" viewBox="0 0 64 48" fill="none" xmlns="http://www.w3.org/2000/svg">
<path d="M64 46C64 46.5304 63.7893 47.0391 63.4142 47.4142C63.0391 47.7893 62.5304 48 62 48H2C1.46957 48 0.96086 47.7893 0.585787 47.4142C0.210714 47.0391 0 46.5304 0 46V6C0 5.46957 0.210714 4.96086 0.585787 4.58578C0.96086 4.21071 1.46957 4 2 4H24V2C24 1.46957 24.2107 0.960858 24.5858 0.585785C24.9609 0.210712 25.4696 0 26 0H62C62.5304 0 63.0391 0.210712 63.4142 0.585785C63.7893 0.960858 64 1.46957 64 2V46Z" fill="#F0F1F1"/>
<path d="M26 0C25.4696 0 24.9609 0.210712 24.5858 0.585785C24.2107 0.960858 24 1.46957 24 2V4H2C1.46957 4 0.96086 4.21071 0.585787 4.58578C0.210714 4.96086 0 5.46957 0 6V46C0 46.315 0.0789996 46.609 0.209 46.874L47.083 0H26Z" fill="white"/>
<path d="M18 4H4V1C4 0.734784 4.10536 0.480429 4.29289 0.292892C4.48043 0.105356 4.73478 0 5 0H17C17.2652 0 17.5196 0.105356 17.7071 0.292892C17.8946 0.480429 18 0.734784 18 1V4Z" fill="white"/>
<path d="M60 11C60 11.2652 59.8946 11.5196 59.7071 11.7071C59.5196 11.8946 59.2652 12 59 12H49C48.7348 12 48.4804 11.8946 48.2929 11.7071C48.1054 11.5196 48 11.2652 48 11V5C48 4.73478 48.1054 4.48043 48.2929 4.29289C48.4804 4.10536 48.7348 4 49 4H59C59.2652 4 59.5196 4.10536 59.7071 4.29289C59.8946 4.48043 60 4.73478 60 5V11Z" fill="#40C9E7"/>
<path d="M10 12C11.1046 12 12 11.1046 12 10C12 8.89543 11.1046 8 10 8C8.89543 8 8 8.89543 8 10C8 11.1046 8.89543 12 10 12Z" fill="#5B5C5F"/>
<path d="M6 0H8V4H6V0ZM10 0H12V4H10V0ZM14 0H16V4H14V0Z" fill="#E2E4E5"/>
<path d="M0 16H64V44H0V16Z" fill="#3E3E3F"/>
<path d="M0 16V44H3.083L31.083 16H0Z" fill="#5B5C5F"/>
<path d="M36 44C44.8366 44 52 36.8366 52 28C52 19.1634 44.8366 12 36 12C27.1634 12 20 19.1634 20 28C20 36.8366 27.1634 44 36 44Z" fill="white"/>
<path d="M36 40C42.6274 40 48 34.6274 48 28C48 21.3726 42.6274 16 36 16C29.3726 16 24 21.3726 24 28C24 34.6274 29.3726 40 36 40Z" fill="#21B2D1"/>
<path d="M36 16C29.373 16 24 21.373 24 28C24 31.338 25.365 34.355 27.564 36.531L44.53 19.565C43.416 18.4344 42.088 17.5368 40.6235 16.9248C39.159 16.3127 37.5873 15.9983 36 16Z" fill="#40C9E7"/>
<path d="M16 34C16 34.5304 15.7893 35.0391 15.4142 35.4142C15.0391 35.7893 14.5304 36 14 36C13.4696 36 12.9609 35.7893 12.5858 35.4142C12.2107 35.0391 12 34.5304 12 34V30C12 29.4696 12.2107 28.9609 12.5858 28.5858C12.9609 28.2107 13.4696 28 14 28C14.5304 28 15.0391 28.2107 15.4142 28.5858C15.7893 28.9609 16 29.4696 16 30V34Z" fill="#818284"/>
</svg>
