<svg width="64" height="64" viewBox="0 0 64 64" fill="none" xmlns="http://www.w3.org/2000/svg">
<path d="M47 8H7C5.89543 8 5 8.89543 5 10V16C5 17.1046 5.89543 18 7 18H47C48.1046 18 49 17.1046 49 16V10C49 8.89543 48.1046 8 47 8Z" fill="#47A050"/>
<path d="M38.52 8C37.7327 11.7375 35.9498 15.1926 33.36 18H7C6.46957 18 5.96086 17.7893 5.58579 17.4142C5.21071 17.0391 5 16.5304 5 16V10C5 9.46957 5.21071 8.96086 5.58579 8.58579C5.96086 8.21071 6.46957 8 7 8H38.52Z" fill="#347E3B"/>
<path d="M43 5C43 3.89543 42.1046 3 41 3C39.8954 3 39 3.89543 39 5V11C39 12.1046 39.8954 13 41 13C42.1046 13 43 12.1046 43 11V5Z" fill="#FD9467"/>
<path d="M16 5C16 3.89543 15.1046 3 14 3C12.8954 3 12 3.89543 12 5V11C12 12.1046 12.8954 13 14 13C15.1046 13 16 12.1046 16 11V5Z" fill="#FD9467"/>
<path d="M47 18V57C47 58.0609 46.5786 59.0783 45.8284 59.8284C45.0783 60.5786 44.0609 61 43 61H11C9.93913 61 8.92172 60.5786 8.17157 59.8284C7.42143 59.0783 7 58.0609 7 57V18H47Z" fill="white"/>
<path d="M47 18H7V21H47V18Z" fill="#E6E6E6"/>
<path d="M47 26.1802V44.8402L42.84 49.8402L32.37 54.3502C32.1996 54.424 32.0121 54.4488 31.8283 54.422C31.6446 54.3952 31.4719 54.3178 31.3297 54.1984C31.1875 54.0791 31.0813 53.9224 31.0231 53.7461C30.9649 53.5698 30.9569 53.3808 31 53.2002L33.66 42.0902L47 26.1802Z" fill="#E6E6E6"/>
<path d="M57.7096 27.4099L55.7796 29.7099L48.7796 38.0099L40.9996 47.3299L34.8496 49.9999L36.4096 43.4799L47.9996 29.7199L51.2396 25.8599L53.1696 23.5599C53.3382 23.3581 53.545 23.1916 53.778 23.0698C54.0111 22.948 54.2658 22.8733 54.5278 22.8501C54.7897 22.8269 55.0536 22.8555 55.3045 22.9344C55.5553 23.0133 55.7881 23.1409 55.9896 23.3099L57.5196 24.5999C57.9154 24.9486 58.1575 25.4395 58.1931 25.9658C58.2287 26.4921 58.0549 27.0111 57.7096 27.4099Z" fill="#FF8A8A"/>
<path d="M48.9996 35.5002C48.997 36.3371 48.9335 37.1726 48.8096 38.0002L40.9996 47.3302L34.8496 50.0002L36.4096 43.4802L47.9996 29.7202C48.6791 31.5707 49.0179 33.529 48.9996 35.5002Z" fill="#FD9467"/>
<path d="M57.7104 27.4099L55.7804 29.7099L51.1904 25.8599L53.1204 23.5599C53.289 23.3581 53.4958 23.1916 53.7288 23.0698C53.9619 22.948 54.2167 22.8733 54.4786 22.8501C54.7405 22.8269 55.0045 22.8555 55.2553 22.9344C55.5061 23.0133 55.739 23.1409 55.9404 23.3099L57.4704 24.5999C57.8735 24.9416 58.1251 25.4289 58.17 25.9554C58.215 26.4819 58.0498 27.0048 57.7104 27.4099Z" fill="#347E3B"/>
<path d="M40.9996 47.33L34.8496 50L36.4096 43.48L40.9996 47.33Z" fill="white"/>
<path d="M58.11 23.83L56.58 22.55C56.2782 22.2968 55.9294 22.1056 55.5536 21.9872C55.1779 21.8688 54.7825 21.8256 54.39 21.86C54.003 21.8952 53.6269 22.0071 53.2835 22.1891C52.9401 22.371 52.6364 22.6195 52.39 22.92L50.46 25.21L48 28.1V18.82C48.5835 18.6137 49.089 18.2319 49.4471 17.7271C49.8051 17.2222 49.9983 16.6189 50 16V10C50 9.20435 49.6839 8.44129 49.1213 7.87868C48.5587 7.31607 47.7956 7 47 7H44V5C44 4.20435 43.6839 3.44129 43.1213 2.87868C42.5587 2.31607 41.7956 2 41 2C40.2044 2 39.4413 2.31607 38.8787 2.87868C38.3161 3.44129 38 4.20435 38 5V7H17V5C17 4.20435 16.6839 3.44129 16.1213 2.87868C15.5587 2.31607 14.7956 2 14 2C13.2044 2 12.4413 2.31607 11.8787 2.87868C11.3161 3.44129 11 4.20435 11 5V7H7C6.20435 7 5.44129 7.31607 4.87868 7.87868C4.31607 8.44129 4 9.20435 4 10V16C4.00174 16.6189 4.19488 17.2222 4.55294 17.7271C4.911 18.2319 5.41645 18.6137 6 18.82V57C6 58.3261 6.52678 59.5979 7.46447 60.5355C8.40215 61.4732 9.67392 62 11 62H43C43.6566 62 44.3068 61.8707 44.9134 61.6194C45.52 61.3681 46.0712 60.9998 46.5355 60.5355C46.9998 60.0712 47.3681 59.52 47.6194 58.9134C47.8707 58.3068 48 57.6566 48 57V40.55L58.48 28.06C58.7338 27.7581 58.9255 27.4091 59.0443 27.033C59.163 26.657 59.2065 26.2612 59.1721 25.8683C59.1377 25.4754 59.0262 25.0931 58.844 24.7434C58.6617 24.3936 58.4123 24.0833 58.11 23.83ZM40.88 45.92L37.81 43.35L51.31 27.26L54.38 29.84L40.88 45.92ZM37 45.28L39.12 47.06L36.28 48.29L37 45.28ZM40 5C40 4.73478 40.1054 4.48043 40.2929 4.29289C40.4804 4.10536 40.7348 4 41 4C41.2652 4 41.5196 4.10536 41.7071 4.29289C41.8946 4.48043 42 4.73478 42 5V11C42 11.2652 41.8946 11.5196 41.7071 11.7071C41.5196 11.8946 41.2652 12 41 12C40.7348 12 40.4804 11.8946 40.2929 11.7071C40.1054 11.5196 40 11.2652 40 11V5ZM13 5C13 4.73478 13.1054 4.48043 13.2929 4.29289C13.4804 4.10536 13.7348 4 14 4C14.2652 4 14.5196 4.10536 14.7071 4.29289C14.8946 4.48043 15 4.73478 15 5V11C15 11.2652 14.8946 11.5196 14.7071 11.7071C14.5196 11.8946 14.2652 12 14 12C13.7348 12 13.4804 11.8946 13.2929 11.7071C13.1054 11.5196 13 11.2652 13 11V5ZM6 10C6 9.73478 6.10536 9.48043 6.29289 9.29289C6.48043 9.10536 6.73478 9 7 9H11V11C11 11.7956 11.3161 12.5587 11.8787 13.1213C12.4413 13.6839 13.2044 14 14 14C14.7956 14 15.5587 13.6839 16.1213 13.1213C16.6839 12.5587 17 11.7956 17 11V9H38V11C38 11.7956 38.3161 12.5587 38.8787 13.1213C39.4413 13.6839 40.2044 14 41 14C41.7956 14 42.5587 13.6839 43.1213 13.1213C43.6839 12.5587 44 11.7956 44 11V9H47C47.2652 9 47.5196 9.10536 47.7071 9.29289C47.8946 9.48043 48 9.73478 48 10V16C48 16.2652 47.8946 16.5196 47.7071 16.7071C47.5196 16.8946 47.2652 17 47 17H7C6.73478 17 6.48043 16.8946 6.29289 16.7071C6.10536 16.5196 6 16.2652 6 16V10ZM46 57C46 57.7956 45.6839 58.5587 45.1213 59.1213C44.5587 59.6839 43.7956 60 43 60H11C10.2044 60 9.44129 59.6839 8.87868 59.1213C8.31607 58.5587 8 57.7956 8 57V19H46V30.49L35.64 42.83C35.5455 42.9423 35.4802 43.0763 35.45 43.22L33.89 49.75C33.8465 49.9309 33.8544 50.1203 33.9127 50.297C33.971 50.4736 34.0774 50.6305 34.22 50.75C34.4046 50.8976 34.6336 50.9787 34.87 50.98C35.0071 50.9776 35.1426 50.9505 35.27 50.9L41.42 48.23C41.5603 48.1708 41.6839 48.0781 41.78 47.96L46.01 42.96L46 57ZM57 26.77L55.66 28.3L52.6 25.73L53.88 24.2C54.0513 23.9978 54.2959 23.872 54.56 23.85C54.6908 23.8385 54.8226 23.8529 54.9479 23.8924C55.0731 23.9319 55.1894 23.9956 55.29 24.08L56.83 25.36C56.9342 25.4411 57.0213 25.542 57.0864 25.6569C57.1514 25.7718 57.193 25.8985 57.2088 26.0296C57.2246 26.1607 57.2143 26.2936 57.1784 26.4207C57.1426 26.5478 57.082 26.6665 57 26.77Z" fill="#393B3C"/>
<path d="M14 27H40C40.2652 27 40.5196 26.8946 40.7071 26.7071C40.8946 26.5196 41 26.2652 41 26C41 25.7348 40.8946 25.4804 40.7071 25.2929C40.5196 25.1054 40.2652 25 40 25H14C13.7348 25 13.4804 25.1054 13.2929 25.2929C13.1054 25.4804 13 25.7348 13 26C13 26.2652 13.1054 26.5196 13.2929 26.7071C13.4804 26.8946 13.7348 27 14 27Z" fill="#93642D"/>
<path d="M14 35H38C38.2652 35 38.5196 34.8946 38.7071 34.7071C38.8946 34.5196 39 34.2652 39 34C39 33.7348 38.8946 33.4804 38.7071 33.2929C38.5196 33.1054 38.2652 33 38 33H14C13.7348 33 13.4804 33.1054 13.2929 33.2929C13.1054 33.4804 13 33.7348 13 34C13 34.2652 13.1054 34.5196 13.2929 34.7071C13.4804 34.8946 13.7348 35 14 35ZM32 41H14C13.7348 41 13.4804 41.1054 13.2929 41.2929C13.1054 41.4804 13 41.7348 13 42C13 42.2652 13.1054 42.5196 13.2929 42.7071C13.4804 42.8946 13.7348 43 14 43H32C32.2652 43 32.5196 42.8946 32.7071 42.7071C32.8946 42.5196 33 42.2652 33 42C33 41.7348 32.8946 41.4804 32.7071 41.2929C32.5196 41.1054 32.2652 41 32 41ZM30 49H14C13.7348 49 13.4804 49.1054 13.2929 49.2929C13.1054 49.4804 13 49.7348 13 50C13 50.2652 13.1054 50.5196 13.2929 50.7071C13.4804 50.8946 13.7348 51 14 51H30C30.2652 51 30.5196 50.8946 30.7071 50.7071C30.8946 50.5196 31 50.2652 31 50C31 49.7348 30.8946 49.4804 30.7071 49.2929C30.5196 49.1054 30.2652 49 30 49Z" fill="#347E3B"/>
</svg>
