<svg width="146" height="125" viewBox="0 0 146 125" fill="none" xmlns="http://www.w3.org/2000/svg">
<circle cx="59.5" cy="58.5" r="58.5" fill="#80CCF8"/>
<path d="M17.4825 17.5L24.5 11.5L29 8.5L32.5 6.5L40.5 3L48.5 1L48.4825 1.5L48.5 23.0085V26.5968C48.5 29.8577 48.0799 33.105 47.25 36.2585V36.2585L46 41.0085L43.1563 44.1107C41.4386 45.9845 40.4229 48.3955 40.2819 50.9335L39.6272 62.7197C39.5453 64.1936 38.9229 65.5856 37.879 66.6295L36.8787 67.6298C36.3161 68.1924 35.553 68.5085 34.7574 68.5085H29.5V68.5085C24.2388 65.5491 18.3614 63.8541 12.3323 63.5575L1.08732 63.0043C1.03755 63.0018 0.9975 62.9625 0.994184 62.9128V62.9128C0.666167 57.9925 0.989906 53.0505 1.95699 48.2151L2 48L2.5 45.5L3 43.5L3.5 41.5L4 40L4.5 38.5L5 37L8 30.5L11.5 25L14.5 21L17.4825 17.5Z" fill="#A0E557"/>
<path d="M45.8199 82.9072C47.9146 81.3361 50.3877 80.3474 52.9882 80.0415L54.5834 79.8538C56.53 79.6248 58.4992 79.6721 60.4325 79.9943L63.5293 80.5105C67.2945 81.138 71.1337 79.9368 73.8697 77.2751L77.5698 73.6755C78.5275 72.7438 79.6444 71.9913 80.8676 71.4537L81.6752 71.0988C82.5607 70.7096 83.5174 70.5086 84.4847 70.5086V70.5086C85.8126 70.5086 87.113 70.8873 88.2333 71.6002L89.7576 72.5702C91.2462 73.5175 92.5075 74.7814 93.4518 76.2719L105 94.5001L97.5004 103L87.5005 110L77.0005 114L66.0005 116.5L55.5005 117L46.0005 115L39.5005 112.75L36.0005 112L35.0005 111.5L34.0005 111L33.0005 110.5V110.5C34.321 108.849 35.3048 106.956 35.8962 104.926L36.018 104.509L37.7524 97.2237C38.2611 95.0874 39.0139 93.0167 39.996 91.0525L41.4516 88.1412C42.4817 86.0811 43.9772 84.2891 45.8199 82.9072V82.9072Z" fill="#A0E557"/>
<path d="M67.081 63.8278L119.145 48.2699L93.1132 56.0488L67.081 63.8278ZM111.405 16.674C110.175 14.6538 107.507 14.0181 105.495 15.276L92.1074 23.5152L67.8799 11.5619L63.0636 14.5234L80.2793 30.7809L67.7494 38.4951L61.0901 35.8882L57.4361 38.1442L65.0109 45.3131L68.2099 48.3271L72.2504 45.866L85.6301 37.5994L96.6003 30.8588L109.996 22.647C112.019 21.3261 112.636 18.6943 111.405 16.674Z" fill="#353535"/>
<path d="M33 110V110C36.3291 111.665 39.7722 113.091 43.3033 114.268L44 114.5V114.5C47.6304 115.49 51.3843 116.173 55.1315 116.518V116.518" stroke="#A0E557"/>
<path d="M55.0058 117.265L61.9141 117.016L69.6956 115.835V115.835C74.322 114.92 78.8256 113.467 83.1144 111.506L87.4998 109.5" stroke="#A0E557"/>
<path d="M77.7311 113.682L84.0106 110.792L85.9065 109.976C88.9578 108.663 91.8423 106.993 94.4996 105V105L98.4996 101.5L101 99.0002L105 94.5002" stroke="#A0E557"/>
<path d="M79.7604 93.7468C80.7462 90.547 82.3582 84.5189 83.3029 82.2238C84.0662 80.3718 84.7793 78.5107 85.6554 77.6334C86.5315 76.7577 88.0216 76.8262 88.9205 77.7218C88.9205 77.7218 92.6809 80.2713 94.0293 81.9603C95.719 83.3036 98.2726 87.073 98.2726 87.073C99.1716 87.9716 99.2402 89.4611 98.3641 90.3368C97.4865 91.2125 95.6246 91.9253 93.7703 92.6883C91.4757 93.6326 85.4436 95.2393 82.2424 96.2293C81.6969 96.3968 79.5928 94.2936 79.7604 93.7468Z" fill="#D99E82"/>
<path d="M125.175 38.6611C124.758 39.0777 124.427 39.5724 124.201 40.1169C123.976 40.6613 123.86 41.2449 123.86 41.8342C123.86 42.4236 123.976 43.0071 124.201 43.5516C124.427 44.0961 124.758 44.5908 125.175 45.0074L131.524 51.3538C131.941 51.7706 132.436 52.1012 132.98 52.3268C133.525 52.5524 134.109 52.6685 134.698 52.6685C135.288 52.6685 135.872 52.5524 136.416 52.3268C136.961 52.1012 137.456 51.7706 137.873 51.3538L144.222 45.0074C144.639 44.5908 144.97 44.0961 145.195 43.5516C145.421 43.0071 145.537 42.4236 145.537 41.8342C145.537 41.2449 145.421 40.6613 145.195 40.1169C144.97 39.5724 144.639 39.0777 144.222 38.6611L137.873 32.3147C137.456 31.8979 136.961 31.5673 136.416 31.3417C135.872 31.1161 135.288 31 134.698 31C134.109 31 133.525 31.1161 132.98 31.3417C132.436 31.5673 131.941 31.8979 131.524 32.3147L125.175 38.6611Z" fill="#EA596E"/>
<path d="M85.6548 77.6329L92.0084 83.9838L98.3513 90.3271L134.862 54.1912L122.163 41.5L85.6548 77.6329Z" fill="#FFCC4D"/>
<path d="M84.5498 95.5208C84.5498 95.5208 80.4223 97.7885 79.3069 96.6737C78.1901 95.5573 80.471 91.4422 80.471 91.4422C80.471 91.4422 84.3837 91.5153 84.5498 95.5208Z" fill="#292F33"/>
<path d="M129.936 33.9013L142.634 46.594L134.699 54.5273L121.999 41.8346L129.936 33.9013Z" fill="#CCD6DD"/>
<path d="M126.763 37.0734L139.461 49.7661L141.049 48.1791L128.351 35.4864L126.763 37.0734Z" fill="#99AAB5"/>
<path d="M123.589 40.2482L136.287 52.9424L137.873 51.3554L125.177 38.6612L123.589 40.2482Z" fill="#99AAB5"/>
</svg>
