<svg width="138" height="115" viewBox="0 0 138 115" fill="none" xmlns="http://www.w3.org/2000/svg">
<g clip-path="url(#clip0_498_609)">
<path d="M125.796 68.6855H100.021V136.136H125.796V68.6855Z" fill="#B9C1C9"/>
<path d="M122.054 57.4316H103.764V68.6866H122.054V57.4316Z" fill="#B9C1C9"/>
<path opacity="0.08" d="M122.054 66.8643H103.764V68.6863H122.054V66.8643Z" fill="#2C2C34"/>
<path d="M118.644 48H107.174V57.432H118.644V48Z" fill="#B9C1C9"/>
<path opacity="0.08" d="M118.644 56.0811H107.174V57.4321H118.644V56.0811Z" fill="#2C2C34"/>
<path d="M107.911 71.7969H102.741V76.9559H107.911V71.7969Z" fill="#94A3AF"/>
<path d="M115.494 71.7969H110.324V76.9559H115.494V71.7969Z" fill="#94A3AF"/>
<path d="M123.076 71.7969H117.906V76.9559H123.076V71.7969Z" fill="#94A3AF"/>
<path d="M107.911 79.8916H102.741V85.0506H107.911V79.8916Z" fill="#94A3AF"/>
<path d="M115.494 79.8916H110.324V85.0506H115.494V79.8916Z" fill="#94A3AF"/>
<path d="M123.076 79.8916H117.906V85.0506H123.076V79.8916Z" fill="#94A3AF"/>
<path d="M107.911 87.9873H102.741V93.1463H107.911V87.9873Z" fill="#94A3AF"/>
<path d="M115.494 87.9873H110.324V93.1463H115.494V87.9873Z" fill="#94A3AF"/>
<path d="M123.076 87.9873H117.906V93.1463H123.076V87.9873Z" fill="#94A3AF"/>
<path d="M107.911 96.0811H102.741V101.24H107.911V96.0811Z" fill="#94A3AF"/>
<path d="M115.494 96.0811H110.324V101.24H115.494V96.0811Z" fill="#94A3AF"/>
<path d="M123.076 96.0811H117.906V101.24H123.076V96.0811Z" fill="#94A3AF"/>
<path d="M107.911 104.176H102.741V109.335H107.911V104.176Z" fill="#94A3AF"/>
<path d="M115.494 104.176H110.324V109.335H115.494V104.176Z" fill="#94A3AF"/>
<path d="M123.076 104.176H117.906V109.335H123.076V104.176Z" fill="#94A3AF"/>
<path d="M107.911 112.27H102.741V117.429H107.911V112.27Z" fill="#94A3AF"/>
<path d="M115.494 112.27H110.324V117.429H115.494V112.27Z" fill="#94A3AF"/>
<path d="M123.076 112.27H117.906V117.429H123.076V112.27Z" fill="#94A3AF"/>
<path opacity="0.08" d="M104.724 68.6855H100.98V172.839H104.724V68.6855Z" fill="#2C2C34"/>
<path d="M87.4047 61.9395H50.5947V169.188H87.4047V61.9395Z" fill="#DADFE8"/>
<path opacity="0.08" d="M87.4047 61.9395H50.5947V64.0475H87.4047V61.9395Z" fill="#2C2C34"/>
<path d="M88.9673 57.4316H49.0312V61.9396H88.9673V57.4316Z" fill="#807F84"/>
<path d="M102.582 68.6738H87.4043V73.1818H102.582V68.6738Z" fill="#807F84"/>
<path d="M50.5945 73.1816H37.0195V169.189H50.5945V73.1816Z" fill="#CED4DD"/>
<path d="M100.979 73.1816H87.4043V169.189H100.979V73.1816Z" fill="#CED4DD"/>
<path opacity="0.08" d="M100.979 73.1816H87.4043V75.2896H100.979V73.1816Z" fill="#2C2C34"/>
<path d="M102.582 68.6738H87.4043V73.1818H102.582V68.6738Z" fill="#807F84"/>
<path opacity="0.08" d="M100.979 73.1816H87.4043V75.2896H100.979V73.1816Z" fill="#2C2C34"/>
<path d="M50.594 68.6738H35.416V73.1818H50.594V68.6738Z" fill="#807F84"/>
<path opacity="0.08" d="M50.5945 73.1816H37.0195V75.2896H50.5945V73.1816Z" fill="#2C2C34"/>
<path opacity="0.08" d="M89.2683 73.1816H87.4043V169.189H89.2683V73.1816Z" fill="#2C2C34"/>
<path opacity="0.08" d="M50.5945 73.1816H48.7305V169.189H50.5945V73.1816Z" fill="#2C2C34"/>
<path d="M76.9098 74.2388H61.0908V169.193H76.9098V74.2388Z" fill="#69B0E0"/>
<path d="M69.544 84.6816H68.457V169.192H69.544V84.6816Z" fill="#429ED1"/>
<path d="M76.9088 84.6816H61.0908V85.7686H76.9088V84.6816Z" fill="#429ED1"/>
<path d="M76.9088 91.3164H61.0908V92.4034H76.9088V91.3164Z" fill="#429ED1"/>
<path d="M76.9088 97.9507H61.0908V99.0377H76.9088V97.9507Z" fill="#429ED1"/>
<path d="M76.9088 104.585H61.0908V105.672H76.9088V104.585Z" fill="#429ED1"/>
<path d="M76.9088 111.22H61.0908V112.307H76.9088V111.22Z" fill="#429ED1"/>
<path d="M62.1778 74.2397H61.0908V169.192H62.1778V74.2397Z" fill="white"/>
<path d="M76.9088 74.2388H61.0908V75.3258H76.9088V74.2388Z" fill="white"/>
<path d="M76.9093 74.2397H75.8223V169.192H76.9093V74.2397Z" fill="white"/>
<path d="M84.3602 76.2637H79.9482V83.8127H84.3602V76.2637Z" fill="#69B0E0"/>
<path d="M84.7239 84.1768H79.585V75.897H84.7239V84.1768ZM80.3203 83.4415H83.9886V76.6323H80.3203V83.4415Z" fill="white"/>
<path d="M84.3602 88.1719H79.9482V95.7209H84.3602V88.1719Z" fill="#69B0E0"/>
<path d="M84.7239 96.085H79.585V87.8052H84.7239V96.085ZM80.3203 95.3497H83.9886V88.5405H80.3203V95.3497Z" fill="white"/>
<path d="M84.3602 100.08H79.9482V107.629H84.3602V100.08Z" fill="#69B0E0"/>
<path d="M84.7239 107.993H79.585V99.7134H84.7239V107.993ZM80.3203 107.258H83.9886V100.449H80.3203V107.258Z" fill="white"/>
<path d="M84.3602 111.988H79.9482V119.537H84.3602V111.988Z" fill="#69B0E0"/>
<path d="M84.7239 119.901H79.585V111.621H84.7239V119.901ZM80.3203 119.166H83.9886V112.356H80.3203V119.166Z" fill="white"/>
<path d="M58.0507 76.2637H53.6387V83.8127H58.0507V76.2637Z" fill="#69B0E0"/>
<path d="M58.4144 84.1768H53.2754V75.897H58.4144V84.1768ZM54.0107 83.4415H57.6791V76.6323H54.0107V83.4415Z" fill="white"/>
<path d="M58.0507 88.1714H53.6387V95.7204H58.0507V88.1714Z" fill="#69B0E0"/>
<path d="M58.4144 96.085H53.2754V87.8052H58.4144V96.085ZM54.0107 95.3497H57.6791V88.5405H54.0107V95.3497Z" fill="white"/>
<path d="M58.0507 100.08H53.6387V107.629H58.0507V100.08Z" fill="#69B0E0"/>
<path d="M58.4144 107.993H53.2754V99.7129H58.4144V107.993ZM54.0107 107.257H57.6791V100.448H54.0107V107.257Z" fill="white"/>
<path d="M58.0507 111.987H53.6387V119.536H58.0507V111.987Z" fill="#69B0E0"/>
<path d="M58.4144 119.901H53.2754V111.621H58.4144V119.901ZM54.0107 119.166H57.6791V112.356H54.0107V119.166Z" fill="white"/>
<path d="M75.3009 66.1523H63.7109V71.0693H75.3009V66.1523Z" fill="#69B0E0"/>
<path d="M75.6651 65.7886V71.4326H63.3447V65.7886H75.6651ZM74.9298 70.6973V66.5239H64.08V70.6973H74.9298Z" fill="white"/>
<path d="M96.9937 78.5669H91.3887V88.1579H96.9937V78.5669Z" fill="#69B0E0"/>
<path d="M97.457 88.621H90.9277V78.1011H97.457V88.621ZM91.862 87.6867H96.5228V79.0353H91.862V87.6867Z" fill="white"/>
<path d="M96.9937 93.6968H91.3887V103.288H96.9937V93.6968Z" fill="#69B0E0"/>
<path d="M97.457 103.751H90.9277V93.231H97.457V103.751ZM91.862 102.817H96.5228V94.1652H91.862V102.817Z" fill="white"/>
<path d="M96.9937 108.826H91.3887V118.417H96.9937V108.826Z" fill="#69B0E0"/>
<path d="M97.457 118.88H90.9277V108.36H97.457V118.88ZM91.862 117.946H96.5228V109.295H91.862V117.946Z" fill="white"/>
<path d="M46.6079 78.5669H41.0029V88.1579H46.6079V78.5669Z" fill="#69B0E0"/>
<path d="M47.0713 88.621H40.542V78.1011H47.0713V88.621ZM41.4762 87.6867H46.1371V79.0353H41.4762V87.6867Z" fill="white"/>
<path d="M46.6079 93.6968H41.0029V103.288H46.6079V93.6968Z" fill="#69B0E0"/>
<path d="M47.0713 103.751H40.542V93.231H47.0713V103.751ZM41.4762 102.817H46.1371V94.1652H41.4762V102.817Z" fill="white"/>
<path d="M46.6079 108.826H41.0029V118.417H46.6079V108.826Z" fill="#69B0E0"/>
<path d="M47.0713 118.88H40.542V108.36H47.0713V118.88ZM41.4762 117.946H46.1371V109.295H41.4762V117.946Z" fill="white"/>
<path d="M33.3202 71.2905H6.74316V172.84H33.3202V71.2905Z" fill="#2877A0"/>
<path d="M29.4615 64.9766H10.6025V71.2906H29.4615V64.9766Z" fill="#2877A0"/>
<path d="M26.4011 56.9326H13.6621V64.9766H26.4011V56.9326Z" fill="#2877A0"/>
<path opacity="0.08" d="M26.4011 62.4556H13.6621V64.9766H26.4011V62.4556Z" fill="#2C2C34"/>
<path opacity="0.08" d="M29.4615 69.4116H10.6025V71.2906H29.4615V69.4116Z" fill="#2C2C34"/>
<path d="M30.8696 75.2827H9.18164V77.5287H30.8696V75.2827Z" fill="#A1E1FE"/>
<path d="M30.8696 80.3555H9.18164V82.6015H30.8696V80.3555Z" fill="#A1E1FE"/>
<path d="M30.8696 85.4297H9.18164V87.6757H30.8696V85.4297Z" fill="#A1E1FE"/>
<path d="M30.8696 90.5024H9.18164V92.7484H30.8696V90.5024Z" fill="#A1E1FE"/>
<path d="M30.8696 95.5757H9.18164V97.8217H30.8696V95.5757Z" fill="#A1E1FE"/>
<path d="M30.8696 100.648H9.18164V102.894H30.8696V100.648Z" fill="#A1E1FE"/>
<path d="M30.8696 105.723H9.18164V107.969H30.8696V105.723Z" fill="#A1E1FE"/>
<path d="M30.8696 110.795H9.18164V113.041H30.8696V110.795Z" fill="#A1E1FE"/>
<path d="M79.5 21L11 23" stroke="url(#paint0_linear_498_609)" stroke-linecap="round"/>
<path d="M80.144 18.6773L96.6844 17.2006L112.642 16.7179C113.273 16.6988 113.904 16.7538 114.522 16.8817L114.575 16.8926C115.274 17.0374 115.957 17.2575 116.609 17.549L116.906 17.6816C117.28 17.8487 117.626 18.0714 117.934 18.3422V18.3422C118.297 18.6619 118.582 19.0608 118.766 19.508L118.817 19.6315L118.894 19.9281C118.955 20.1637 118.953 20.4113 118.887 20.6455V20.6455C118.806 20.9331 118.641 21.1902 118.415 21.3845L118.138 21.6213C117.756 21.9485 117.314 22.1992 116.838 22.3595L115.26 22.8901C114.442 23.165 113.602 23.3685 112.749 23.4983L106.084 24.5131L93.9738 25.5642L89.6412 25.1045L84.3088 24.4139L75.3371 22.2419L75.2193 19.4199L80.144 18.6773Z" fill="#E4E4E4"/>
<path d="M73.9092 11.6479L76.7914 11.4963L82.0601 16.2896C82.5281 16.7155 83.0497 17.0784 83.6117 17.3692V17.3692C84.0493 17.5957 84.5088 17.7771 84.9831 17.9107L86.196 18.2523L76.834 19.2663L73.9092 11.6479Z" fill="#656565"/>
<path d="M90.4809 14.7435L96.397 17.3224L89.6209 17.7971L88.5992 17.1037L85.884 15.0421L90.4809 14.7435Z" fill="#656565"/>
<path d="M84.7383 33.5098L92.9129 23.3893L104.462 22.89L92.8807 30.8847L89.5175 33.284L84.7383 33.5098Z" fill="#656565"/>
<path d="M77.3073 22.087L82.7106 21.9863L76.8925 24.0999L73.9634 24.2383L77.3073 22.087Z" fill="#656565"/>
<path d="M116.217 18.2399L117.712 18.1538V18.1538C118.018 18.3742 118.28 18.6506 118.484 18.9684L118.493 18.9822L117.261 19.3958L115.794 19.7432L116.217 18.2399Z" fill="#69B0E0"/>
</g>
<defs>
<linearGradient id="paint0_linear_498_609" x1="11" y1="22" x2="72" y2="22" gradientUnits="userSpaceOnUse">
<stop offset="0.283201" stop-color="white" stop-opacity="0.05"/>
<stop offset="1" stop-color="white"/>
</linearGradient>
<clipPath id="clip0_498_609">
<rect width="138" height="115" fill="white"/>
</clipPath>
</defs>
</svg>
