<svg width="327" height="274" viewBox="0 0 327 274" fill="none" xmlns="http://www.w3.org/2000/svg">
<path d="M149.5 127.5L85.5 104L75.5 238L149.5 272V127.5Z" fill="#44C868"/>
<path d="M25 138L85.5 104L76 239L0 274L25 138Z" fill="#4CE166"/>
<path d="M149 128.5L209 104.5L218.5 239L149.5 272L149 128.5Z" fill="#4CE166"/>
<path d="M268.5 138L208 104L217.5 239L293.5 274L268.5 138Z" fill="#44C868"/>
<path d="M149.5 231.5L176 259.5L149.5 272L147 258L149.5 231.5Z" fill="#FFDB56"/>
<path d="M103 161L149.5 231.5L149.5 272L80.5 168L103 161Z" fill="#FFBB24"/>
<path d="M18 175.5L83 142.5L81 168.5L13 202.5L18 175.5Z" fill="#FFDB56"/>
<path d="M211.5 145L214 174.5L186 154.5L211.5 145Z" fill="#FFDB56"/>
<path d="M83 142.5L149.5 151V173.5L81 169L83 142.5Z" fill="#FFBB24"/>
<path d="M210.999 144.001L286 234L293.001 271.5L213.499 174L210.999 144.001Z" fill="#FFBB24"/>
<path d="M149 151L211 123V146L149 173.5V151Z" fill="#FFDB56"/>
<path d="M211 123L237 120.5L268.5 138L211 145.5V123Z" fill="#FFBB24"/>
<path d="M13 202L81 168.5L77 238.5L0 274L13 202Z" fill="#A8EEFC"/>
<path d="M81 168.5L118.5 223.5L149.5 272L76.5 238.5L81 168.5Z" fill="#1EA4E9"/>
<path d="M268.5 138L275 171.5L286.5 234.499L212 145.499L268.5 138Z" fill="#1EA4E9"/>
<path d="M148 0C114.868 0 88 28.284 88 63.168C88 98.052 148 168 148 168C148 168 208 98.052 208 63.168C208 28.284 181.132 0 148 0ZM148 35.1C153.303 35.1 158.39 37.3172 162.141 41.2641C165.892 45.211 168.001 50.5646 168.004 56.148C168.004 61.7335 165.896 67.0902 162.145 71.0397C158.393 74.9892 153.305 77.208 148 77.208C142.695 77.208 137.607 74.9892 133.855 71.0397C130.104 67.0902 127.996 61.7335 127.996 56.148C127.999 50.5646 130.108 45.211 133.859 41.2641C137.61 37.3172 142.697 35.1 148 35.1Z" fill="#F05542"/>
</svg>
