<svg width="122" height="125" viewBox="0 0 122 125" fill="none" xmlns="http://www.w3.org/2000/svg">
<circle cx="59" cy="58.5" r="58.5" fill="#80CCF8"/>
<path d="M16.9825 17.5L24 11.5L28.5 8.5L32 6.5L40 3L48 1L56.9187 0.00903344C56.9728 0.00302114 57.0273 0.00143791 57.0817 0.00429941L66.4093 0.495226C66.4696 0.498402 66.5296 0.507041 66.5884 0.521038L76.9285 2.98297C76.9761 2.99431 77.0228 3.00913 77.0683 3.0273L84.7088 6.0835C85.5428 6.41714 85.5481 7.59595 84.7171 7.93708L48 23.0085V26.5968C48 29.8577 47.5799 33.105 46.75 36.2585V36.2585L45.5 41.0085L42.8913 43.8544C41.0316 45.8831 40 48.5352 40 51.2873V63.6891C40 64.5583 39.8111 65.4172 39.4465 66.2062L37.8048 69.7585C37.3141 70.8202 36.2512 71.5 35.0816 71.5H29.5V71.5C23.997 66.6499 17.01 63.8122 9.68353 63.4518L0.587324 63.0043C0.537547 63.0018 0.4975 62.9625 0.494184 62.9128V62.9128C0.166167 57.9925 0.489906 53.0505 1.45699 48.2151L1.5 48L2 45.5L2.5 43.5L3 41.5L3.5 40L4 38.5L4.5 37L7.5 30.5L11 25L14 21L16.9825 17.5Z" fill="#A0E557"/>
<path d="M45.3199 82.9072C47.4146 81.3361 49.8877 80.3474 52.4882 80.0415L54.0834 79.8538C56.03 79.6248 57.9992 79.6721 59.9325 79.9943L63.0293 80.5105C66.7945 81.138 70.6337 79.9368 73.3697 77.2751L77.0698 73.6755C78.0275 72.7438 79.1444 71.9913 80.3676 71.4537L81.1752 71.0988C82.0607 70.7096 83.0174 70.5086 83.9847 70.5086V70.5086C85.3126 70.5086 86.613 70.8873 87.7333 71.6002L89.3814 72.649C90.7903 73.5455 92.3707 74.1381 94.0216 74.389L114.5 77.5L107.5 91L97.0004 103L87.0005 110L76.5005 114L65.5005 116.5L55.0005 117L45.5005 115L39.0005 112.75L35.5005 112L34.5005 111.5L33.5005 111L32.5005 110.5V110.5C33.821 108.849 34.8048 106.956 35.3962 104.926L35.518 104.509L37.2524 97.2237C37.7611 95.0874 38.5139 93.0167 39.496 91.0525L40.9516 88.1412C41.9817 86.0811 43.4772 84.2891 45.3199 82.9072V82.9072Z" fill="#A0E557"/>
<path d="M32.5 110V110C35.8291 111.665 39.2722 113.091 42.8033 114.268L43.5 114.5V114.5C47.1304 115.49 50.8843 116.173 54.6315 116.518V116.518" stroke="#A0E557"/>
<path d="M54.0007 116.5V116.5C58.7429 117.173 63.564 117.052 68.2665 116.142L69.0001 116V116C73.575 115.31 78.0064 113.877 82.1191 111.758L86.5 109.5" stroke="#A0E557"/>
<path d="M77.2317 113.683L83.5112 110.792L85.4071 109.977C88.4584 108.664 91.3429 106.994 94.0002 105.001V105.001L98.0002 101.501L100.5 99.001L102.194 97.3068C104.06 95.4405 105.738 93.3944 107.202 91.1984V91.1984C108.399 89.4027 109.449 87.5133 110.342 85.5485L114 77.5" stroke="#A0E557"/>
<path d="M88.2049 49.3914L56.6802 60.8294" stroke="url(#paint0_linear_498_618)" stroke-linecap="round"/>
<path d="M88.1482 48.2136L95.6079 44.9899L102.949 42.3175C103.24 42.2119 103.541 42.1406 103.848 42.1053L103.874 42.1022C104.222 42.0622 104.572 42.0598 104.92 42.0951L105.078 42.1112C105.278 42.1315 105.473 42.1818 105.658 42.2605V42.2605C105.875 42.3534 106.069 42.495 106.223 42.6746L106.266 42.7241L106.347 42.8502C106.412 42.9503 106.448 43.0657 106.454 43.1847V43.1847C106.46 43.3307 106.423 43.4754 106.348 43.6005L106.255 43.7529C106.128 43.9636 105.961 44.1479 105.764 44.2955L105.112 44.7842C104.775 45.0373 104.416 45.2607 104.039 45.4519L101.098 46.9459L95.6313 49.2922L93.5475 49.7433L90.9636 50.2404L86.4613 50.6074L85.9736 49.3141L88.1482 48.2136Z" fill="#E4E4E4"/>
<path d="M84.1719 45.9033L85.488 45.3907L88.6716 46.8099C88.9544 46.9359 89.2525 47.0246 89.5583 47.0735V47.0735C89.7964 47.1116 90.0377 47.1254 90.2786 47.1148L90.8946 47.0874L86.6998 48.9948L84.1719 45.9033Z" fill="#656565"/>
<path d="M92.3473 44.7999L95.4921 45.0907L92.4161 46.3508L91.8349 46.1853L90.257 45.6438L92.3473 44.7999Z" fill="#656565"/>
<path d="M92.5586 54.4014L94.8047 48.4444L100.095 46.4406L95.9396 51.9324L94.7448 53.5633L92.5586 54.4014Z" fill="#656565"/>
<path d="M87.3524 50.2332L89.8478 49.3575L87.4684 51.2322L86.1285 51.7458L87.3524 50.2332Z" fill="#656565"/>
<path d="M104.844 42.4763L105.525 42.207V42.207C105.701 42.2624 105.865 42.3506 106.009 42.4671L106.015 42.4722L105.506 42.8534L104.878 43.2399L104.844 42.4763Z" fill="#69B0E0"/>
<path d="M26.0134 56.7803C24.3494 57.7634 23.8392 59.9811 24.8742 61.7331C25.9092 63.4851 30.998 65.218 30.998 65.218C30.998 65.218 31.9361 59.9247 30.9011 58.1727C29.8661 56.4207 27.6775 55.7973 26.0134 56.7803ZM27.0549 58.5432C27.3212 58.3859 27.6425 58.3463 27.948 58.4332C28.2535 58.5202 28.5182 58.7265 28.684 59.0068C28.8498 59.2873 28.9029 59.6189 28.8316 59.9286C28.7604 60.2382 28.5707 60.5006 28.3042 60.658C28.0378 60.8155 27.7164 60.855 27.4108 60.7679C27.1052 60.6809 26.8404 60.4744 26.6747 60.1938C26.5092 59.9133 26.4562 59.5819 26.5275 59.2724C26.5988 58.9628 26.7885 58.7006 27.0549 58.5432Z" fill="#F05542"/>
<path d="M34.0134 31.7628C32.3494 32.7458 31.8392 34.9635 32.8742 36.7155C33.9092 38.4675 38.998 40.2004 38.998 40.2004C38.998 40.2004 39.9361 34.9071 38.9011 33.1551C37.8661 31.4031 35.6775 30.7797 34.0134 31.7628ZM35.0549 33.5256C35.3212 33.3683 35.6425 33.3287 35.948 33.4157C36.2535 33.5026 36.5182 33.7089 36.684 33.9892C36.8498 34.2698 36.9029 34.6013 36.8316 34.911C36.7604 35.2207 36.5707 35.4831 36.3042 35.6405C36.0378 35.7979 35.7164 35.8374 35.4108 35.7504C35.1052 35.6633 34.8404 35.4568 34.6747 35.1763C34.5092 34.8958 34.4562 34.5643 34.5275 34.2548C34.5988 33.9453 34.7885 33.683 35.0549 33.5256Z" fill="#F05542"/>
<path d="M50.0134 11.7628C48.3494 12.7458 47.8392 14.9635 48.8742 16.7155C49.9092 18.4675 54.998 20.2004 54.998 20.2004C54.998 20.2004 55.9361 14.9071 54.9011 13.1551C53.8661 11.4031 51.6775 10.7797 50.0134 11.7628ZM51.0549 13.5256C51.3212 13.3683 51.6425 13.3287 51.948 13.4157C52.2535 13.5026 52.5182 13.7089 52.684 13.9892C52.8498 14.2698 52.9029 14.6013 52.8316 14.911C52.7604 15.2207 52.5707 15.4831 52.3042 15.6405C52.0378 15.7979 51.7164 15.8374 51.4108 15.7504C51.1052 15.6633 50.8404 15.4568 50.6747 15.1763C50.5092 14.8958 50.4562 14.5643 50.5275 14.2548C50.5988 13.9453 50.7885 13.683 51.0549 13.5256Z" fill="#F05542"/>
<path d="M15.0134 21.7803C13.3494 22.7634 12.8392 24.9811 13.8742 26.7331C14.9092 28.4851 19.998 30.218 19.998 30.218C19.998 30.218 20.9361 24.9247 19.9011 23.1727C18.8661 21.4207 16.6775 20.7973 15.0134 21.7803ZM16.0549 23.5432C16.3212 23.3859 16.6425 23.3463 16.948 23.4332C17.2535 23.5202 17.5182 23.7265 17.684 24.0068C17.8498 24.2873 17.9029 24.6189 17.8316 24.9286C17.7604 25.2382 17.5707 25.5006 17.3042 25.658C17.0378 25.8155 16.7164 25.855 16.4108 25.7679C16.1052 25.6809 15.8404 25.4744 15.6747 25.1938C15.5092 24.9133 15.4562 24.5819 15.5275 24.2724C15.5988 23.9628 15.7885 23.7006 16.0549 23.5432Z" fill="#F05542"/>
<path d="M52.9366 91.7929C54.7377 91.0919 55.5998 88.9859 54.8618 87.0895C54.1237 85.1932 49.3821 82.6602 49.3821 82.6602C49.3821 82.6602 47.6004 87.7321 48.3384 89.6284C49.0765 91.5248 51.1355 92.4939 52.9366 91.7929ZM52.1939 89.8848C51.9056 89.997 51.5822 89.9841 51.2948 89.8489C51.0074 89.7137 50.7795 89.4673 50.6612 89.1638C50.543 88.8602 50.5442 88.5244 50.6646 88.2303C50.785 87.9363 51.0146 87.708 51.3031 87.5957C51.5915 87.4835 51.915 87.4965 52.2025 87.6318C52.49 87.7671 52.7179 88.0137 52.8361 88.3174C52.954 88.6209 52.9527 88.9566 52.8323 89.2505C52.7118 89.5444 52.4822 89.7726 52.1939 89.8848Z" fill="#F05542"/>
<path d="M87.9552 84.4587C89.341 83.1115 89.3148 80.836 87.8964 79.3769C86.478 77.9178 81.1243 77.4317 81.1243 77.4317C81.1243 77.4317 81.4588 82.797 82.8771 84.2561C84.2955 85.7152 86.5694 85.8058 87.9552 84.4587ZM86.528 82.9905C86.3062 83.2062 86.0033 83.3202 85.6859 83.3077C85.3685 83.2951 85.0627 83.1569 84.8355 82.9235C84.6084 82.6899 84.4787 82.3801 84.4751 82.0624C84.4714 81.7447 84.594 81.445 84.8159 81.2293C85.0378 81.0135 85.3409 80.8995 85.6584 80.9121C85.9759 80.9248 86.2818 81.0631 86.5089 81.2968C86.7358 81.5304 86.8653 81.8401 86.8689 82.1577C86.8725 82.4753 86.7499 82.7749 86.528 82.9905Z" fill="#F05542"/>
<path d="M70.4014 110.349C72.2796 110.805 74.1918 109.571 74.6716 107.593C75.1515 105.616 72.7123 100.825 72.7123 100.825C72.7123 100.825 68.3489 103.965 67.869 105.943C67.3892 107.92 68.5232 109.893 70.4014 110.349ZM70.8842 108.359C70.5836 108.286 70.3258 108.091 70.1674 107.815C70.009 107.54 69.9631 107.207 70.0398 106.891C70.1166 106.574 70.3098 106.3 70.5767 106.127C70.8437 105.955 71.1627 105.899 71.4634 105.972C71.7642 106.045 72.0221 106.241 72.1805 106.516C72.3388 106.792 72.3846 107.125 72.3078 107.441C72.2308 107.758 72.0376 108.032 71.7707 108.204C71.5037 108.376 71.1849 108.432 70.8842 108.359Z" fill="#F05542"/>
<defs>
<linearGradient id="paint0_linear_498_618" x1="56.5268" y1="60.3647" x2="84.8731" y2="51.0067" gradientUnits="userSpaceOnUse">
<stop offset="0.283201" stop-color="white" stop-opacity="0.05"/>
<stop offset="1" stop-color="white"/>
</linearGradient>
</defs>
</svg>
